<svg width="627" height="419" viewBox="0 0 627 419" fill="none" xmlns="http://www.w3.org/2000/svg">
<path d="M148.106 203.324C138.575 174.388 142.789 140.608 161.482 116.549C180.175 92.4901 209.694 80.448 238.619 89.8504C274.174 101.373 276.323 137.742 301.712 155.466C323.139 170.432 346.338 170.407 372.446 170.491C396.799 170.567 419.864 161.399 444.209 160.93C460.444 160.611 487.915 163.15 499.385 182.399C514.909 208.461 507.377 240.414 493.156 264.883C480.491 286.671 448.063 298.923 424.788 308.459C401.514 317.996 370.532 323.543 345.368 323.954C302.966 324.624 262.746 318.557 224.65 299.878C186.553 281.199 157.586 240.506 146.827 199.444" fill="#EBEBEB"/>
<path d="M563.79 376.505C563.79 376.631 450.997 376.723 311.887 376.723C172.776 376.723 59.9663 376.631 59.9663 376.505C59.9663 376.379 172.734 376.262 311.887 376.262C451.039 376.262 563.79 376.388 563.79 376.505Z" fill="#263238"/>
<path d="M410.66 144.379L396.264 143.231C396.18 141.555 396.264 135.044 396.264 135.044C396.264 135.044 390.287 134.114 390.211 128.122C390.136 122.13 391.248 108.37 391.248 108.37C394.649 106.9 398.381 106.368 402.056 106.831C405.731 107.294 409.215 108.734 412.148 111.001L413.034 111.68L410.66 144.379Z" fill="#FFBE9D"/>
<path d="M392.611 118.669C392.78 118.513 392.88 118.296 392.891 118.065C392.902 117.835 392.822 117.609 392.669 117.437C392.555 117.322 392.41 117.242 392.251 117.207C392.092 117.173 391.927 117.186 391.775 117.244C391.624 117.302 391.492 117.403 391.397 117.535C391.302 117.667 391.247 117.824 391.239 117.986C391.232 118.149 391.271 118.31 391.354 118.451C391.436 118.591 391.557 118.704 391.703 118.777C391.848 118.849 392.011 118.878 392.173 118.859C392.334 118.839 392.486 118.774 392.611 118.669Z" fill="#263238"/>
<path d="M391.156 117.32C391.256 117.429 391.842 116.976 392.661 116.968C393.48 116.96 394.082 117.395 394.174 117.286C394.266 117.178 394.124 117.052 393.865 116.851C393.515 116.595 393.094 116.457 392.661 116.457C392.228 116.457 391.806 116.595 391.457 116.851C391.198 117.06 391.114 117.253 391.156 117.32Z" fill="#263238"/>
<path d="M400.645 118.016C400.51 118.107 400.404 118.235 400.341 118.385C400.278 118.535 400.26 118.7 400.289 118.86C400.318 119.021 400.392 119.169 400.504 119.287C400.616 119.406 400.76 119.489 400.918 119.526C401.076 119.564 401.241 119.555 401.394 119.499C401.547 119.444 401.681 119.346 401.779 119.216C401.876 119.086 401.934 118.93 401.945 118.767C401.956 118.605 401.92 118.443 401.84 118.301C401.784 118.2 401.707 118.112 401.615 118.042C401.522 117.972 401.417 117.922 401.305 117.896C401.192 117.869 401.076 117.866 400.962 117.886C400.848 117.907 400.74 117.951 400.645 118.016Z" fill="#263238"/>
<path d="M400.101 118.024C400.193 118.133 400.778 117.672 401.606 117.672C402.434 117.672 403.027 118.091 403.119 117.99C403.211 117.89 403.069 117.756 402.81 117.555C402.456 117.302 402.031 117.17 401.598 117.178C401.164 117.176 400.743 117.32 400.402 117.588C400.143 117.789 400.059 117.982 400.101 118.024Z" fill="#263238"/>
<path d="M396.799 124.862C396.376 124.69 395.926 124.594 395.47 124.577C395.252 124.577 395.085 124.502 395.069 124.384C395.059 124.17 395.112 123.958 395.219 123.773L395.871 122.097C396.488 120.679 396.962 119.202 397.284 117.689C396.528 119.04 395.91 120.463 395.436 121.937C395.219 122.516 395.018 123.077 394.818 123.613C394.683 123.892 394.642 124.206 394.701 124.51C394.731 124.593 394.779 124.668 394.843 124.73C394.907 124.791 394.984 124.836 395.069 124.862C395.188 124.894 395.312 124.908 395.436 124.904C395.89 124.964 396.35 124.95 396.799 124.862Z" fill="#263238"/>
<path d="M399.474 125.742C398.189 126.32 396.83 126.717 395.436 126.924C395.715 127.357 396.132 127.684 396.62 127.848C397.107 128.013 397.636 128.006 398.12 127.829C399.909 127.175 399.474 125.742 399.474 125.742Z" fill="white"/>
<path d="M396.314 134.96C399.073 135.008 401.785 134.236 404.106 132.739C404.106 132.739 402.266 137.047 396.297 136.51L396.314 134.96Z" fill="#EB996E"/>
<path d="M391.106 109.879C391.106 109.879 394.609 111.907 399.466 109.879C402.685 108.555 406.346 108.069 407.099 108.747C407.851 109.426 407.776 112.644 410.777 113.775C410.777 113.775 410.117 119.859 412.566 119.826C415.016 119.792 414.188 110.222 414.188 110.222L408.461 106.87L402.066 105.194L395.896 105.605L391.073 106.552L391.106 109.879Z" fill="#263238"/>
<path d="M412.257 117.89C412.357 117.848 416.361 116.675 416.236 120.764C416.111 124.854 412.056 123.89 412.056 123.773C412.056 123.655 412.257 117.89 412.257 117.89Z" fill="#FFBE9D"/>
<path d="M413.318 122.256C413.318 122.256 413.393 122.306 413.51 122.373C413.683 122.439 413.873 122.439 414.045 122.373C414.31 122.21 414.526 121.981 414.673 121.707C414.82 121.433 414.892 121.125 414.881 120.814C414.905 120.463 414.848 120.11 414.714 119.784C414.679 119.656 414.613 119.538 414.523 119.44C414.433 119.343 414.321 119.268 414.196 119.222C414.115 119.199 414.028 119.205 413.95 119.238C413.872 119.272 413.809 119.331 413.77 119.407C413.711 119.516 413.77 119.599 413.711 119.608C413.653 119.616 413.627 119.532 413.711 119.365C413.734 119.263 413.793 119.173 413.878 119.113C413.993 119.034 414.133 119.001 414.271 119.021C414.439 119.06 414.593 119.142 414.72 119.258C414.848 119.374 414.943 119.52 414.999 119.683C415.16 120.043 415.232 120.437 415.208 120.831C415.217 121.197 415.118 121.557 414.923 121.865C414.728 122.174 414.446 122.418 414.112 122.566C414.003 122.595 413.888 122.599 413.776 122.577C413.665 122.555 413.56 122.508 413.469 122.44C413.327 122.348 413.31 122.264 413.318 122.256Z" fill="#EB996E"/>
<path d="M395.16 115.954C395.027 116.189 394.249 115.954 393.313 115.954C392.377 115.954 391.574 116.029 391.465 115.778C391.357 115.527 392.159 114.94 393.355 114.99C394.55 115.041 395.303 115.736 395.16 115.954Z" fill="#263238"/>
<path d="M404.331 115.954C404.198 116.189 403.42 115.954 402.484 115.954C401.548 115.954 400.745 116.029 400.636 115.778C400.528 115.527 401.33 114.94 402.526 114.99C403.721 115.041 404.474 115.736 404.331 115.954Z" fill="#263238"/>
<path d="M408.628 109.619C409.298 110.639 410.096 111.568 411.003 112.384C411.923 113.197 413.121 113.62 414.347 113.566C414.954 113.519 415.532 113.281 415.996 112.885C416.46 112.489 416.787 111.956 416.93 111.362C416.978 111.065 416.962 110.761 416.882 110.471C416.802 110.181 416.661 109.911 416.469 109.681C416.276 109.45 416.036 109.264 415.765 109.135C415.494 109.005 415.198 108.936 414.898 108.932C415.1 108.964 415.306 108.948 415.5 108.883C415.693 108.819 415.869 108.709 416.011 108.563C416.153 108.416 416.258 108.238 416.317 108.042C416.376 107.846 416.387 107.639 416.349 107.438C416.312 107.237 416.226 107.048 416.1 106.887C415.974 106.727 415.811 106.599 415.626 106.514C415.44 106.43 415.236 106.391 415.033 106.402C414.829 106.413 414.631 106.473 414.455 106.577C415.5 106.518 415.826 104.901 415.099 104.147C414.691 103.814 414.204 103.593 413.685 103.505C413.167 103.417 412.634 103.465 412.14 103.644C411.157 104.011 410.144 104.292 409.113 104.482C407.441 104.624 405.92 103.744 404.616 102.739C403.398 101.628 402.044 100.679 400.586 99.9148C398.674 99.2116 396.584 99.1644 394.642 99.7807C393.004 100.179 391.501 101.006 390.286 102.177C389.682 102.765 389.218 103.481 388.929 104.273C388.639 105.066 388.532 105.913 388.614 106.753C388.723 107.588 389.092 108.367 389.668 108.98C390.245 109.592 390.999 110.006 391.825 110.164C394.212 110.63 396.686 110.275 398.847 109.158C402.191 107.298 408.553 108.429 408.553 108.429L408.628 109.619Z" fill="#263238"/>
<path d="M414.865 105.647C414.788 105.712 414.701 105.763 414.606 105.797C414.354 105.931 414.095 106.048 413.828 106.149C412.841 106.534 411.811 106.795 410.76 106.929C409.202 107.142 407.619 107.089 406.079 106.77C404.226 106.296 402.416 105.665 400.67 104.884C398.957 104.123 397.09 103.775 395.219 103.87C394.468 103.921 393.735 104.13 393.071 104.486C392.407 104.841 391.825 105.334 391.365 105.932C390.777 106.772 390.535 107.808 390.688 108.823C390.767 109.194 390.876 109.558 391.014 109.912C391.014 109.912 390.939 109.837 390.83 109.669C390.683 109.408 390.579 109.125 390.521 108.831C390.41 108.301 390.405 107.753 390.507 107.221C390.609 106.689 390.815 106.182 391.114 105.73C391.587 105.078 392.195 104.536 392.896 104.141C393.597 103.746 394.375 103.508 395.177 103.443C397.115 103.316 399.055 103.664 400.829 104.457C402.554 105.228 404.337 105.861 406.162 106.351C407.661 106.675 409.202 106.76 410.727 106.602C412.134 106.42 413.52 106.1 414.865 105.647Z" fill="#455A64"/>
<path d="M415.868 112.133C415.91 112.133 415.726 112.535 415.224 112.971C414.557 113.545 413.726 113.895 412.85 113.968C411.973 114.042 411.096 113.837 410.342 113.381C409.774 113.021 409.506 112.677 409.565 112.644C409.623 112.61 409.924 112.845 410.484 113.105C411.208 113.458 412.013 113.609 412.815 113.541C413.618 113.473 414.386 113.189 415.041 112.719C415.551 112.384 415.818 112.091 415.868 112.133Z" fill="#455A64"/>
<path d="M414.865 109.971C414.965 110.029 414.556 110.725 413.711 111.161C412.867 111.596 412.039 111.529 412.039 111.412C412.039 111.295 412.733 111.169 413.486 110.775C414.238 110.381 414.773 109.887 414.865 109.971Z" fill="#455A64"/>
<path d="M388.74 112.292C388.69 112.292 388.598 112.083 388.615 111.714C388.651 111.23 388.838 110.77 389.15 110.398C389.463 110.029 389.889 109.772 390.362 109.669C390.721 109.594 390.939 109.669 390.947 109.669C390.955 109.669 390.111 109.912 389.484 110.65C388.857 111.387 388.899 112.292 388.74 112.292Z" fill="#263238"/>
<path d="M387.436 106.242C387.838 106.98 388.296 107.686 388.807 108.353C389.421 108.931 390.081 109.458 390.78 109.929C390.33 109.886 389.894 109.75 389.5 109.529C389.106 109.308 388.761 109.008 388.489 108.647C388.161 108.338 387.898 107.965 387.717 107.552C387.536 107.139 387.441 106.693 387.436 106.242Z" fill="#455A64"/>
<path d="M333.305 180.614C333.305 180.614 351.086 203.24 359.722 199.05C368.358 194.86 383.849 180.614 383.849 180.614L375.272 171.983L357.9 187.293L336.49 175.075L333.305 180.614Z" fill="#FFBE9D"/>
<path d="M424.487 214.721L379.151 212.567C379.034 207.598 381.124 172.41 381.124 172.41L378.616 177.086L365.691 165.539L377.036 150.245C378.812 147.843 381.049 145.821 383.616 144.299C386.183 142.776 389.028 141.783 391.983 141.379C393.739 141.144 395.068 141.027 395.938 140.918C400.921 142.498 406.27 142.498 411.253 140.918C413.418 140.991 415.559 141.401 417.598 142.133C421.438 143.502 424.905 145.752 427.722 148.703L441.241 171.472L424.822 181.846L422.464 174.681L424.487 214.721Z" fill="#455A64"/>
<path d="M438.164 368.393L439.585 374.385C439.585 374.385 449.375 387.131 452.393 386.502C454.374 386.1 451.941 382.773 448.213 373.094L447.427 369.097L438.164 368.393Z" fill="#100070"/>
<path d="M452.794 384.642C452.775 384.704 452.747 384.763 452.711 384.818C452.611 384.98 452.469 385.114 452.301 385.203C452.045 385.344 451.756 385.41 451.465 385.396C451.065 385.36 450.681 385.219 450.353 384.986C448.605 383.571 446.96 382.033 445.429 380.385C443.879 378.752 442.417 377.037 441.049 375.248C440.53 374.552 440.121 373.991 439.845 373.572L439.535 373.111C439.497 373.059 439.463 373.002 439.435 372.943C439.474 372.996 439.507 373.052 439.535 373.111L439.878 373.547L441.124 375.164C442.194 376.513 443.724 378.34 445.529 380.251C447.059 381.887 448.684 383.432 450.395 384.877C450.653 385.089 450.964 385.226 451.295 385.272C451.625 385.318 451.962 385.271 452.268 385.136C452.483 385.02 452.665 384.85 452.794 384.642Z" fill="#263238"/>
<path d="M451.44 380.527C451.44 380.527 451.13 380.527 450.604 380.569C449.979 380.672 449.382 380.9 448.848 381.24C448.297 381.554 447.841 382.012 447.527 382.564C447.293 382.991 447.226 383.293 447.193 383.284C447.201 383.009 447.273 382.74 447.402 382.497C447.7 381.902 448.165 381.407 448.74 381.072C449.303 380.72 449.942 380.507 450.604 380.452C450.884 380.397 451.174 380.423 451.44 380.527Z" fill="#263238"/>
<path d="M442.144 377.536C442.144 377.536 442.244 377.108 442.319 376.413C442.419 375.507 442.251 374.592 441.834 373.782C441.422 372.973 440.767 372.313 439.962 371.896C439.616 371.742 439.262 371.611 438.9 371.502C439.002 371.488 439.107 371.488 439.209 371.502C439.498 371.547 439.779 371.632 440.045 371.754C440.904 372.153 441.603 372.832 442.027 373.681C442.463 374.52 442.621 375.477 442.478 376.413C442.442 376.698 442.378 376.979 442.286 377.251C442.257 377.354 442.209 377.451 442.144 377.536Z" fill="#263238"/>
<path d="M438.791 369.407C439.066 370.001 439.246 370.635 439.326 371.284C439.51 372.349 439.703 373.187 439.661 373.203C439.387 372.607 439.212 371.97 439.142 371.318C438.958 370.262 438.741 369.424 438.791 369.407Z" fill="#263238"/>
<path d="M448.388 373.941C448.388 373.999 447.837 373.941 447.176 374.133C446.516 374.326 446.031 374.544 446.006 374.494C446.318 374.201 446.712 374.011 447.134 373.949C447.542 373.822 447.979 373.819 448.388 373.941Z" fill="#263238"/>
<path d="M448.589 374.972C448.589 375.022 448.121 374.972 447.578 375.114C447.034 375.257 446.641 375.491 446.608 375.441C446.845 375.161 447.174 374.977 447.536 374.921C447.881 374.804 448.257 374.822 448.589 374.972Z" fill="#263238"/>
<path d="M449.375 376.262C449.025 376.223 448.672 376.223 448.322 376.262C447.986 376.371 447.662 376.512 447.352 376.681C447.453 376.518 447.588 376.38 447.749 376.276C447.909 376.171 448.09 376.104 448.28 376.078C448.464 376.023 448.659 376.012 448.849 376.043C449.038 376.075 449.218 376.15 449.375 376.262Z" fill="#263238"/>
<path d="M447.72 373.513C447.61 373.515 447.5 373.501 447.394 373.472C447.109 373.416 446.829 373.338 446.558 373.237C446.135 373.096 445.727 372.917 445.337 372.701C445.12 372.575 444.894 372.441 444.668 372.282C444.533 372.203 444.418 372.094 444.333 371.963C444.247 371.832 444.193 371.683 444.175 371.527C444.187 371.444 444.217 371.365 444.262 371.295C444.308 371.224 444.368 371.165 444.439 371.12C444.51 371.076 444.589 371.047 444.672 371.036C444.755 371.026 444.839 371.033 444.919 371.058C445.185 371.143 445.422 371.299 445.605 371.511C445.923 371.824 446.224 372.154 446.507 372.5C446.742 372.793 446.925 373.036 447.043 373.212C447.16 373.388 447.218 373.497 447.201 373.505C447.185 373.513 446.9 373.145 446.365 372.583C446.115 372.307 445.805 371.98 445.446 371.645C445.285 371.459 445.077 371.32 444.844 371.243C444.626 371.184 444.342 371.301 444.334 371.536C444.326 371.77 444.543 371.98 444.744 372.122C444.953 372.274 445.171 372.414 445.396 372.541C445.771 372.766 446.166 372.956 446.574 373.111C447.26 373.388 447.728 373.48 447.72 373.513Z" fill="#263238"/>
<path d="M447.201 373.388C447.187 373.288 447.187 373.186 447.201 373.086C447.201 372.893 447.201 372.617 447.26 372.248C447.311 371.84 447.415 371.44 447.569 371.058C447.668 370.832 447.797 370.62 447.954 370.43C448.039 370.307 448.163 370.217 448.305 370.173C448.447 370.129 448.6 370.133 448.74 370.186C448.855 370.276 448.942 370.398 448.989 370.536C449.037 370.675 449.043 370.824 449.007 370.966C448.968 371.208 448.898 371.445 448.798 371.67C448.624 372.043 448.387 372.384 448.096 372.675C447.905 372.875 447.695 373.054 447.469 373.212C447.392 373.277 447.305 373.328 447.21 373.363C447.21 373.363 447.544 373.094 447.996 372.583C448.258 372.293 448.473 371.962 448.631 371.603C448.726 371.392 448.791 371.169 448.823 370.941C448.823 370.723 448.823 370.446 448.648 370.354C448.472 370.262 448.246 370.354 448.096 370.564C447.95 370.738 447.827 370.929 447.728 371.133C447.572 371.496 447.46 371.876 447.394 372.265C447.354 372.643 447.29 373.018 447.201 373.388Z" fill="#263238"/>
<g opacity="0.4">
<path opacity="0.4" d="M439.585 374.385L438.9 371.502C438.9 371.502 441.299 371.946 441.918 373.748C442.288 374.729 442.448 375.777 442.386 376.824L447.603 382.455C447.603 382.455 448.907 379.891 451.273 380.511C451.273 380.511 453.137 384.617 453.078 385.648C453.02 386.678 451.833 386.553 451.406 386.36C449.687 385.353 448.116 384.109 446.742 382.664C444.218 380.027 441.83 377.264 439.585 374.385Z" fill="black"/>
</g>
<path d="M389.517 371.418L389.476 363.424L404.423 363.24L404.607 374.971L403.688 375.047C399.558 375.323 382.704 376.178 379.937 375.374C376.852 374.444 389.517 371.418 389.517 371.418Z" fill="#100070"/>
<g opacity="0.4">
<path opacity="0.4" d="M399.19 374.888C399.399 373.623 400.062 372.479 401.054 371.67C402.036 370.872 403.278 370.469 404.54 370.538L404.59 374.728L399.19 374.888Z" fill="black"/>
</g>
<path opacity="0.4" d="M383.331 373.12C383.331 373.12 378.9 374.46 379.46 375.189C380.02 375.918 397.092 375.701 404.607 374.938V374.611L384.702 375.03C384.702 375.03 384.2 373.145 383.331 373.12Z" fill="black"/>
<path d="M404.816 374.586H404.557L403.821 374.636L401.104 374.787C398.814 374.905 395.645 375.013 392.142 375.064C388.64 375.114 385.454 375.064 383.164 375.064L380.447 374.988H379.711H379.452H379.711H380.447H383.172C385.463 374.988 388.631 374.988 392.134 374.988C395.637 374.988 398.822 374.846 401.104 374.77L403.788 374.586H404.523H404.816Z" fill="#263238"/>
<path d="M384.685 375.265C384.557 374.817 384.381 374.384 384.159 373.974C383.892 373.582 383.577 373.224 383.222 372.91C383.69 373.073 384.08 373.405 384.317 373.84C384.612 374.253 384.743 374.761 384.685 375.265Z" fill="#263238"/>
<path d="M389.066 372.969C389.024 372.969 388.807 372.734 388.589 372.399C388.372 372.064 388.222 371.754 388.263 371.729C388.305 371.703 388.514 371.955 388.74 372.298C388.966 372.642 389.108 372.91 389.066 372.969Z" fill="#263238"/>
<path d="M390.27 372.307C390.27 372.348 390.002 372.189 389.735 371.963C389.467 371.737 389.292 371.519 389.325 371.477C389.359 371.435 389.593 371.594 389.86 371.829C390.128 372.064 390.303 372.273 390.27 372.307Z" fill="#263238"/>
<path d="M391.014 370.882C390.767 370.978 390.5 371.016 390.236 370.991C390.227 370.939 390.228 370.885 390.239 370.833C390.251 370.781 390.273 370.732 390.304 370.689C390.335 370.646 390.374 370.609 390.42 370.582C390.465 370.554 390.516 370.536 390.568 370.529C390.621 370.522 390.674 370.525 390.726 370.539C390.777 370.553 390.825 370.577 390.866 370.61C390.908 370.643 390.943 370.684 390.968 370.731C390.993 370.778 391.009 370.829 391.014 370.882Z" fill="#263238"/>
<path d="M391.248 369.885C391 370.05 390.71 370.14 390.412 370.145C390.11 370.205 389.796 370.167 389.517 370.036C389.81 369.987 390.107 369.965 390.403 369.969C390.682 369.914 390.964 369.886 391.248 369.885Z" fill="#263238"/>
<path d="M388.548 371.662C388.23 371.724 387.904 371.724 387.586 371.662C387.238 371.621 386.894 371.551 386.558 371.452C386.355 371.394 386.159 371.316 385.973 371.217C385.914 371.186 385.862 371.143 385.821 371.091C385.779 371.04 385.748 370.98 385.73 370.916C385.715 370.845 385.72 370.772 385.743 370.704C385.767 370.636 385.809 370.576 385.864 370.53C386.23 370.345 386.648 370.293 387.048 370.383C387.447 370.473 387.803 370.7 388.054 371.025C388.207 371.21 388.315 371.428 388.372 371.662C388.391 371.747 388.391 371.836 388.372 371.921C388.269 371.619 388.117 371.335 387.921 371.083C387.698 370.833 387.407 370.653 387.085 370.564C386.897 370.502 386.699 370.478 386.503 370.494C386.306 370.51 386.114 370.565 385.939 370.656C385.789 370.773 385.856 370.949 386.023 371.05C386.196 371.142 386.378 371.218 386.566 371.276C386.892 371.38 387.224 371.461 387.561 371.519C388.18 371.636 388.539 371.636 388.548 371.662Z" fill="#263238"/>
<path d="M388.297 371.712C388.297 371.712 388.138 371.485 388.18 371.05C388.203 370.795 388.289 370.55 388.431 370.337C388.51 370.193 388.624 370.072 388.763 369.986C388.902 369.899 389.061 369.85 389.225 369.843C389.321 369.863 389.406 369.92 389.462 370.001C389.518 370.082 389.541 370.181 389.526 370.279C389.504 370.433 389.45 370.582 389.367 370.714C389.242 370.926 389.093 371.123 388.924 371.301C388.623 371.603 388.389 371.72 388.372 371.695C388.355 371.67 388.564 371.527 388.824 371.217C388.977 371.038 389.109 370.841 389.217 370.631C389.35 370.43 389.434 370.061 389.217 370.019C388.999 369.977 388.74 370.245 388.59 370.438C388.461 370.627 388.373 370.841 388.33 371.066C388.301 371.28 388.29 371.496 388.297 371.712Z" fill="#263238"/>
<path d="M404.457 370.497C404.457 370.497 404.031 370.497 403.353 370.555C402.474 370.663 401.644 371.018 400.958 371.58C400.273 372.143 399.761 372.889 399.483 373.731C399.257 374.377 399.24 374.804 399.207 374.804C399.191 374.704 399.191 374.602 399.207 374.502C399.227 374.218 399.277 373.937 399.357 373.664C399.614 372.779 400.133 371.993 400.845 371.41C401.557 370.826 402.429 370.473 403.345 370.396C403.623 370.368 403.903 370.368 404.181 370.396C404.277 370.417 404.37 370.451 404.457 370.497Z" fill="#263238"/>
<path d="M402.835 364.287C402.946 365.308 403.002 366.335 403.002 367.362C403.063 368.387 403.063 369.414 403.002 370.438C402.829 368.392 402.779 366.338 402.852 364.287H402.835Z" fill="#263238"/>
<path d="M397.292 373.455C396.578 373.626 395.845 373.708 395.11 373.698C394.377 373.743 393.64 373.692 392.92 373.547C392.92 373.497 393.906 373.547 395.11 373.547C396.314 373.547 397.284 373.405 397.292 373.455Z" fill="#263238"/>
<path d="M400.218 373.413C400.218 373.413 400.143 373.622 400.043 373.849C399.942 374.075 399.892 374.267 399.842 374.267C399.792 374.267 399.767 374.033 399.842 373.773C399.917 373.513 400.185 373.379 400.218 373.413Z" fill="#263238"/>
<path d="M401.28 372.022C401.28 372.022 401.221 372.214 401.071 372.374C400.92 372.533 400.761 372.633 400.728 372.6C400.695 372.566 400.787 372.407 400.937 372.248C401.088 372.089 401.28 371.988 401.28 372.022Z" fill="#263238"/>
<path d="M402.877 371.368C402.877 371.418 402.668 371.418 402.45 371.502C402.233 371.586 402.074 371.703 402.032 371.67C401.99 371.636 402.116 371.427 402.392 371.335C402.668 371.242 402.893 371.326 402.877 371.368Z" fill="#263238"/>
<path d="M403.997 371.058C403.997 371.108 403.93 371.184 403.805 371.234C403.679 371.284 403.571 371.284 403.554 371.234C403.537 371.184 403.621 371.108 403.738 371.058C403.855 371.008 403.98 371.016 403.997 371.058Z" fill="#263238"/>
<path d="M379.343 212.567L386.324 367.974L409.598 368.46L405.736 238.361L431.911 369.457H454.048L424.487 212.567" fill="#263238"/>
<path d="M430.766 367.346L431.292 369.642L454.048 369.952L453.697 366.357L430.766 367.346Z" fill="#455A64"/>
<path d="M405.585 367.111C405.719 367.111 405.836 367.404 405.861 367.79C405.886 368.175 405.786 368.485 405.652 368.494C405.518 368.502 405.401 368.201 405.376 367.815C405.351 367.43 405.46 367.111 405.585 367.111Z" fill="#455A64"/>
<path d="M405.351 361.48C405.485 361.48 405.619 362.1 405.644 362.879C405.669 363.659 405.594 364.295 405.46 364.295C405.326 364.295 405.192 363.675 405.167 362.896C405.142 362.117 405.218 361.488 405.351 361.48Z" fill="#455A64"/>
<path d="M405.184 355.848C405.318 355.848 405.443 356.477 405.468 357.256C405.493 358.036 405.401 358.664 405.268 358.664C405.134 358.664 405.008 358.044 404.983 357.265C404.958 356.485 405.05 355.857 405.184 355.848Z" fill="#455A64"/>
<path d="M405.05 350.217C405.184 350.217 405.301 350.846 405.326 351.616C405.351 352.387 405.251 353.033 405.117 353.033C404.983 353.033 404.858 352.413 404.841 351.633C404.825 350.854 404.917 350.217 405.05 350.217Z" fill="#455A64"/>
<path d="M404.917 344.577C405.042 344.577 405.167 345.206 405.184 345.985C405.201 346.764 405.117 347.393 404.983 347.401C404.85 347.41 404.724 346.773 404.708 345.993C404.691 345.214 404.783 344.586 404.917 344.577Z" fill="#455A64"/>
<path d="M404.758 338.946C404.883 338.946 405.017 339.566 405.034 340.345C405.05 341.125 404.975 341.762 404.841 341.762C404.708 341.762 404.582 341.141 404.557 340.362C404.532 339.583 404.624 338.946 404.758 338.946Z" fill="#455A64"/>
<path d="M404.54 333.314C404.666 333.314 404.808 333.935 404.841 334.706C404.875 335.477 404.791 336.122 404.657 336.13C404.524 336.139 404.39 335.51 404.356 334.731C404.323 333.951 404.407 333.314 404.54 333.314Z" fill="#455A64"/>
<path d="M404.306 327.658C404.44 327.658 404.574 328.278 404.607 329.058C404.64 329.837 404.548 330.465 404.423 330.474C404.298 330.482 404.156 329.854 404.122 329.074C404.089 328.295 404.172 327.658 404.306 327.658Z" fill="#455A64"/>
<path d="M404.106 322.052C404.239 322.052 404.365 322.672 404.398 323.451C404.432 324.231 404.34 324.859 404.206 324.868C404.072 324.876 403.938 324.247 403.913 323.468C403.888 322.689 403.972 322.052 404.106 322.052Z" fill="#455A64"/>
<path d="M403.93 316.421C404.056 316.421 404.189 317.041 404.206 317.82C404.223 318.599 404.148 319.228 404.014 319.236C403.88 319.245 403.755 318.608 403.73 317.837C403.704 317.066 403.788 316.421 403.93 316.421Z" fill="#455A64"/>
<path d="M403.788 310.789C403.913 310.789 404.039 311.409 404.064 312.189C404.089 312.968 403.988 313.596 403.855 313.605C403.721 313.613 403.595 312.976 403.579 312.205C403.562 311.434 403.646 310.789 403.788 310.789Z" fill="#455A64"/>
<path d="M403.654 305.149C403.788 305.149 403.905 305.778 403.922 306.557C403.938 307.336 403.846 307.965 403.713 307.973C403.579 307.982 403.454 307.345 403.445 306.565C403.437 305.786 403.52 305.158 403.654 305.149Z" fill="#455A64"/>
<path d="M403.562 299.518C403.687 299.518 403.813 300.147 403.821 300.926C403.83 301.705 403.738 302.334 403.604 302.334C403.47 302.334 403.353 301.714 403.336 300.934C403.32 300.155 403.428 299.518 403.562 299.518Z" fill="#455A64"/>
<path d="M403.495 293.887C403.629 293.887 403.738 294.515 403.746 295.294C403.754 296.074 403.654 296.702 403.52 296.702C403.387 296.702 403.278 296.074 403.27 295.294C403.261 294.515 403.361 293.887 403.495 293.887Z" fill="#455A64"/>
<path d="M403.462 288.272C403.596 288.272 403.704 288.909 403.704 289.68C403.704 290.451 403.604 291.096 403.47 291.096C403.336 291.096 403.228 290.468 403.228 289.688C403.228 288.909 403.328 288.272 403.462 288.272Z" fill="#455A64"/>
<path d="M403.454 282.615C403.587 282.615 403.696 283.244 403.696 284.023C403.696 284.803 403.587 285.431 403.454 285.431C403.32 285.431 403.211 284.803 403.211 284.023C403.211 283.244 403.32 282.615 403.454 282.615Z" fill="#455A64"/>
<path d="M403.479 276.984C403.612 276.984 403.721 277.613 403.713 278.392C403.704 279.171 403.596 279.8 403.462 279.8C403.328 279.8 403.228 279.163 403.236 278.392C403.244 277.621 403.345 276.984 403.479 276.984Z" fill="#455A64"/>
<path d="M403.537 271.344C403.671 271.344 403.771 271.981 403.763 272.761C403.755 273.54 403.638 274.169 403.504 274.16C403.37 274.152 403.27 273.532 403.278 272.752C403.286 271.973 403.403 271.344 403.537 271.344Z" fill="#455A64"/>
<path d="M403.629 265.713C403.763 265.713 403.855 266.35 403.847 267.129C403.838 267.909 403.713 268.529 403.579 268.529C403.445 268.529 403.353 267.892 403.362 267.121C403.37 266.35 403.495 265.713 403.629 265.713Z" fill="#455A64"/>
<path d="M403.738 260.073C403.872 260.073 403.972 260.71 403.955 261.49C403.938 262.269 403.813 262.897 403.679 262.897C403.545 262.897 403.454 262.261 403.47 261.481C403.487 260.702 403.612 260.073 403.738 260.073Z" fill="#455A64"/>
<path d="M403.913 254.442C404.047 254.442 404.131 255.079 404.106 255.858C404.081 256.638 403.947 257.266 403.788 257.266C403.629 257.266 403.571 256.629 403.604 255.85C403.637 255.07 403.788 254.434 403.913 254.442Z" fill="#455A64"/>
<path d="M404.214 248.811C404.348 248.811 404.415 249.456 404.365 250.227C404.315 250.998 404.173 251.626 404.047 251.626C403.922 251.626 403.838 250.981 403.888 250.202C403.938 249.422 404.081 248.802 404.214 248.811Z" fill="#455A64"/>
<path d="M404.708 243.196C404.841 243.196 404.883 243.85 404.808 244.621C404.733 245.392 404.565 246.012 404.432 245.995C404.298 245.978 404.256 245.35 404.331 244.57C404.407 243.791 404.574 243.179 404.708 243.196Z" fill="#455A64"/>
<path d="M405.243 239.023C405.368 239.023 405.435 239.366 405.385 239.752C405.335 240.137 405.176 240.422 405.042 240.405C404.908 240.389 404.85 240.062 404.908 239.676C404.967 239.291 405.109 239.006 405.243 239.023Z" fill="#455A64"/>
<path d="M385.714 368.728L410.334 369.131L410.142 365.016L385.714 365.15V368.728Z" fill="#455A64"/>
<path d="M449.408 365.092C449.534 365.092 449.693 365.36 449.751 365.737C449.81 366.114 449.751 366.441 449.626 366.466C449.5 366.491 449.341 366.198 449.283 365.812C449.224 365.427 449.275 365.117 449.408 365.092Z" fill="#455A64"/>
<path d="M448.522 359.686C448.656 359.686 448.865 360.256 448.982 361.002C449.099 361.748 449.099 362.368 448.982 362.393C448.865 362.418 448.648 361.823 448.522 361.077C448.397 360.332 448.397 359.712 448.522 359.686Z" fill="#455A64"/>
<path d="M447.636 354.29C447.77 354.29 447.97 354.851 448.096 355.597C448.221 356.343 448.213 356.971 448.096 356.988C447.979 357.005 447.761 356.427 447.636 355.681C447.511 354.935 447.502 354.315 447.636 354.29Z" fill="#455A64"/>
<path d="M446.741 348.893C446.867 348.893 447.076 349.454 447.201 350.2C447.327 350.946 447.318 351.566 447.201 351.591C447.084 351.616 446.867 351.021 446.741 350.284C446.616 349.547 446.608 348.91 446.741 348.893Z" fill="#455A64"/>
<path d="M445.83 343.496C445.964 343.496 446.173 344.058 446.298 344.803C446.424 345.549 446.416 346.169 446.298 346.195C446.181 346.22 445.964 345.625 445.839 344.879C445.713 344.133 445.697 343.513 445.83 343.496Z" fill="#455A64"/>
<path d="M444.919 338.099C445.045 338.099 445.254 338.661 445.387 339.407C445.521 340.153 445.504 340.773 445.387 340.798C445.27 340.823 445.045 340.228 444.919 339.482C444.794 338.736 444.752 338.116 444.919 338.099Z" fill="#455A64"/>
<path d="M443.991 332.686C444.125 332.686 444.334 333.248 444.459 333.993C444.585 334.739 444.585 335.359 444.459 335.384C444.334 335.41 444.117 334.823 443.991 334.077C443.866 333.331 443.866 332.728 443.991 332.686Z" fill="#455A64"/>
<path d="M443.08 327.306C443.214 327.306 443.423 327.868 443.548 328.613C443.673 329.359 443.673 329.979 443.548 330.005C443.423 330.03 443.205 329.443 443.08 328.697C442.955 327.951 442.93 327.331 443.08 327.306Z" fill="#455A64"/>
<path d="M442.127 321.918C442.252 321.918 442.47 322.479 442.595 323.225C442.72 323.971 442.729 324.591 442.595 324.616C442.461 324.641 442.252 324.055 442.118 323.309C441.985 322.563 441.993 321.943 442.127 321.918Z" fill="#455A64"/>
<path d="M441.174 316.529C441.308 316.529 441.517 317.091 441.65 317.828C441.784 318.566 441.784 319.203 441.65 319.219C441.517 319.236 441.308 318.658 441.174 317.921C441.04 317.183 441.04 316.546 441.174 316.529Z" fill="#455A64"/>
<path d="M440.221 311.141C440.346 311.141 440.563 311.702 440.697 312.44C440.831 313.177 440.831 313.806 440.697 313.831C440.563 313.856 440.354 313.27 440.221 312.524C440.087 311.778 440.087 311.158 440.221 311.141Z" fill="#455A64"/>
<path d="M439.251 305.753C439.385 305.753 439.602 306.314 439.736 307.052C439.87 307.789 439.87 308.418 439.736 308.443C439.602 308.468 439.393 307.881 439.259 307.144C439.126 306.406 439.126 305.778 439.251 305.753Z" fill="#455A64"/>
<path d="M438.281 300.364C438.407 300.364 438.624 300.926 438.758 301.672C438.892 302.417 438.9 303.038 438.758 303.054C438.616 303.071 438.415 302.501 438.281 301.755C438.147 301.01 438.147 300.39 438.281 300.364Z" fill="#455A64"/>
<path d="M437.295 294.976C437.428 294.976 437.646 295.529 437.78 296.275C437.913 297.021 437.922 297.641 437.78 297.666C437.637 297.691 437.437 297.105 437.303 296.359C437.169 295.613 437.169 294.976 437.295 294.976Z" fill="#455A64"/>
<path d="M436.308 289.596C436.442 289.596 436.659 290.158 436.793 290.903C436.927 291.649 436.935 292.261 436.793 292.286C436.651 292.311 436.45 291.733 436.308 290.987C436.166 290.241 436.175 289.621 436.308 289.596Z" fill="#455A64"/>
<path d="M435.313 284.216C435.439 284.216 435.656 284.778 435.798 285.515C435.94 286.252 435.94 286.881 435.798 286.906C435.656 286.931 435.456 286.353 435.313 285.607C435.171 284.861 435.18 284.241 435.313 284.216Z" fill="#455A64"/>
<path d="M434.302 278.836C434.436 278.836 434.653 279.398 434.795 280.135C434.937 280.872 434.937 281.501 434.795 281.526C434.653 281.551 434.452 280.973 434.31 280.227C434.168 279.481 434.177 278.861 434.302 278.836Z" fill="#455A64"/>
<path d="M433.29 273.456C433.416 273.456 433.641 274.018 433.775 274.755C433.909 275.492 433.926 276.121 433.775 276.146C433.625 276.171 433.424 275.593 433.282 274.847C433.14 274.101 433.156 273.481 433.29 273.456Z" fill="#455A64"/>
<path d="M432.262 268.085C432.396 268.085 432.613 268.638 432.755 269.383C432.897 270.129 432.906 270.749 432.755 270.775C432.605 270.8 432.404 270.213 432.262 269.476C432.12 268.738 432.137 268.11 432.262 268.085Z" fill="#455A64"/>
<path d="M431.234 262.705C431.359 262.705 431.585 263.266 431.727 264.004C431.869 264.741 431.877 265.37 431.727 265.395C431.576 265.42 431.376 264.842 431.225 264.096C431.075 263.35 431.1 262.73 431.234 262.705Z" fill="#455A64"/>
<path d="M430.189 257.333C430.323 257.333 430.548 257.886 430.69 258.632C430.833 259.378 430.841 259.998 430.69 260.023C430.54 260.048 430.339 259.47 430.189 258.724C430.038 257.978 430.063 257.358 430.189 257.333Z" fill="#455A64"/>
<path d="M429.144 251.962C429.278 251.962 429.495 252.515 429.645 253.26C429.796 254.006 429.796 254.626 429.645 254.652C429.495 254.677 429.286 254.09 429.144 253.353C429.002 252.615 429.01 251.987 429.144 251.962Z" fill="#455A64"/>
<path d="M428.082 246.59C428.216 246.59 428.442 247.151 428.584 247.889C428.726 248.626 428.743 249.255 428.584 249.28C428.425 249.305 428.224 248.727 428.082 247.981C427.94 247.235 427.957 246.623 428.082 246.59Z" fill="#455A64"/>
<path d="M427.02 241.227C427.154 241.227 427.38 241.78 427.522 242.517C427.664 243.255 427.681 243.883 427.522 243.908C427.363 243.933 427.163 243.355 427.02 242.618C426.878 241.88 426.887 241.252 427.02 241.227Z" fill="#455A64"/>
<path d="M425.95 235.855C426.076 235.855 426.301 236.408 426.452 237.154C426.602 237.9 426.619 238.512 426.452 238.545C426.285 238.579 426.092 237.992 425.95 237.246C425.808 236.5 425.816 235.889 425.95 235.855Z" fill="#455A64"/>
<path d="M424.863 230.492C424.997 230.492 425.223 231.045 425.373 231.791C425.524 232.537 425.541 233.148 425.373 233.174C425.206 233.199 425.014 232.62 424.863 231.883C424.713 231.146 424.738 230.517 424.863 230.492Z" fill="#455A64"/>
<path d="M424.044 226.453C424.169 226.453 424.345 226.704 424.42 227.081C424.495 227.458 424.42 227.785 424.32 227.81C424.22 227.835 424.019 227.559 423.944 227.182C423.868 226.805 423.91 226.478 424.044 226.453Z" fill="#455A64"/>
<path d="M341.439 130.728C341.439 130.728 324.493 143.298 329.735 162.354C334.977 181.41 346.965 183.43 352.808 185.818C358.652 188.207 372.672 192.254 379.393 201.036L401.882 183.765C397.147 175.064 394.17 165.513 393.12 155.659C391.365 139.259 384.359 131.65 378.808 128.139C373.257 124.627 358.084 116.985 341.439 130.728Z" fill="#FFCB14"/>
<path d="M393.522 189.095L393.196 188.793L392.251 187.871L388.656 184.301C385.572 181.176 381.074 176.667 375.899 170.734C374.62 169.243 373.282 167.675 371.945 165.991C370.607 164.307 369.211 162.572 367.932 160.628C366.549 158.64 365.561 156.404 365.023 154.041C364.461 151.493 364.854 148.826 366.126 146.55C366.847 145.377 367.89 144.438 369.129 143.843C370.368 143.249 371.752 143.025 373.115 143.198C373.825 143.292 374.508 143.527 375.125 143.889C375.743 144.252 376.282 144.735 376.71 145.309C377.551 146.504 377.987 147.937 377.956 149.399C377.926 150.861 377.554 152.297 376.869 153.589C376.183 154.885 375.34 156.093 374.361 157.184C372.382 159.408 370.211 161.452 367.874 163.293C365.555 165.158 363.08 166.818 360.475 168.254C359.178 168.945 357.794 169.461 356.362 169.787C354.939 170.108 353.466 170.136 352.031 169.871C350.607 169.626 349.273 169.004 348.169 168.069C347.088 167.128 346.36 165.845 346.104 164.432C345.81 163.052 346.043 161.611 346.756 160.393C347.13 159.811 347.62 159.312 348.196 158.929C348.771 158.545 349.42 158.285 350.1 158.164C351.399 157.906 352.743 157.995 353.996 158.424C355.198 158.854 356.309 159.505 357.273 160.343C359.028 161.98 360.642 163.763 362.097 165.673L370.264 175.603L382.052 189.975C383.431 191.651 384.51 192.983 385.246 193.896L386.082 194.927C386.266 195.162 386.349 195.288 386.349 195.288C386.349 195.288 386.24 195.179 386.048 194.952L385.212 193.955L381.96 190.084L370.039 175.771L361.762 165.924C360.317 164.035 358.714 162.271 356.972 160.653C356.045 159.851 354.98 159.227 353.829 158.809C352.639 158.405 351.364 158.324 350.134 158.575C349.513 158.69 348.923 158.932 348.4 159.285C347.876 159.638 347.431 160.095 347.091 160.628C346.431 161.758 346.219 163.095 346.497 164.374C346.739 165.692 347.42 166.888 348.428 167.768C349.482 168.642 350.748 169.22 352.098 169.444C354.918 169.861 357.796 169.302 360.258 167.86C362.839 166.437 365.292 164.791 367.589 162.941C369.907 161.119 372.059 159.095 374.018 156.89C374.982 155.83 375.81 154.653 376.484 153.388C377.144 152.154 377.502 150.781 377.529 149.382C377.559 148.013 377.155 146.669 376.376 145.544C375.979 145.009 375.478 144.561 374.903 144.227C374.328 143.893 373.691 143.68 373.032 143.6C371.745 143.439 370.44 143.653 369.271 144.216C368.103 144.779 367.121 145.668 366.444 146.776C365.219 148.969 364.838 151.536 365.374 153.991C365.894 156.305 366.857 158.496 368.208 160.444C369.462 162.371 370.858 164.114 372.179 165.798C373.5 167.483 374.837 169.058 376.108 170.55C381.241 176.5 385.705 181.042 388.757 184.201L392.285 187.829L393.196 188.776C393.43 188.977 393.522 189.095 393.522 189.095Z" fill="#100070"/>
<path d="M379.151 200.693L401.564 183.145L412.633 197.315L411.997 210.187L403.587 217.151L389.567 213.916L379.151 200.693Z" fill="#E0E0E0"/>
<path d="M411.998 210.187C410.952 210.03 409.884 210.09 408.863 210.366C407.841 210.641 406.888 211.125 406.062 211.788C405.269 212.473 404.627 213.317 404.178 214.265C403.729 215.213 403.482 216.244 403.454 217.293L411.998 210.187Z" fill="#455A64"/>
<path d="M411.145 196.603C410.788 196.722 410.421 196.812 410.05 196.871C409.059 197.084 408.08 197.347 407.115 197.659C400.68 199.691 395.21 204.017 391.741 209.818C391.081 210.925 390.604 211.855 390.295 212.508C390.157 212.857 389.987 213.191 389.785 213.506C389.865 213.136 389.985 212.776 390.144 212.433C390.523 211.481 390.967 210.557 391.474 209.668C394.851 203.684 400.434 199.265 407.023 197.357C408.008 197.074 409.011 196.856 410.025 196.704C410.393 196.63 410.769 196.597 411.145 196.603Z" fill="#263238"/>
<path d="M408.545 193.092C408.189 193.216 407.822 193.306 407.45 193.36C406.459 193.573 405.48 193.836 404.515 194.148C398.076 196.178 392.605 200.508 389.141 206.316C388.481 207.413 388.004 208.344 387.695 208.997C387.558 209.345 387.387 209.679 387.185 209.994C387.264 209.627 387.385 209.27 387.545 208.93C387.923 207.976 388.367 207.049 388.874 206.156C392.248 200.172 397.832 195.754 404.423 193.855C405.407 193.565 406.41 193.344 407.425 193.193C407.793 193.119 408.169 193.086 408.545 193.092Z" fill="#263238"/>
<path d="M405.87 189.908C405.514 190.031 405.147 190.121 404.774 190.176C403.784 190.389 402.804 190.652 401.84 190.964C395.401 192.994 389.93 197.324 386.466 203.131C385.806 204.229 385.329 205.159 385.02 205.813C384.882 206.161 384.712 206.495 384.51 206.81C384.589 206.443 384.71 206.086 384.869 205.746C385.246 204.791 385.69 203.864 386.198 202.972C389.576 196.988 395.158 192.569 401.748 190.662C402.733 190.378 403.736 190.16 404.749 190.008C405.118 189.935 405.494 189.901 405.87 189.908Z" fill="#263238"/>
<g opacity="0.2">
<path opacity="0.2" d="M359.722 180.614C359.672 181.201 358.836 181.729 357.273 181.997C355.062 182.284 352.816 182.107 350.677 181.477C347.444 180.593 344.426 179.056 341.807 176.96C338.483 174.375 335.827 171.026 334.065 167.196C332.303 163.366 331.486 159.168 331.683 154.955C331.8 151.597 332.596 148.298 334.024 145.259C334.932 143.219 336.256 141.392 337.911 139.896C339.132 138.873 340.068 138.58 340.545 138.924C341.573 139.678 340.478 142.636 339.892 147.111C339.536 149.665 339.474 152.252 339.709 154.82C340.176 160.912 342.804 166.634 347.116 170.952C348.914 172.794 350.917 174.425 353.085 175.812C356.855 178.259 359.814 179.332 359.722 180.614Z" fill="white"/>
</g>
<g opacity="0.2">
<path opacity="0.2" d="M373.04 183.145C373.438 183.807 373.634 184.572 373.607 185.344C373.579 186.117 373.328 186.865 372.884 187.497C372.44 188.129 371.823 188.619 371.106 188.906C370.39 189.192 369.606 189.264 368.85 189.113C368.093 188.961 367.397 188.592 366.846 188.051C366.295 187.511 365.912 186.821 365.745 186.066C365.578 185.311 365.633 184.524 365.904 183.8C366.175 183.076 366.65 182.447 367.271 181.989C368.191 181.38 369.313 181.161 370.393 181.377C371.473 181.594 372.424 182.229 373.04 183.145Z" fill="white"/>
</g>
<path d="M318.324 156.622C318.324 156.74 313.876 156.84 308.384 156.84C302.891 156.84 298.452 156.706 298.452 156.622C298.452 156.538 302.899 156.404 308.392 156.404C313.884 156.404 318.324 156.496 318.324 156.622Z" fill="#263238"/>
<path d="M318.315 146.7C314.942 146.149 311.622 145.308 308.392 144.186C310.09 144.386 311.768 144.731 313.408 145.217C315.082 145.572 316.724 146.068 318.315 146.7Z" fill="#263238"/>
<path d="M327.561 137.432C327.495 137.533 323.925 135.195 319.594 132.228C315.264 129.261 311.811 126.764 311.878 126.664C311.945 126.563 315.506 128.893 319.845 131.868C324.184 134.843 327.628 137.306 327.561 137.432Z" fill="#263238"/>
<path d="M338.195 125.013C336.968 124.084 335.829 123.043 334.793 121.904C333.65 120.869 332.611 119.724 331.691 118.485C332.919 119.414 334.058 120.455 335.094 121.594C336.237 122.628 337.276 123.774 338.195 125.013Z" fill="#263238"/>
<path d="M353.92 119.876C353.803 119.926 351.914 115.409 349.69 109.82C347.466 104.23 345.753 99.6131 345.861 99.5712C345.97 99.5293 347.868 104.038 350.092 109.627C352.315 115.217 354.029 119.834 353.92 119.876Z" fill="#263238"/>
<path d="M368.358 117.11C368.031 115.416 367.844 113.698 367.798 111.973C367.612 110.259 367.57 108.533 367.673 106.811C368 108.505 368.187 110.224 368.233 111.948C368.419 113.662 368.461 115.389 368.358 117.11Z" fill="#263238"/>
<path d="M383.356 102.32C383.473 102.32 382.219 106.778 380.555 112.192C378.892 117.605 377.454 121.979 377.337 121.946C377.22 121.912 378.482 117.488 380.137 112.066C381.793 106.644 383.247 102.286 383.356 102.32Z" fill="#263238"/>
<path d="M439.36 172.628L425.984 181.058L428.149 186.757L398.22 199.1L390.027 199.478L383.983 198.355C383.983 198.355 383.456 199.059 384.468 200.14C385.416 200.853 386.5 201.364 387.653 201.64L383.13 205.737L388.982 213.187L409.046 208.327C420.157 206.433 446.616 201.12 446.717 193.377C446.825 186.396 439.36 172.628 439.36 172.628Z" fill="#FFBE9D"/>
<path d="M331.992 158.927C332.301 158.013 333.054 157.36 333.873 157.795C334.037 157.986 334.149 158.216 334.197 158.463C334.245 158.71 334.229 158.965 334.149 159.203L331.524 167.759L334.032 161.709C334.341 160.796 335.169 160.242 335.704 160.737C335.846 160.936 335.939 161.166 335.974 161.408C336.009 161.65 335.985 161.897 335.905 162.128L333.656 169.276L335.495 164.843C335.88 163.829 336.331 163.553 336.849 163.779C337.368 164.005 337.376 164.751 337.251 165.145L335.687 170.391C336.03 171.396 337.184 174.581 336.072 176.349C336.013 176.441 336.18 176.734 336.18 176.835L336.707 177.438L333.305 180.656C331.541 179.089 329.919 172.502 329.409 170.005C329.078 168.591 329.142 167.112 329.593 165.731L331.992 158.927Z" fill="#FFBE9D"/>
<path d="M236.337 371.98V370.698L222.376 370.01L222.309 375.298L223.145 375.357C226.974 375.6 242.616 376.337 245.182 375.583C248.1 374.737 236.337 371.98 236.337 371.98Z" fill="#100070"/>
<g opacity="0.5">
<path opacity="0.5" d="M227.392 375.231C227.195 374.055 226.573 372.993 225.645 372.248C224.722 371.509 223.554 371.146 222.376 371.234V375.122L227.392 375.231Z" fill="white"/>
</g>
<path opacity="0.5" d="M242.08 373.53C242.08 373.53 246.202 374.762 245.684 375.441C245.165 376.12 229.323 375.969 222.343 375.298V374.988L240.81 375.315C240.81 375.315 241.27 373.555 242.08 373.53Z" fill="white"/>
<path d="M222.15 374.971C222.231 374.98 222.312 374.98 222.393 374.971L223.078 375.013L225.586 375.147C227.718 375.248 230.653 375.34 233.905 375.374C237.157 375.407 240.099 375.374 242.265 375.315L244.773 375.231H245.458C245.536 375.242 245.615 375.242 245.692 375.231H244.773H242.265C240.133 375.231 237.19 375.231 233.946 375.231C230.703 375.231 227.752 375.122 225.586 375.055L223.078 374.971H222.15Z" fill="#263238"/>
<path d="M240.835 375.524C240.946 375.108 241.106 374.705 241.312 374.326C241.558 373.979 241.838 373.656 242.148 373.362C241.722 373.513 241.364 373.81 241.136 374.2C240.874 374.588 240.766 375.061 240.835 375.524Z" fill="#263238"/>
<path d="M236.764 373.413C236.764 373.413 236.998 373.195 237.198 372.876C237.399 372.558 237.541 372.281 237.499 372.256C237.458 372.231 237.265 372.474 237.065 372.784C236.864 373.094 236.722 373.387 236.764 373.413Z" fill="#263238"/>
<path d="M235.643 372.801C235.643 372.801 235.894 372.692 236.137 372.483C236.379 372.273 236.546 372.064 236.513 372.03C236.479 371.997 236.262 372.139 236.02 372.357C235.777 372.575 235.61 372.767 235.643 372.801Z" fill="#263238"/>
<path d="M234.916 371.485C235.149 371.57 235.397 371.605 235.643 371.586C235.888 371.62 236.138 371.594 236.371 371.51C236.137 371.431 235.89 371.399 235.643 371.418C235.399 371.384 235.15 371.407 234.916 371.485Z" fill="#263238"/>
<path d="M234.707 370.555C234.952 370.726 235.245 370.811 235.543 370.798C235.825 370.851 236.117 370.816 236.379 370.698C236.103 370.647 235.823 370.625 235.543 370.631C235.267 370.584 234.987 370.558 234.707 370.555Z" fill="#263238"/>
<path d="M237.24 372.198C237.536 372.254 237.839 372.254 238.135 372.198C238.455 372.16 238.771 372.093 239.079 371.997C239.27 371.94 239.455 371.864 239.631 371.77C239.683 371.742 239.73 371.704 239.767 371.658C239.804 371.612 239.832 371.559 239.849 371.502C239.866 371.436 239.863 371.367 239.84 371.303C239.818 371.239 239.777 371.183 239.723 371.142C239.382 370.977 238.996 370.933 238.627 371.016C238.258 371.1 237.928 371.307 237.692 371.603C237.554 371.778 237.454 371.981 237.399 372.198C237.357 372.348 237.399 372.432 237.399 372.432C237.491 372.159 237.63 371.904 237.809 371.678C238.012 371.444 238.28 371.275 238.578 371.192C238.751 371.133 238.934 371.11 239.116 371.123C239.298 371.136 239.476 371.185 239.64 371.267C239.782 371.376 239.723 371.544 239.564 371.636C239.405 371.723 239.237 371.793 239.063 371.846C238.762 371.946 238.455 372.025 238.143 372.08C237.583 372.173 237.24 372.172 237.24 372.198Z" fill="#263238"/>
<path d="M237.474 372.248C237.58 372.06 237.618 371.841 237.583 371.628C237.556 371.394 237.473 371.169 237.34 370.974C237.272 370.837 237.167 370.722 237.037 370.641C236.907 370.559 236.758 370.515 236.605 370.513C236.514 370.532 236.434 370.585 236.383 370.662C236.331 370.739 236.312 370.833 236.329 370.924C236.351 371.063 236.399 371.197 236.471 371.318C236.587 371.516 236.728 371.699 236.889 371.862C237.026 372.025 237.202 372.152 237.399 372.231C237.399 372.231 237.223 372.072 236.981 371.787C236.826 371.621 236.694 371.435 236.588 371.234C236.463 371.05 236.387 370.706 236.588 370.664C236.789 370.622 237.04 370.874 237.173 371.05C237.297 371.225 237.383 371.425 237.424 371.636C237.454 371.839 237.47 372.043 237.474 372.248Z" fill="#263238"/>
<path d="M222.468 371.175C222.468 371.175 222.869 371.175 223.496 371.217C224.311 371.32 225.081 371.648 225.72 372.164C226.352 372.688 226.829 373.374 227.099 374.15C227.201 374.478 227.285 374.811 227.35 375.147C227.35 375.147 227.35 375.047 227.35 374.871C227.324 374.616 227.277 374.364 227.208 374.117C226.959 373.3 226.477 372.575 225.82 372.03C225.155 371.495 224.346 371.171 223.496 371.1C223.243 371.078 222.989 371.078 222.736 371.1C222.568 371.134 222.468 371.159 222.468 371.175Z" fill="#263238"/>
<path d="M229.131 373.907C230.47 374.161 231.842 374.176 233.186 373.949C233.186 373.899 232.274 373.949 231.154 373.949C230.034 373.949 229.139 373.857 229.131 373.907Z" fill="#263238"/>
<path d="M226.414 373.857C226.414 373.857 226.489 374.05 226.573 374.259C226.657 374.469 226.715 374.653 226.765 374.653C226.815 374.653 226.84 374.435 226.765 374.192C226.69 373.949 226.448 373.823 226.414 373.857Z" fill="#263238"/>
<path d="M225.402 372.575C225.402 372.575 225.453 372.751 225.595 372.902C225.737 373.052 225.879 373.136 225.912 373.103C225.946 373.069 225.862 372.927 225.72 372.784C225.578 372.642 225.436 372.541 225.402 372.575Z" fill="#263238"/>
<path d="M223.939 371.971C223.939 372.022 224.131 372.022 224.34 372.097C224.549 372.173 224.683 372.281 224.725 372.248C224.767 372.214 224.641 372.022 224.391 371.938C224.14 371.854 223.931 371.93 223.939 371.971Z" fill="#263238"/>
<path d="M222.903 371.686C222.903 371.737 222.961 371.804 223.078 371.854C223.195 371.904 223.296 371.896 223.312 371.854C223.329 371.812 223.254 371.737 223.137 371.695C223.02 371.653 222.92 371.645 222.903 371.686Z" fill="#263238"/>
<path d="M252.965 372.591L253.007 371.309L239.096 370.295L238.904 375.583L239.74 375.659C243.552 376.002 259.177 377.1 261.76 376.404C264.653 375.633 252.965 372.591 252.965 372.591Z" fill="#100070"/>
<g opacity="0.5">
<path opacity="0.5" d="M243.928 375.633C243.763 374.455 243.167 373.38 242.256 372.617C241.363 371.855 240.217 371.458 239.046 371.502L238.92 375.382L243.928 375.633Z" fill="white"/>
</g>
<path opacity="0.5" d="M258.667 374.284C258.667 374.284 262.755 375.608 262.22 376.279C261.685 376.949 245.859 376.421 238.896 375.583V375.273L257.354 376.036C257.354 376.036 257.864 374.293 258.667 374.284Z" fill="white"/>
<path d="M238.711 375.256H238.946L239.631 375.315L242.139 375.508C244.262 375.659 247.205 375.818 250.499 375.927C253.793 376.036 256.685 376.069 258.817 376.069H261.325H262.011H262.253H262.011H261.325H258.817C256.694 376.069 253.751 375.985 250.499 375.876C247.247 375.768 244.313 375.625 242.189 375.508L239.681 375.374H238.996L238.711 375.256Z" fill="#263238"/>
<path d="M257.371 376.262C257.5 375.849 257.671 375.45 257.881 375.072C258.144 374.728 258.444 374.413 258.776 374.133C258.342 374.277 257.976 374.575 257.747 374.971C257.469 375.341 257.336 375.8 257.371 376.262Z" fill="#263238"/>
<path d="M253.35 374.033C253.392 374.033 253.592 373.832 253.81 373.513C254.027 373.195 254.161 372.927 254.119 372.902C254.077 372.876 253.877 373.111 253.668 373.421C253.519 373.6 253.41 373.808 253.35 374.033Z" fill="#263238"/>
<path d="M252.246 373.404C252.246 373.404 252.505 373.295 252.748 373.094C252.99 372.893 253.166 372.692 253.141 372.65C253.116 372.608 252.882 372.759 252.639 372.96C252.397 373.161 252.221 373.371 252.246 373.404Z" fill="#263238"/>
<path d="M251.586 372.072C251.815 372.159 252.06 372.196 252.305 372.181C252.548 372.22 252.797 372.203 253.032 372.131C252.804 372.041 252.559 372.001 252.313 372.013C251.912 371.997 251.586 372.022 251.586 372.072Z" fill="#263238"/>
<path d="M251.368 371.133C251.611 371.31 251.905 371.401 252.204 371.393C252.485 371.459 252.779 371.43 253.04 371.309C252.764 371.26 252.485 371.232 252.204 371.226C251.929 371.173 251.649 371.142 251.368 371.133Z" fill="#263238"/>
<path d="M253.86 372.835C254.155 372.892 254.459 372.892 254.754 372.835C255.077 372.806 255.396 372.747 255.707 372.659C255.898 372.608 256.083 372.538 256.259 372.449C256.313 372.423 256.361 372.385 256.4 372.339C256.439 372.293 256.468 372.239 256.485 372.181C256.502 372.116 256.5 372.048 256.479 371.984C256.458 371.92 256.42 371.863 256.368 371.821C256.032 371.648 255.647 371.595 255.276 371.669C254.906 371.744 254.572 371.942 254.328 372.231C254.184 372.402 254.078 372.602 254.019 372.818C254 372.898 254 372.981 254.019 373.061C254.12 372.789 254.267 372.537 254.453 372.315C254.661 372.084 254.931 371.918 255.231 371.837C255.405 371.784 255.588 371.766 255.769 371.785C255.949 371.804 256.125 371.859 256.284 371.946C256.426 372.055 256.368 372.223 256.209 372.315C256.045 372.393 255.874 372.458 255.699 372.508C255.396 372.601 255.085 372.671 254.771 372.717C254.203 372.818 253.86 372.809 253.86 372.835Z" fill="#263238"/>
<path d="M254.094 372.91C254.205 372.724 254.247 372.504 254.211 372.29C254.196 372.054 254.122 371.826 253.994 371.628C253.922 371.493 253.818 371.379 253.691 371.295C253.564 371.212 253.418 371.162 253.266 371.15C253.175 371.167 253.094 371.218 253.039 371.292C252.985 371.367 252.961 371.46 252.974 371.552C252.994 371.695 253.042 371.831 253.116 371.955C253.224 372.156 253.359 372.343 253.517 372.508C253.652 372.673 253.824 372.805 254.019 372.893C254.019 372.893 253.843 372.726 253.609 372.432C253.472 372.263 253.352 372.08 253.249 371.888C253.132 371.695 253.066 371.351 253.291 371.318C253.517 371.284 253.734 371.536 253.86 371.712C253.981 371.89 254.061 372.093 254.094 372.307C254.109 372.507 254.109 372.709 254.094 372.91Z" fill="#263238"/>
<path d="M239.096 371.46C239.096 371.46 239.489 371.46 240.116 371.527C240.931 371.642 241.697 371.988 242.323 372.524C242.95 373.06 243.411 373.763 243.652 374.553C243.844 375.156 243.853 375.558 243.886 375.55C243.9 375.458 243.9 375.365 243.886 375.273C243.871 375.018 243.829 374.765 243.761 374.519C243.539 373.693 243.073 372.954 242.424 372.399C241.774 371.844 240.973 371.499 240.124 371.41C239.872 371.38 239.616 371.38 239.363 371.41C239.272 371.41 239.181 371.427 239.096 371.46Z" fill="#263238"/>
<path d="M245.717 374.351C246.375 374.524 247.052 374.609 247.732 374.603C248.411 374.654 249.094 374.617 249.764 374.494C249.764 374.444 248.852 374.494 247.74 374.435C246.629 374.376 245.717 374.301 245.717 374.351Z" fill="#263238"/>
<path d="M243 374.243C243 374.243 243.067 374.435 243.151 374.645C243.234 374.854 243.284 375.047 243.326 375.047C243.368 375.047 243.41 374.829 243.326 374.586C243.243 374.343 243.025 374.209 243 374.243Z" fill="#263238"/>
<path d="M242.014 372.91C242.014 372.91 242.064 373.094 242.206 373.245C242.348 373.396 242.482 373.488 242.515 373.455C242.549 373.421 242.465 373.279 242.331 373.128C242.198 372.977 242.047 372.91 242.014 372.91Z" fill="#263238"/>
<path d="M240.567 372.298C240.567 372.348 240.76 372.348 240.96 372.432C241.161 372.516 241.311 372.625 241.345 372.592C241.378 372.558 241.27 372.365 241.019 372.273C240.768 372.181 240.559 372.256 240.567 372.298Z" fill="#263238"/>
<path d="M239.539 371.988C239.539 372.03 239.598 372.106 239.706 372.156C239.815 372.206 239.932 372.206 239.949 372.156C239.965 372.106 239.89 372.039 239.773 371.988C239.656 371.938 239.556 371.946 239.539 371.988Z" fill="#263238"/>
<path d="M250.491 214.402C250.491 214.402 261.727 289.244 260.096 292.864C258.466 296.484 248.719 371.133 248.719 371.133L220.788 370.807C220.788 370.807 236.27 285.079 235.919 283.697C235.568 282.314 214.769 208.377 214.769 208.377L250.491 214.402Z" fill="#455A64"/>
<path d="M241.236 217.235L209.427 206.542L208.315 209.182C205.053 216.946 204.91 225.674 207.913 233.542L229.649 290.644C231.208 294.684 232.139 298.94 232.408 303.264L235.752 371.016L257.488 372.541C257.488 372.541 255.95 317.158 255.933 299.778C255.933 286.671 246.495 245.149 241.211 225.095" fill="#455A64"/>
<path d="M220.152 266.384C220.203 266.463 220.245 266.547 220.278 266.635C220.353 266.828 220.453 267.071 220.587 267.389C220.855 268.076 221.247 269.065 221.741 270.28C222.736 272.794 224.157 276.465 225.921 280.956C227.685 285.448 229.741 290.853 232.04 296.811C232.447 298.412 232.727 300.043 232.876 301.688C233.06 303.364 233.225 305.068 233.37 306.8C233.654 310.27 233.888 313.865 234.097 317.552C234.933 332.309 235.276 345.675 235.535 355.354C235.627 360.172 235.71 364.078 235.76 366.809C235.76 368.142 235.76 369.189 235.76 369.927C235.76 370.262 235.76 370.53 235.76 370.765C235.768 370.857 235.768 370.949 235.76 371.041C235.751 370.949 235.751 370.857 235.76 370.765V369.927C235.76 369.189 235.702 368.142 235.652 366.818C235.56 364.078 235.434 360.172 235.284 355.362C234.95 345.692 234.523 332.326 233.721 317.577C233.512 313.898 233.286 310.295 233.002 306.834C232.868 305.099 232.701 303.398 232.517 301.739C232.362 300.122 232.082 298.519 231.681 296.945C229.415 290.97 227.367 285.59 225.653 281.023C223.939 276.456 222.577 272.861 221.615 270.297L220.537 267.372C220.42 267.054 220.336 266.803 220.269 266.61C220.224 266.538 220.185 266.462 220.152 266.384Z" fill="#263238"/>
<path d="M256.184 315.926C256.177 315.842 256.177 315.758 256.184 315.675C256.184 315.482 256.184 315.239 256.184 314.937C256.184 314.258 256.184 313.311 256.142 312.105C256.142 309.591 256.142 306.071 256.075 301.697C256.075 299.493 256.075 297.088 256.075 294.507C256.123 293.182 256.059 291.856 255.883 290.543C255.632 289.185 255.381 287.794 255.114 286.353C254.052 280.638 252.89 274.361 251.669 267.766C249.27 254.584 247.088 242.626 245.508 233.978C244.747 229.671 244.129 226.185 243.694 223.729C243.485 222.539 243.335 221.609 243.217 220.939C243.167 220.637 243.134 220.402 243.109 220.21C243.098 220.126 243.098 220.042 243.109 219.958C243.137 220.037 243.16 220.119 243.176 220.201C243.217 220.386 243.268 220.629 243.326 220.922C243.46 221.584 243.644 222.514 243.878 223.696C244.346 226.143 245.015 229.629 245.834 233.919C247.448 242.593 249.671 254.517 252.121 267.691C253.333 274.286 254.487 280.562 255.532 286.286C255.791 287.711 256.042 289.11 256.293 290.476C256.459 291.81 256.515 293.155 256.46 294.498C256.46 297.079 256.46 299.484 256.46 301.688C256.46 306.063 256.401 309.608 256.385 312.096C256.385 313.303 256.385 314.25 256.385 314.929C256.385 315.23 256.385 315.474 256.385 315.666C256.332 315.763 256.264 315.851 256.184 315.926Z" fill="#263238"/>
<path d="M244.99 214.913C245.299 215.289 245.519 215.731 245.634 216.204C246.365 218.45 246.231 220.89 245.257 223.042C245.092 223.498 244.829 223.913 244.488 224.257C245.101 222.781 245.492 221.222 245.65 219.631C245.671 218.034 245.448 216.443 244.99 214.913Z" fill="#263238"/>
<path d="M227.317 213.137C227.365 213.377 227.365 213.625 227.317 213.866C227.259 214.529 227.098 215.18 226.84 215.793C226.455 216.715 225.886 217.548 225.168 218.24C224.289 219.098 223.203 219.713 222.017 220.025C220.823 220.312 219.575 220.28 218.397 219.933C217.443 219.662 216.555 219.197 215.788 218.567C215.271 218.148 214.822 217.651 214.459 217.092C214.314 216.895 214.204 216.673 214.133 216.439C214.675 217.133 215.292 217.766 215.972 218.324C216.798 218.982 217.764 219.441 218.795 219.665C219.826 219.888 220.895 219.871 221.918 219.614C222.942 219.358 223.892 218.868 224.697 218.183C225.501 217.499 226.137 216.638 226.556 215.668C226.908 214.857 227.163 214.007 227.317 213.137Z" fill="#263238"/>
<path d="M228.797 104.314C219.601 104.314 216.833 112.694 216.315 114.596C215.935 116.529 215.871 118.51 216.123 120.462C216.232 122.423 216.198 124.485 215.287 126.203C213.356 129.706 208.114 130.929 207.303 134.851C206.768 137.424 208.499 140.139 207.713 142.653C207.044 144.798 204.762 146.005 203.775 148.049C202.63 150.396 203.466 153.178 204.31 155.642C204.544 156.304 204.854 157.058 205.522 157.276C205.955 157.368 206.405 157.333 206.818 157.175L224.809 152.189" fill="#263238"/>
<path d="M296.061 186.757H299.597C302.816 186.438 304.613 186.388 305.525 185.533C306.728 184.385 305.073 183.254 305.073 183.254C305.073 183.254 307.406 182.416 307.18 181.025C307.038 180.053 305.926 179.944 305.926 179.944C305.926 179.944 307.982 179.106 308.392 178.268C308.944 177.094 307.498 176.474 307.498 176.474C310.298 174.74 310.047 173.022 309.395 172.854C308.743 172.687 306.561 173.692 306.561 173.692C304.714 174.22 299.673 175.762 301.545 172.98C303.418 170.198 303.802 167.34 303.368 166.502C303.25 166.317 303.077 166.174 302.874 166.092C302.671 166.011 302.447 165.996 302.235 166.048C302.023 166.101 301.832 166.219 301.69 166.387C301.549 166.554 301.463 166.761 301.445 166.98C301.15 168.08 300.706 169.135 300.124 170.114C299.687 170.911 299.122 171.63 298.452 172.242C297.658 172.946 296.964 173.508 296.354 173.977L293.202 177.027L296.061 186.757Z" fill="#FFBE9D"/>
<path d="M307.523 176.483C307.045 176.906 306.517 177.269 305.951 177.564C305.353 177.917 304.733 178.23 304.095 178.502C303.714 178.663 303.323 178.8 302.925 178.913C302.694 178.982 302.454 179.007 302.214 178.988C302.071 178.974 301.933 178.929 301.809 178.857C301.685 178.785 301.578 178.687 301.495 178.569C301.373 178.331 301.331 178.06 301.375 177.796C301.419 177.532 301.546 177.289 301.738 177.103C302.044 176.812 302.381 176.553 302.741 176.332L304.455 175.192C304.971 174.804 305.532 174.48 306.127 174.229C305.688 174.689 305.197 175.097 304.664 175.444L302.992 176.667C302.666 176.878 302.36 177.119 302.08 177.388C301.955 177.506 301.869 177.661 301.834 177.831C301.8 178 301.819 178.176 301.888 178.335C302.047 178.595 302.473 178.603 302.849 178.502C303.23 178.401 303.605 178.275 303.97 178.125C304.605 177.879 305.228 177.599 305.834 177.287C306.369 176.963 306.934 176.694 307.523 176.483Z" fill="#EB996E"/>
<path d="M306.386 179.776C306.019 180.073 305.611 180.313 305.173 180.488L303.794 181.159L302.958 181.544C302.628 181.712 302.253 181.771 301.888 181.712C301.78 181.685 301.679 181.637 301.59 181.571C301.501 181.505 301.426 181.422 301.37 181.326C301.272 181.135 301.245 180.915 301.294 180.706C301.4 180.382 301.591 180.093 301.846 179.868C302.213 179.499 302.617 179.168 303.05 178.879C303.427 178.58 303.867 178.371 304.337 178.268C303.987 178.573 303.615 178.853 303.225 179.106C302.838 179.415 302.474 179.754 302.139 180.12C301.945 180.299 301.798 180.523 301.712 180.773C301.695 180.825 301.688 180.879 301.694 180.933C301.699 180.987 301.717 181.039 301.745 181.085C301.773 181.132 301.81 181.171 301.855 181.201C301.9 181.232 301.951 181.251 302.005 181.259C302.481 181.368 303.125 180.949 303.627 180.765L305.031 180.187C305.458 179.979 305.915 179.84 306.386 179.776Z" fill="#EB996E"/>
<path d="M305.374 182.776C305.009 183.164 304.552 183.453 304.045 183.614C303.51 183.842 302.948 184 302.373 184.083C301.985 184.146 301.589 184.053 301.269 183.824C301.087 183.682 300.959 183.48 300.91 183.254C300.869 183.016 300.923 182.773 301.06 182.575C301.302 182.269 301.604 182.015 301.947 181.829C302.239 181.645 302.532 181.46 302.783 181.301C303.334 180.974 303.853 180.706 304.287 180.463C304.743 180.193 305.24 180.001 305.759 179.893C305.35 180.224 304.904 180.505 304.429 180.731C304.02 180.974 303.527 181.268 302.992 181.569L302.156 182.114C301.864 182.273 301.606 182.487 301.395 182.743C301.358 182.794 301.332 182.853 301.318 182.914C301.304 182.976 301.302 183.04 301.313 183.102C301.324 183.165 301.347 183.224 301.381 183.278C301.416 183.331 301.46 183.377 301.512 183.413C301.741 183.58 302.026 183.649 302.306 183.606C302.853 183.548 303.392 183.427 303.911 183.245C304.831 183.044 305.341 182.684 305.374 182.776Z" fill="#EB996E"/>
<path d="M301.855 186.505C301.855 186.505 301.763 186.572 301.596 186.505C301.478 186.468 301.371 186.403 301.283 186.315C301.196 186.228 301.131 186.121 301.094 186.002C301.043 185.826 301.033 185.64 301.067 185.46C301.1 185.28 301.175 185.109 301.286 184.963C301.528 184.635 301.847 184.37 302.214 184.192C303.035 183.636 303.95 183.233 304.914 183.002C304.14 183.616 303.299 184.139 302.406 184.561C302.086 184.712 301.801 184.929 301.57 185.198C301.488 185.298 301.427 185.413 301.389 185.536C301.352 185.66 301.34 185.79 301.353 185.919C301.487 186.396 301.871 186.455 301.855 186.505Z" fill="#EB996E"/>
<path d="M252.781 156.522C252.781 156.522 255.891 165.798 256.125 166.343C258.015 171.371 260.155 178.695 262.521 179.583C264.887 180.472 293.812 174.555 293.812 174.555L298.235 189.698C298.235 189.698 275.044 198.128 262.504 197.977C250.75 197.835 247.389 196.494 243.276 186.983C239.163 177.472 234.448 166.536 233.461 160.242" fill="#100070"/>
<path d="M298.226 189.69C298.004 189.803 297.775 189.903 297.541 189.991C297.098 190.184 296.421 190.444 295.551 190.771C293.812 191.408 291.271 192.262 288.086 193.193C284.901 194.123 281.088 195.145 276.841 196.218C272.253 197.504 267.548 198.329 262.797 198.681C261.539 198.741 260.279 198.707 259.026 198.581C257.803 198.472 256.596 198.219 255.432 197.827C253.247 197.032 251.242 195.807 249.538 194.223C246.729 191.499 244.39 188.328 242.616 184.838C241.052 181.905 239.982 179.433 239.272 177.723C238.912 176.885 238.636 176.198 238.436 175.745C238.235 175.293 238.176 175.042 238.185 175.042C238.318 175.253 238.43 175.478 238.519 175.712L239.397 177.656C240.166 179.332 241.278 181.787 242.866 184.695C244.663 188.122 247 191.235 249.789 193.913C251.457 195.453 253.415 196.644 255.549 197.416C256.684 197.793 257.86 198.037 259.051 198.145C260.285 198.264 261.525 198.295 262.763 198.237C267.482 197.89 272.155 197.082 276.716 195.824C280.963 194.776 284.783 193.796 287.969 192.899C291.154 192.003 293.712 191.223 295.493 190.612L297.507 189.916C297.739 189.816 297.98 189.74 298.226 189.69Z" fill="#263238"/>
<path d="M265.104 188.064V188.114C265.372 187.796 265.656 187.444 265.94 187.05C266.393 186.46 266.741 185.797 266.968 185.089C267.291 184.222 267.491 183.314 267.562 182.391C267.529 182.208 267.557 182.019 267.643 181.854C267.728 181.689 267.866 181.557 268.035 181.479C268.203 181.401 268.393 181.382 268.574 181.424C268.755 181.466 268.916 181.568 269.033 181.712C269.501 182.324 269.618 184.67 268.54 187.192C267.462 189.715 271.274 187.712 272.72 187.008C274.166 186.304 278.572 184.335 279.124 184.595C279.96 184.98 279.676 185.927 278.288 186.597C276.9 187.268 272.762 189.572 273.163 190.293C273.564 191.014 280.687 187.335 280.687 187.335C280.687 187.335 282.075 186.304 282.568 187.125C283.471 188.609 275.638 191.961 274.885 192.262C274.359 192.472 274.777 193.268 275.328 193.017C275.88 192.765 282.317 189.187 283.245 190.687C283.956 191.835 276.833 193.503 275.905 194.986C274.977 196.469 281.18 193.176 281.816 194.299C282.058 194.718 282.175 195.07 278.338 196.444C275.056 197.464 271.721 198.303 268.348 198.958L265.104 188.064Z" fill="#FFBE9D"/>
<path d="M218.581 144.312L242.164 146.323C242.164 146.323 251.118 144.848 256.092 166.946L253.409 175.276L251.427 188.064L250.491 214.402L206.768 211.176C207.763 205.193 212.42 197.332 213.983 192.279C212.394 188.299 203.165 172.066 203.173 163.712C203.173 145.854 218.581 144.312 218.581 144.312Z" fill="#100070"/>
<g opacity="0.1">
<path opacity="0.1" d="M240.007 162.572L248.117 163.837C248.974 164.016 249.851 164.078 250.725 164.022C251.609 163.958 252.433 163.553 253.024 162.89C253.977 161.717 253.684 159.966 253.074 158.575C252.464 157.184 251.569 155.876 251.402 154.385L240.007 162.572Z" fill="black"/>
</g>
<path d="M264.285 185.332L268.707 200.466C268.707 200.466 245.542 208.913 232.993 208.754C221.239 208.612 217.878 207.271 213.765 197.76C209.652 188.248 204.937 177.312 203.951 171.019C203.951 171.019 197.313 142.041 222.627 144.63L223.312 167.256C223.312 167.256 226.113 176.541 226.314 177.078C228.203 182.106 230.652 189.43 233.002 190.318C235.351 191.206 264.285 185.332 264.285 185.332Z" fill="#100070"/>
<path d="M208.708 185.818C208.77 185.926 208.826 186.038 208.875 186.153C208.983 186.388 209.134 186.723 209.318 187.151C209.711 187.989 210.279 189.321 211.057 190.98C211.834 192.639 212.829 194.642 214.15 196.846C215.605 199.416 217.384 201.787 219.442 203.902C220.64 205.128 222.002 206.183 223.488 207.036C223.874 207.268 224.277 207.473 224.692 207.648C225.101 207.856 225.526 208.029 225.963 208.168C226.855 208.479 227.776 208.698 228.713 208.821C232.542 209.374 236.722 208.821 241.011 207.983C245.299 207.145 249.78 205.905 254.387 204.69C259.201 203.452 263.945 201.955 268.599 200.207L268.473 200.466C267.821 198.271 267.136 195.933 266.442 193.561L264.026 185.332L264.268 185.483C258.583 186.472 253.166 187.829 247.949 188.894C243.025 189.999 237.99 190.533 232.943 190.486H232.818L232.768 190.368C230.611 184.737 228.93 179.474 227.434 174.815C225.937 170.156 224.642 166.1 223.572 162.748C222.502 159.396 221.582 156.798 220.947 155.03L220.211 153.002C220.136 152.784 220.077 152.617 220.035 152.483C219.994 152.348 219.977 152.307 219.977 152.307C220.013 152.358 220.042 152.414 220.06 152.474L220.269 152.985C220.445 153.438 220.721 154.1 221.055 154.988C221.724 156.748 222.652 159.346 223.781 162.673C224.909 165.999 226.213 170.064 227.727 174.723C229.24 179.382 230.945 184.628 233.119 190.234L232.952 190.109C237.982 190.16 243.003 189.637 247.916 188.55C253.116 187.477 258.541 186.111 264.243 185.114H264.435L264.494 185.299C265.28 187.997 266.085 190.743 266.91 193.536C267.604 195.899 268.289 198.237 268.941 200.433L268.991 200.626L268.808 200.701C264.135 202.454 259.372 203.951 254.537 205.184C249.872 206.399 245.408 207.589 241.086 208.461C236.764 209.332 232.559 209.818 228.654 209.249C227.698 209.111 226.758 208.881 225.846 208.561C224.977 208.245 224.137 207.852 223.338 207.388C221.831 206.516 220.452 205.439 219.241 204.187C217.18 202.042 215.404 199.64 213.958 197.039C212.653 194.768 211.684 192.748 210.923 191.081C210.162 189.413 209.619 188.106 209.251 187.218L208.841 186.204L208.708 185.818Z" fill="#263238"/>
<path opacity="0.3" d="M252.129 168.438C252.129 168.438 255.198 171.882 255.248 174.849C255.331 179.541 254.153 181.955 255.616 187.083L251.436 188.097C251.436 188.097 250.8 186.849 251.344 184.167C251.887 181.486 252.949 178.226 253.417 175.31C253.831 172.938 253.374 170.497 252.129 168.438Z" fill="black"/>
<path d="M251.427 188.064C251.309 187.73 251.225 187.384 251.176 187.033C251.053 186.076 251.053 185.107 251.176 184.15C251.375 182.734 251.674 181.334 252.071 179.96C252.568 178.313 252.95 176.633 253.216 174.932C253.48 173.239 253.299 171.506 252.689 169.904C252.14 168.621 251.383 167.438 250.449 166.402C248.869 164.6 247.74 163.603 247.799 163.544C248.104 163.726 248.384 163.946 248.635 164.198C249.357 164.824 250.043 165.49 250.691 166.192C251.68 167.237 252.485 168.441 253.074 169.754C253.724 171.406 253.926 173.202 253.659 174.958C253.389 176.681 252.989 178.381 252.464 180.044C252.053 181.388 251.729 182.757 251.494 184.142C251.343 185.075 251.293 186.022 251.343 186.966C251.417 187.327 251.445 187.696 251.427 188.064Z" fill="#263238"/>
<g opacity="0.2">
<path opacity="0.2" d="M252.004 187.712L239.054 188.005C238.029 188.101 236.996 187.981 236.02 187.653C234.657 187.075 233.779 185.743 233.018 184.477C230.745 180.718 228.66 176.854 226.765 172.888C226.765 172.888 230.193 183.782 232.333 188.533C232.952 189.908 233.863 190.31 235.359 190.092C240.993 190.105 246.599 189.304 252.004 187.712Z" fill="black"/>
</g>
<path opacity="0.2" d="M212.896 195.464C212.896 195.464 217.276 212.165 228.512 211.83C239.748 211.494 250.399 206.668 250.399 206.668L249.897 206.148C249.897 206.148 230.803 210.271 225.494 207.673C215.42 202.796 212.896 195.464 212.896 195.464Z" fill="black"/>
<g opacity="0.1">
<path opacity="0.1" d="M215.32 144.848C212.093 146.91 210.89 151.259 211.592 155.038C212.294 158.818 214.526 162.111 216.959 165.094C217.231 165.489 217.603 165.805 218.037 166.008C218.681 166.157 219.357 166.071 219.943 165.765L235.259 159.899C234.822 159.697 234.432 159.406 234.116 159.044C233.799 158.681 233.562 158.256 233.42 157.795" fill="black"/>
</g>
<path d="M212.143 178.176C212.205 177.016 212.407 175.868 212.745 174.756C212.951 173.615 213.296 172.503 213.774 171.446C213.717 172.607 213.515 173.756 213.172 174.865C212.966 176.007 212.621 177.119 212.143 178.176Z" fill="#263238"/>
<path d="M219.634 186.949C218.718 186.483 217.873 185.888 217.126 185.181C216.294 184.589 215.553 183.877 214.927 183.069C216.664 184.134 218.24 185.44 219.609 186.949H219.634Z" fill="#263238"/>
<path d="M225.645 200.198C225.497 199.046 225.497 197.88 225.645 196.729C225.651 195.572 225.8 194.421 226.088 193.301C226.236 194.45 226.236 195.613 226.088 196.762C226.081 197.921 225.933 199.075 225.645 200.198Z" fill="#263238"/>
<path d="M238.093 199.302C236.807 200.879 235.304 202.264 233.629 203.416C234.909 201.834 236.413 200.447 238.093 199.302Z" fill="#263238"/>
<path d="M248.861 196.838C247.841 196.341 246.889 195.715 246.027 194.977C245.07 194.351 244.201 193.598 243.443 192.74C244.464 193.24 245.419 193.865 246.286 194.6C247.235 195.235 248.1 195.986 248.861 196.838Z" fill="#263238"/>
<path d="M260.163 193.829C259.623 195.016 258.956 196.14 258.174 197.181C257.508 198.301 256.717 199.342 255.816 200.282C256.356 199.096 257.023 197.972 257.806 196.93C258.474 195.812 259.265 194.772 260.163 193.829Z" fill="#263238"/>
<path d="M241.395 181.938C240.462 181.264 239.619 180.473 238.887 179.583C238.054 178.791 237.321 177.899 236.705 176.927C237.639 177.599 238.483 178.391 239.213 179.282C240.047 180.073 240.78 180.965 241.395 181.938Z" fill="#263238"/>
<path d="M250.14 171.078C249.288 172.594 248.192 173.959 246.896 175.117C247.747 173.6 248.843 172.235 250.14 171.078Z" fill="#263238"/>
<path d="M237.926 170.86C237.834 170.952 236.68 169.854 235.075 168.765C233.47 167.675 232.024 166.997 232.074 166.879C234.396 167.551 236.445 168.945 237.926 170.86Z" fill="#263238"/>
<path d="M209.36 161.776C208.769 161.084 208.294 160.3 207.955 159.455C207.48 158.677 207.133 157.828 206.927 156.941C207.991 158.414 208.812 160.05 209.36 161.784V161.776Z" fill="#263238"/>
<path d="M261.133 183.43C260.306 183.22 259.518 182.878 258.801 182.416C258.011 182.071 257.284 181.595 256.652 181.008C258.27 181.549 259.783 182.365 261.125 183.421L261.133 183.43Z" fill="#263238"/>
<path d="M284.817 184.695C284.019 184.174 283.305 183.532 282.702 182.793C281.992 182.155 281.383 181.411 280.896 180.589C281.694 181.111 282.408 181.752 283.011 182.491C283.721 183.13 284.33 183.873 284.817 184.695Z" fill="#263238"/>
<path d="M293.16 183.966C292.517 185.29 291.741 186.545 290.845 187.712C290.068 188.951 289.172 190.11 288.169 191.173C288.815 189.861 289.591 188.617 290.485 187.461C291.26 186.21 292.156 185.04 293.16 183.966Z" fill="#263238"/>
<path d="M214.793 207.824C213.614 206.299 212.672 204.604 212.001 202.796C213.181 204.32 214.122 206.016 214.793 207.824Z" fill="#263238"/>
<path d="M248.484 210.841C246.483 211.373 244.418 211.624 242.348 211.587C244.349 211.054 246.414 210.803 248.484 210.841Z" fill="#263238"/>
<path d="M245.675 111.881C245.322 113.56 245.347 115.296 245.75 116.963C246.152 118.631 246.92 120.187 247.999 121.518C249.379 123.194 251.343 124.669 251.586 126.831C251.92 129.63 249.17 132.186 249.738 134.935C250.206 137.189 252.606 138.371 254.144 140.063C255.219 141.297 255.886 142.835 256.054 144.465C256.222 146.094 255.882 147.736 255.08 149.164C253.793 151.36 251.327 153.262 251.669 155.784C251.907 156.738 252.249 157.663 252.689 158.541C252.902 158.985 252.988 159.479 252.938 159.968C252.888 160.458 252.703 160.924 252.405 161.315C251.884 161.737 251.243 161.983 250.574 162.019C245.749 162.74 240.844 162.74 236.02 162.019L238.619 111.865L245.675 111.881Z" fill="#263238"/>
<path d="M222.376 145.2L221.039 114.488L233.202 105.27L244.263 110.683C244.263 110.683 244.63 124.602 244.263 130.644C243.895 136.686 237.825 137.348 237.825 137.348C237.825 137.348 237.968 140.885 238.101 144.597C238.142 145.663 237.967 146.727 237.585 147.723C237.204 148.719 236.625 149.628 235.883 150.393C235.142 151.159 234.253 151.765 233.27 152.176C232.288 152.587 231.232 152.794 230.168 152.784C228.146 152.764 226.21 151.966 224.759 150.554C223.309 149.142 222.455 147.225 222.376 145.2Z" fill="#FFBE9D"/>
<path d="M243.084 120.814C243.084 120.967 243.039 121.116 242.954 121.243C242.87 121.37 242.75 121.468 242.609 121.527C242.469 121.585 242.314 121.6 242.165 121.571C242.016 121.541 241.879 121.467 241.771 121.36C241.663 121.252 241.59 121.114 241.56 120.965C241.531 120.815 241.546 120.66 241.604 120.519C241.662 120.379 241.761 120.258 241.887 120.173C242.014 120.089 242.163 120.043 242.315 120.043C242.519 120.043 242.714 120.125 242.859 120.269C243.003 120.414 243.084 120.61 243.084 120.814Z" fill="#263238"/>
<path d="M243.828 119.976C243.728 120.069 243.159 119.591 242.331 119.541C241.504 119.49 240.877 119.901 240.793 119.784C240.71 119.666 240.852 119.557 241.128 119.365C241.495 119.128 241.928 119.013 242.365 119.038C242.802 119.064 243.218 119.232 243.552 119.516C243.803 119.733 243.878 119.926 243.828 119.976Z" fill="#263238"/>
<path d="M234.155 120.814C234.157 120.969 234.112 121.121 234.028 121.251C233.943 121.38 233.822 121.481 233.679 121.541C233.537 121.601 233.38 121.617 233.228 121.588C233.077 121.558 232.937 121.483 232.828 121.374C232.719 121.264 232.645 121.125 232.615 120.973C232.585 120.821 232.601 120.663 232.661 120.521C232.721 120.378 232.822 120.256 232.951 120.171C233.08 120.086 233.232 120.042 233.386 120.044C233.59 120.044 233.786 120.125 233.93 120.269C234.074 120.414 234.155 120.61 234.155 120.814Z" fill="#263238"/>
<path d="M234.632 119.976C234.531 120.069 233.963 119.591 233.135 119.541C232.308 119.49 231.681 119.901 231.597 119.784C231.513 119.666 231.656 119.557 231.931 119.365C232.299 119.128 232.732 119.013 233.169 119.038C233.605 119.066 234.021 119.233 234.356 119.516C234.598 119.733 234.682 119.926 234.632 119.976Z" fill="#263238"/>
<path d="M237.85 137.306C234.989 137.183 232.222 136.244 229.875 134.599C229.875 134.599 231.873 139.125 237.909 138.873L237.85 137.306Z" fill="#EB996E"/>
<path d="M237.625 126.999C238.07 126.884 238.528 126.827 238.987 126.831C239.196 126.831 239.405 126.831 239.447 126.63C239.475 126.4 239.434 126.167 239.33 125.96C239.146 125.415 238.962 124.837 238.762 124.233C238.369 123.01 238.026 121.895 237.8 121.083C237.642 120.65 237.538 120.2 237.491 119.742C237.719 120.141 237.898 120.566 238.026 121.007C238.31 121.803 238.686 122.909 239.079 124.133C239.272 124.736 239.447 125.314 239.623 125.867C239.743 126.13 239.772 126.425 239.706 126.705C239.674 126.779 239.626 126.844 239.565 126.896C239.504 126.949 239.433 126.986 239.355 127.007C239.236 127.022 239.115 127.022 238.996 127.007C238.54 127.057 238.08 127.054 237.625 126.999Z" fill="#263238"/>
<path d="M237.015 127.703C236.699 127.794 236.411 127.964 236.179 128.197C236.06 128.31 235.977 128.455 235.94 128.614C235.903 128.774 235.913 128.94 235.97 129.094C236.067 129.277 236.224 129.42 236.414 129.501C236.604 129.582 236.816 129.595 237.015 129.538C237.176 129.507 237.329 129.44 237.46 129.341C237.592 129.242 237.7 129.115 237.775 128.968C237.851 128.822 237.882 128.656 237.864 128.492C237.846 128.328 237.78 128.173 237.675 128.046C237.566 127.924 237.418 127.844 237.256 127.819C237.094 127.795 236.929 127.828 236.789 127.912" fill="#EB996E"/>
<path d="M238.084 128.918C238.084 129.035 237.407 129.228 236.672 128.801C235.936 128.373 235.727 127.678 235.836 127.644C235.944 127.611 236.27 128.088 236.881 128.423C237.491 128.759 238.076 128.801 238.084 128.918Z" fill="#263238"/>
<path d="M234.222 104.289C231.993 103.863 229.695 103.978 227.519 104.625C225.344 105.271 223.354 106.431 221.717 108.006C220.08 109.581 218.844 111.526 218.11 113.679C217.377 115.832 217.168 118.129 217.502 120.379C217.837 122.549 218.664 124.761 218.096 126.882C217.343 129.706 214.317 131.482 213.59 134.323C212.695 137.809 215.613 141.211 215.546 144.823C215.546 146.759 214.61 148.569 214.15 150.463C213.594 152.923 213.774 155.494 214.666 157.853C215.558 160.212 217.123 162.255 219.166 163.728C219.447 163.956 219.786 164.101 220.144 164.147C220.49 164.141 220.829 164.049 221.131 163.879L234.415 157.804C231.907 154.075 229.34 149.96 229.716 145.494C229.917 143.181 230.912 140.851 230.301 138.614C229.817 136.845 228.437 135.513 227.225 134.139C226.013 132.764 224.876 131.097 225.068 129.278C225.285 127.208 227.192 125.541 227.166 123.412C227.166 121.946 226.163 120.689 225.67 119.306C225.321 118.123 225.23 116.878 225.403 115.656C225.576 114.434 226.009 113.264 226.673 112.225C228.011 110.158 229.641 108.298 231.514 106.703" fill="#263238"/>
<path d="M226.029 110.784C225.988 112.082 225.26 113.298 224.867 114.521C224.474 115.745 224.533 117.32 225.703 118.099C226.009 118.293 226.346 118.435 226.698 118.518C228.214 118.793 229.771 118.736 231.263 118.351L231.463 114.923C231.681 115.997 232.274 116.956 233.135 117.63C233.592 117.98 234.13 118.209 234.698 118.295C235.267 118.381 235.848 118.323 236.387 118.124C236.639 118.033 236.87 117.892 237.067 117.71C237.263 117.528 237.421 117.308 237.531 117.063C237.641 116.819 237.701 116.554 237.707 116.286C237.713 116.018 237.665 115.751 237.566 115.502C237.942 116.8 239.338 117.689 240.785 118.016C242.251 118.228 243.742 118.197 245.199 117.923C244.48 116.784 244.956 115.359 245.383 114.11C245.809 112.862 246.127 111.345 245.19 110.348C244.854 110.05 244.502 109.771 244.137 109.51C243.453 108.785 242.871 107.97 242.407 107.088C240.442 104.247 236.195 103.024 232.659 104.013C230.965 104.492 229.427 105.409 228.199 106.673C226.97 107.936 226.095 109.501 225.661 111.211" fill="#263238"/>
<path d="M169.942 79.8782C169.787 79.9057 169.631 79.9225 169.474 79.9285L168.103 80.029C167.361 80.077 166.623 80.1778 165.896 80.3307C165.425 80.3923 164.959 80.4819 164.5 80.5989L162.936 81.0263C160.274 81.8493 157.762 83.0971 155.496 84.7218C152.52 86.8998 150.031 89.6771 148.189 92.8756C147.114 94.7256 146.255 96.694 145.631 98.7416C144.978 100.969 144.601 103.268 144.511 105.588C144.458 106.809 144.481 108.032 144.578 109.25C144.578 109.862 144.745 110.482 144.82 111.102C144.894 111.733 145.014 112.358 145.18 112.971C145.748 115.542 146.698 118.014 147.997 120.303C150.761 125.272 155.071 129.198 160.269 131.482C163.005 132.663 165.937 133.322 168.914 133.426C171.983 133.592 175.054 133.148 177.951 132.119L178.837 131.801L178.954 131.75L179.054 131.809L191.762 138.27L191.385 138.597C190.031 134.373 188.718 130.292 187.448 126.354V126.203L187.556 126.094C190.647 122.982 192.942 119.167 194.244 114.974C195.407 111.144 195.734 107.109 195.206 103.141C194.368 96.5301 191.141 90.4566 186.135 86.071C182.841 83.2105 178.853 81.271 174.573 80.448L172.6 80.1128L171.137 80.0123L170.243 79.9452C170.141 79.944 170.04 79.9299 169.942 79.9033H170.243H171.146L172.609 79.9704L174.607 80.2637C176.439 80.6107 178.229 81.15 179.949 81.8726C182.234 82.8992 184.368 84.2326 186.294 85.8364C188.632 87.8492 190.611 90.2466 192.146 92.9259C193.951 96.0505 195.132 99.4973 195.624 103.074C196.179 107.109 195.857 111.217 194.679 115.116C193.372 119.388 191.051 123.278 187.916 126.454L187.974 126.186L191.929 138.421L192.129 139.041L191.553 138.748L178.845 132.287H179.063L178.16 132.622C175.21 133.663 172.086 134.115 168.964 133.954C165.917 133.843 162.918 133.164 160.119 131.952C156.27 130.22 152.878 127.611 150.214 124.331C147.55 121.051 145.689 117.192 144.778 113.063C144.613 112.438 144.493 111.803 144.419 111.161C144.344 110.524 144.21 109.904 144.176 109.267C144.085 108.029 144.068 106.786 144.126 105.546C144.23 103.191 144.623 100.858 145.297 98.5991C145.938 96.5257 146.819 94.5346 147.922 92.6661C149.809 89.435 152.353 86.6372 155.387 84.4537C157.679 82.8329 160.221 81.6013 162.911 80.8084L164.491 80.3978C164.957 80.2884 165.429 80.2073 165.904 80.1547C166.637 80.011 167.381 79.9269 168.128 79.9033L169.507 79.8615L169.942 79.8782Z" fill="#263238"/>
<path d="M175.685 103.451H173.83L169.767 97.7779V94.0572C169.767 94.0572 166.882 93.8812 167.259 98.7584C167.635 103.636 167.259 102.387 167.259 102.387C167.259 102.387 161.147 102.387 160.637 102.948C160.27 103.334 160.102 109.418 160.035 112.719C159.995 113.513 160.219 114.298 160.674 114.949C161.128 115.6 161.786 116.081 162.543 116.314C162.759 116.373 162.981 116.404 163.204 116.407C164.725 116.407 172.517 115.158 172.517 115.158H175.727L175.685 103.451Z" fill="#100070"/>
<path d="M181.019 102.429L179.874 115.2H176.68V102.689L181.019 102.429Z" fill="#100070"/>
</svg>
