<svg width="318" height="139" viewBox="0 0 318 139" fill="none" xmlns="http://www.w3.org/2000/svg">
<path d="M55 124.459C55 124.459 54.0927 124.167 52.4141 123.802C50.0344 123.304 47.5822 123.215 45.1705 123.54C41.5954 123.988 38.2219 125.393 35.4317 127.594C32.0002 130.28 29.5819 133.981 28.551 138.125V138.242L28.3393 139L28.052 138.285C26.3771 134.354 23.5028 131.007 19.8103 128.688C16.7927 126.801 13.3266 125.687 9.7388 125.45C7.32413 125.282 4.89724 125.499 2.55568 126.092C0.892223 126.515 0.0151224 126.88 0 126.836C0.197939 126.722 0.40533 126.625 0.620022 126.544C1.23088 126.294 1.8571 126.079 2.49518 125.902C5.43211 125.073 8.51866 124.858 11.5488 125.27C14.579 125.683 17.4831 126.714 20.0673 128.294C23.8657 130.646 26.8222 134.068 28.5359 138.096H28.0369V137.979C29.0986 133.728 31.5931 129.937 35.1292 127.201C37.5342 125.352 40.3495 124.063 43.3554 123.436C46.3614 122.808 49.477 122.859 52.4595 123.583C53.1091 123.731 53.746 123.926 54.3648 124.167C54.5861 124.243 54.7989 124.341 55 124.459Z" fill="#263238"/>
<path d="M317.999 124.906C317.999 124.906 317.473 124.764 316.529 124.557C315.193 124.284 313.822 124.246 312.474 124.446C310.483 124.72 308.606 125.561 307.058 126.874C305.15 128.467 303.807 130.658 303.235 133.111V133.191L303.034 134L302.724 133.222C301.765 130.891 300.148 128.907 298.082 127.525C296.403 126.406 294.476 125.74 292.48 125.589C291.125 125.489 289.763 125.602 288.441 125.922C287.512 126.16 287.017 126.367 287.001 126.335C286.986 126.303 287.11 126.24 287.342 126.128C287.684 125.969 288.035 125.831 288.394 125.716C290.052 125.194 291.801 125.049 293.519 125.29C295.238 125.531 296.884 126.153 298.345 127.112C300.512 128.52 302.199 130.583 303.173 133.016H302.647C303.246 130.445 304.668 128.154 306.686 126.509C308.32 125.169 310.288 124.328 312.366 124.081C313.754 123.909 315.162 124.011 316.513 124.383C316.877 124.48 317.233 124.602 317.581 124.748C317.89 124.795 318.014 124.891 317.999 124.906Z" fill="#263238"/>
<path d="M151 0.0396589C151 0.0396589 150.513 0.593742 149.642 1.53718C148.415 2.9396 147.305 4.4422 146.321 6.02974C143.077 11.3334 141.373 17.4584 141.406 23.7005V24H140.889C140.395 20.6408 139.321 17.3963 137.716 14.4159C136.415 11.9866 134.785 9.75373 132.875 7.78184C131.586 6.44456 130.178 5.23137 128.668 4.15784C127.605 3.40908 126.985 3.0347 127 2.98978C127.17 3.04192 127.33 3.12294 127.473 3.22938C127.926 3.45583 128.365 3.7109 128.786 3.99311C130.358 5.01038 131.817 6.19516 133.14 7.52727C137.571 11.9406 140.48 17.686 141.436 23.9102H140.919V23.6855C140.879 17.3519 142.658 11.1437 146.041 5.82009C147.054 4.21065 148.221 2.70593 149.524 1.32753C149.967 0.833346 150.365 0.488914 150.616 0.249311C150.867 0.00970761 151 -0.0501923 151 0.0396589Z" fill="#263238"/>
</svg>
