<svg width="830" height="772" viewBox="0 0 830 772" fill="none" xmlns="http://www.w3.org/2000/svg">
<path d="M193 736.691C244.125 739.326 192.911 728.8 240.5 744.5C259.043 750.602 380.921 772.158 400.852 771.585C430.789 770.754 456.587 750.414 486.524 751.13C513.081 751.76 535.422 768.806 561.771 771.585C592.859 774.851 621.539 757.891 652.444 753.508C696.052 747.319 784.566 758.452 826 744.5C842.5 738.942 791.736 700.398 776.41 697.308C761.084 694.217 715.272 716.718 700.5 705C684.5 701 672.14 714.344 663.549 711.594C654.958 708.843 641.051 714.917 641.051 714.917L470.809 717.324L342.892 706.064L228.803 713.17L193 736.691Z" fill="#FFCB14"/>
<path d="M314.836 193.84L301.015 645.742L473.167 643.64L458.075 193.84H314.836Z" fill="#100070"/>
<path d="M469.85 174.134H301.015V193.84H469.85V174.134Z" fill="#455A64"/>
<path d="M334.351 174.134V35.4322L380.374 15.1091H391.459L438.311 36.7217V174.134H334.351Z" fill="#100070"/>
<path d="M438.339 36.7218H334.351V111.483H438.339V36.7218Z" fill="#EBEBEB"/>
<path d="M380.375 15.1092V0H390.602V15.1092H382.088" fill="#100070"/>
<path opacity="0.4" d="M461.889 307.061H311.381L308.202 409.91H465.317L461.889 307.061Z" fill="white"/>
<path d="M451.386 174.134C451.298 173.587 451.252 173.034 451.247 172.48C451.247 171.247 451.247 169.677 451.109 167.687C451.109 163.342 451.109 157.343 450.888 149.914L451.386 150.447C435.215 150.447 411.692 150.671 385.543 150.671C359.394 150.671 335.789 150.671 319.674 150.447L320.199 149.914C320.199 157.343 320.033 163.342 319.978 167.687C319.978 169.649 319.978 171.247 319.839 172.48C319.856 173.036 319.8 173.592 319.674 174.134C319.632 173.584 319.632 173.031 319.674 172.48C319.674 171.247 319.674 169.677 319.535 167.687C319.535 163.342 319.397 157.343 319.314 149.914V149.41H319.812C336.01 149.242 359.533 149.158 385.682 149.158C411.831 149.158 435.436 149.158 451.524 149.41H452.049V149.914C452.049 157.343 451.883 163.342 451.828 167.687C451.828 169.649 451.828 171.247 451.69 172.48C451.661 173.043 451.559 173.599 451.386 174.134Z" fill="#263238"/>
<path d="M413.876 174.134C413.132 170.145 412.882 166.077 413.13 162.024C412.883 157.972 413.134 153.904 413.876 149.914C414.618 153.904 414.869 157.972 414.622 162.024C414.87 166.077 414.62 170.145 413.876 174.134Z" fill="#263238"/>
<path d="M365.227 174.134C364.483 170.145 364.232 166.077 364.48 162.024C364.234 157.972 364.485 153.904 365.227 149.914C365.987 153.902 366.247 157.971 366.001 162.024C366.249 166.078 365.989 170.147 365.227 174.134Z" fill="#263238"/>
<path d="M364.315 111.483C363.9 111.483 363.568 94.6637 363.568 74.0883C363.568 53.5129 363.9 36.7218 364.315 36.7218C364.729 36.7218 365.089 53.5409 365.089 74.0883C365.089 94.6357 364.729 111.483 364.315 111.483Z" fill="#263238"/>
<path d="M405.086 111.483C404.671 111.483 404.34 94.6637 404.34 74.0883C404.34 53.5129 404.671 36.7218 405.086 36.7218C405.501 36.7218 405.86 53.5409 405.86 74.0883C405.86 94.6357 405.584 111.483 405.086 111.483Z" fill="#263238"/>
<path d="M438.256 74.2845C436.916 74.5368 435.555 74.6495 434.192 74.6209L423.136 74.9572C413.71 75.1535 400.718 75.3497 386.372 75.4057C372.026 75.4618 359.007 75.4057 349.582 75.2095C344.497 75.3719 339.408 75.0623 334.379 74.2845L386.345 73.864H423.108H434.165C435.539 73.866 436.909 74.0068 438.256 74.2845Z" fill="#263238"/>
<path opacity="0.4" d="M304.913 517.552H468.938L472.393 620.85L301.762 620.149L304.913 517.552Z" fill="white"/>
<path d="M312.929 269.526C315.925 269.122 318.946 268.954 321.968 269.022C327.496 269.022 335.54 268.798 344.496 268.77L343.749 269.526V256.66L344.496 257.389C335.54 257.389 327.634 257.389 321.968 257.136C318.948 257.185 315.928 257.026 312.929 256.66C315.925 256.256 318.946 256.087 321.968 256.155C327.496 256.155 335.54 255.931 344.496 255.903H345.242V270.311H344.496C335.54 270.311 327.634 270.311 321.968 270.059C318.946 270.118 315.924 269.94 312.929 269.526Z" fill="#263238"/>
<path d="M397.733 130.516C397.553 129.433 397.469 128.335 397.485 127.237C397.485 125.022 397.264 121.63 397.208 117.65V117.117H397.761C405.75 116.977 416.944 116.893 429.328 116.893L430.102 117.678V120.986C430.102 122.079 430.102 123.172 430.102 124.265C430.102 126.424 430.102 128.498 430.102 130.516V131.245H429.383C420.068 131.245 412.079 131.049 406.496 130.909L400 130.713C399.267 130.724 398.536 130.658 397.816 130.516C398.65 130.394 399.49 130.329 400.332 130.32L406.966 130.124C412.494 129.984 420.4 129.816 429.383 129.788L428.664 130.516C428.664 128.498 428.664 126.424 428.664 124.265V117.622C428.498 117.454 430.102 119.051 429.411 118.379C417.027 118.379 405.832 118.379 397.844 118.154L398.369 117.622C398.369 121.462 398.176 124.63 398.093 126.872C398.01 129.115 397.789 130.516 397.733 130.516Z" fill="#263238"/>
<path d="M379.186 143.579C379.025 142.494 378.951 141.397 378.964 140.3C378.964 138.113 378.743 134.693 378.66 130.713V130.18H379.186C387.202 130.18 398.396 129.956 410.78 129.956L411.526 130.713V137.272C411.526 139.431 411.526 141.533 411.526 143.523V144.28H410.807C401.492 144.28 393.476 144.056 387.893 143.916L381.425 143.719C380.682 143.767 379.936 143.7 379.213 143.523C380.056 143.406 380.906 143.35 381.756 143.355L388.39 143.159C393.919 143.019 401.796 142.85 410.807 142.794L410.089 143.523C410.089 141.533 410.089 139.431 410.089 137.272V130.713L410.835 131.469C398.452 131.469 387.257 131.469 379.241 131.245L379.794 130.713C379.794 134.581 379.6 137.749 379.49 139.991C379.483 141.194 379.382 142.393 379.186 143.579Z" fill="#263238"/>
<path d="M305.576 488.427C308.581 488.024 311.612 487.855 314.643 487.923C320.309 487.782 328.187 487.698 337.17 487.67L336.424 488.427C336.424 486.353 336.424 484.194 336.424 481.98C336.424 479.765 336.424 477.607 336.424 475.532L337.17 476.289C328.187 476.289 320.309 476.289 314.643 476.037C311.612 476.104 308.581 475.936 305.576 475.532C308.583 475.15 311.613 474.99 314.643 475.056C320.309 475.056 328.187 474.804 337.17 474.776H337.917V489.324H337.17C328.187 489.324 320.309 489.184 314.643 489.072C311.609 489.093 308.578 488.877 305.576 488.427Z" fill="#263238"/>
<path d="M365.227 283.654C365.085 282.361 365.011 281.06 365.006 279.758C365.006 277.291 364.784 273.815 364.729 269.526L365.227 270.059C355.801 270.199 342.063 270.283 326.805 270.283L327.551 269.526V276.731C327.551 279.085 327.551 281.384 327.551 283.598L326.833 282.87C337.889 282.87 347.26 283.066 354.115 283.206L362.214 283.43C363.23 283.422 364.245 283.478 365.254 283.598C364.342 283.763 363.416 283.828 362.49 283.795L354.557 283.991C347.757 283.991 337.972 284.299 326.916 284.355H326.197V269.526C326.059 269.695 327.634 268.069 326.971 268.77C342.229 268.77 355.967 268.77 365.393 269.022H365.918V269.526C365.918 274.068 365.724 277.656 365.641 280.066C365.603 281.272 365.464 282.472 365.227 283.654Z" fill="#263238"/>
<path d="M404.699 448.145C404.559 446.842 404.485 445.532 404.478 444.221C404.478 441.782 404.257 438.306 404.202 434.017L404.699 434.522C395.246 434.69 381.508 434.774 366.277 434.774L367.024 434.017V441.194C367.024 443.576 367.024 445.875 367.024 448.089L366.277 447.361C377.334 447.361 386.732 447.557 393.587 447.697L401.686 447.893C402.703 447.901 403.718 447.967 404.727 448.089C403.812 448.231 402.888 448.297 401.963 448.286L394.03 448.482C387.23 448.622 377.445 448.79 366.222 448.818H365.503V448.089C365.503 445.875 365.503 443.576 365.503 441.194V434.017L366.388 433.261C381.619 433.261 395.356 433.261 404.81 433.513H405.335V434.017C405.335 438.531 405.142 442.119 405.031 444.529C405.024 445.742 404.913 446.952 404.699 448.145Z" fill="#263238"/>
<path d="M354.585 502.555C354.444 501.252 354.371 499.942 354.364 498.631C354.364 496.192 354.143 492.716 354.087 488.427L354.585 488.932C345.159 489.1 331.421 489.184 316.163 489.184L316.91 488.427V495.603C316.91 497.986 316.91 500.285 316.91 502.499L316.191 501.77C327.247 501.77 336.618 501.967 343.473 502.107L351.572 502.303C352.588 502.311 353.604 502.376 354.613 502.499C353.698 502.643 352.774 502.708 351.849 502.695L343.915 502.892C337.116 503.032 327.33 503.2 316.274 503.228H315.555V488.483C315.389 488.652 316.992 487.026 316.329 487.726C331.587 487.726 345.325 487.727 354.751 487.951H355.276V488.455C355.276 492.968 355.083 496.584 355 498.967C354.958 500.173 354.819 501.373 354.585 502.555Z" fill="#263238"/>
<path d="M447.35 575.578C447.188 574.276 447.105 572.966 447.101 571.654C447.101 569.215 446.908 565.739 446.825 561.45L447.35 561.955C437.897 562.123 424.159 562.207 408.901 562.207L409.647 561.45V568.654C409.647 571.009 409.647 573.308 409.647 575.522L408.928 574.793C419.985 574.793 429.383 574.989 436.238 575.13L444.31 575.326C445.335 575.333 446.359 575.399 447.378 575.522C446.463 575.661 445.539 575.727 444.614 575.718L436.708 575.915C429.881 575.915 420.123 576.223 408.901 576.251H408.182V575.522C408.182 573.308 408.182 571.009 408.182 568.654V561.45L408.928 560.693C424.186 560.693 437.924 560.693 447.378 560.918H447.875V561.422C447.875 565.935 447.682 569.551 447.599 571.962C447.604 573.172 447.52 574.381 447.35 575.578Z" fill="#263238"/>
<path d="M471.564 590.239C471.422 588.945 471.349 587.644 471.343 586.342C471.343 583.876 471.122 580.4 471.066 576.111L471.564 576.643C462.11 576.784 448.373 576.896 433.142 576.896C432.451 577.569 434.054 575.943 433.889 576.111V583.315C433.889 585.67 433.889 587.968 433.889 590.183L433.17 589.454C444.226 589.454 453.597 589.65 460.452 589.79L468.662 590.239C469.678 590.231 470.693 590.287 471.702 590.407C470.792 590.588 469.864 590.654 468.938 590.603L461.005 590.8C454.205 590.968 444.42 591.108 433.225 591.164H432.479V590.239C432.479 588.024 432.479 585.726 432.479 583.371V576.223L433.253 575.466C448.483 575.466 462.221 575.466 471.674 575.718H472.2V576.223C472.2 580.764 472.006 584.352 471.923 586.763C471.897 587.93 471.777 589.092 471.564 590.239Z" fill="#263238"/>
<path d="M442.595 351.099C442.434 349.807 442.351 348.505 442.347 347.203C442.347 344.736 442.126 341.26 442.07 336.971L442.568 337.504C433.142 337.504 419.404 337.756 404.146 337.756L404.892 336.971V344.175C404.892 346.53 404.892 348.829 404.892 351.043L404.173 350.314C415.23 350.314 424.628 350.51 431.456 350.651L439.555 350.875C440.58 350.869 441.605 350.925 442.623 351.043C441.713 351.22 440.785 351.286 439.859 351.239L431.953 351.436C425.126 351.604 415.368 351.744 404.146 351.8H403.427V351.043C403.427 348.829 403.427 346.53 403.427 344.175V336.971C403.261 337.139 404.837 335.513 404.173 336.214C419.432 336.214 433.17 336.214 442.595 336.467H443.121V336.971C443.121 341.512 442.927 345.1 442.844 347.511C442.848 348.712 442.764 349.911 442.595 351.099Z" fill="#263238"/>
<path opacity="0.4" d="M314.836 193.84L413.876 216.49L421.256 643.64H473.167L458.075 193.84H314.836Z" fill="black"/>
<path d="M244.765 703.151C244.765 703.6 211.595 703.936 170.824 703.936C130.052 703.936 96.8547 703.6 96.8547 703.151C96.8547 702.703 130.025 702.394 170.824 702.394C211.623 702.394 244.765 702.731 244.765 703.151Z" fill="#263238"/>
<path d="M550.674 643.303C549.132 643.792 547.55 644.139 545.947 644.34L532.983 646.583C521.927 648.377 506.862 650.788 490.111 653.367L483.588 654.348L484.03 654.124L466.284 673.325L466.146 673.494H465.897L445.166 676.493L439.389 677.222C438.701 677.321 438.003 677.321 437.316 677.222C437.96 676.985 438.627 676.816 439.306 676.717L445.056 675.624L465.704 672.12L465.344 672.316L482.897 652.946L483.063 652.75H483.339L489.863 651.741C506.613 649.162 521.789 646.919 532.79 645.378L545.837 643.64C547.439 643.405 549.056 643.292 550.674 643.303Z" fill="#263238"/>
<path d="M155.483 668.224C159.479 666.311 163.975 665.751 168.308 666.626C170.669 666.812 172.899 667.799 174.638 669.429C175.457 670.291 175.915 671.441 175.915 672.639C175.915 673.836 175.457 674.986 174.638 675.848C173.47 676.649 172.06 677.006 170.658 676.857C167.258 676.857 163.499 676.213 160.79 678.287C159.242 679.464 158.219 681.427 156.367 682.015C155.443 682.23 154.476 682.135 153.609 681.746C152.742 681.357 152.022 680.694 151.557 679.857C150.671 678.129 150.473 676.122 151.005 674.25C151.249 672.966 151.779 671.755 152.555 670.711C153.331 669.666 154.332 668.815 155.483 668.224Z" fill="#100070"/>
<path d="M146.526 650.704C147.086 651.376 147.78 651.919 148.563 652.299C149.345 652.679 150.198 652.887 151.065 652.908C151.932 652.929 152.794 652.764 153.593 652.422C154.393 652.081 155.112 651.572 155.703 650.928C157.669 648.614 159.012 645.823 159.601 642.827C161.48 636.183 163.388 629.175 161.978 622.392C161.656 620.315 160.765 618.373 159.407 616.785C158.726 616.012 157.858 615.433 156.888 615.103C155.919 614.774 154.882 614.706 153.879 614.907C152.758 615.375 151.746 616.075 150.908 616.963C150.07 617.852 149.425 618.908 149.014 620.065C145.938 626.597 144.324 633.738 144.287 640.977C144.056 644.355 144.837 647.726 146.526 650.648" fill="#100070"/>
<path d="M139.975 655.665C141.206 654.043 142.026 652.139 142.363 650.121C142.7 648.103 142.545 646.031 141.91 644.088C140.597 640.218 138.265 636.787 135.166 634.165C131.631 630.973 127.52 628.507 123.059 626.905C121.302 626.199 119.417 625.884 117.53 625.98C116.599 626.036 115.696 626.321 114.896 626.809C114.097 627.297 113.427 627.975 112.942 628.783C112.52 630.104 112.415 631.507 112.637 632.877C112.858 634.248 113.398 635.544 114.214 636.66C116.549 640.955 119.211 645.06 122.174 648.938C124.351 652.228 127.371 654.854 130.909 656.534C134.558 657.964 138.317 657.796 140.252 655.245" fill="#100070"/>
<path d="M146.361 702.843C146.508 702.333 146.582 701.804 146.582 701.273L146.997 696.984C147.21 694.875 147.533 692.779 147.964 690.705C148.503 688.17 149.252 685.685 150.203 683.277C151.131 680.877 152.387 678.622 153.935 676.577C155.21 674.921 156.822 673.563 158.661 672.597C159.915 671.969 161.258 671.543 162.642 671.335C163.164 671.316 163.683 671.241 164.19 671.111C163.667 671.044 163.137 671.044 162.614 671.111C161.179 671.221 159.775 671.592 158.468 672.204C156.529 673.136 154.826 674.508 153.492 676.213C151.863 678.287 150.558 680.604 149.623 683.08C148.655 685.521 147.905 688.044 147.384 690.621C146.98 692.723 146.703 694.848 146.554 696.984C146.416 698.806 146.361 700.264 146.333 701.301C146.296 701.815 146.305 702.331 146.361 702.843Z" fill="#263238"/>
<path d="M146.665 699.563C146.696 699.321 146.696 699.076 146.665 698.834V696.76C146.665 694.966 146.665 692.331 146.665 689.107C146.803 682.66 147.356 675.68 148.406 665.897C149.429 656.674 150.784 645.938 152.193 638.958C152.497 637.36 152.801 635.931 153.105 634.697C153.41 633.464 153.603 632.343 153.824 631.474C154.045 630.605 154.183 629.988 154.322 629.455C154.348 629.213 154.348 628.969 154.322 628.727C154.212 628.949 154.128 629.185 154.073 629.427C153.907 629.932 153.714 630.605 153.492 631.418C153.271 632.231 152.94 633.352 152.636 634.613C152.331 635.875 151.972 637.276 151.64 638.846C149.874 647.102 148.555 655.449 147.688 663.851C146.61 673.662 146.14 682.632 146.084 689.079C146.084 692.303 146.084 694.938 146.084 696.732C146.084 697.601 146.084 698.274 146.084 698.834C146.231 699.112 146.428 699.359 146.665 699.563Z" fill="#263238"/>
<path d="M146.721 682.296C146.763 681.567 146.763 680.837 146.721 680.109C146.721 678.707 146.444 676.689 146.057 674.222C145.58 671.322 144.952 668.45 144.177 665.617C143.249 662.149 142.067 658.757 140.639 655.469C138.183 649.394 134.651 643.827 130.218 639.042C129.458 638.214 128.646 637.437 127.786 636.716C127.399 636.407 127.067 636.071 126.736 635.819L125.768 635.174C125.214 634.716 124.611 634.321 123.971 633.996C126.058 635.646 128.034 637.435 129.887 639.351C134.174 644.173 137.607 649.712 140.031 655.721C141.438 658.992 142.629 662.354 143.597 665.785C144.41 668.551 145.083 671.358 145.615 674.194C146.057 676.633 146.306 678.651 146.472 680.025C146.486 680.788 146.569 681.548 146.721 682.296Z" fill="#263238"/>
<path d="M330.813 333.635H319.673V351.099H330.813V333.635Z" fill="#263238"/>
<path d="M330.813 355.892H319.673V373.356H330.813V355.892Z" fill="#263238"/>
<path d="M541.884 742.256C562.183 747.944 583.794 746.37 603.083 737.799C607.633 735.728 612.386 734.149 617.263 733.089C641.753 728.184 666.05 742.788 691.038 743.041C706.02 743.181 720.504 738.191 735.265 735.584C722.024 726.137 705.716 714.616 705.716 714.616L701.459 704.188L664.723 692.976L621.188 664.243L593.85 660.319L563.942 644.172L473.167 628.306H297.588L248.441 659.478L142.491 665.532L97.1034 701.834L30.3489 719.886L0.910645 742.48C8.35197 743.19 15.83 743.424 23.3003 743.181C61.1969 741.695 97.6838 724.54 135.58 726.362C176.462 728.268 215.437 752.151 255.987 746.545C288.273 742.088 317.462 719.214 349.969 721.849C380.208 724.287 406.053 748.619 436.376 748.675C454.26 748.675 470.901 740.265 488.121 735.36C508.051 729.613 521.402 736.341 541.884 742.256Z" fill="#8BA0B2"/>
</svg>
