<svg width="1475" height="772" viewBox="0 0 1475 772" fill="none" xmlns="http://www.w3.org/2000/svg">
<path opacity="0.9" d="M979.351 36.7218L22.8542 233.303C17.5752 234.388 17.512 241.907 22.772 243.081L124.514 265.78C125.165 265.925 125.838 265.939 126.494 265.82L979.351 111.483V36.7218Z" fill="url(#paint0_linear)" fill-opacity="0.14"/>
<path d="M838 736.691C889.125 739.326 837.911 728.8 885.5 744.5C904.043 750.602 1025.92 772.158 1045.85 771.585C1075.79 770.754 1101.59 750.414 1131.52 751.13C1158.08 751.76 1180.42 768.806 1206.77 771.585C1237.86 774.851 1266.54 757.891 1297.44 753.508C1341.05 747.319 1429.57 758.452 1471 744.5C1487.5 738.942 1436.74 700.398 1421.41 697.308C1406.08 694.217 1360.27 716.718 1345.5 705C1329.5 701 1317.14 714.344 1308.55 711.594C1299.96 708.843 1286.05 714.917 1286.05 714.917L1115.81 717.324L987.892 706.064L873.803 713.17L838 736.691Z" fill="#FFCB14"/>
<path d="M959.836 193.84L946.015 645.742L1118.17 643.64L1103.07 193.84H959.836Z" fill="#100070"/>
<path d="M1114.85 174.134H946.015V193.84H1114.85V174.134Z" fill="#455A64"/>
<path d="M979.351 174.134V35.4322L1025.37 15.1091H1036.46L1083.31 36.7217V174.134H979.351Z" fill="#100070"/>
<path d="M1083.34 36.7218H979.351V111.483H1083.34V36.7218Z" fill="#EBEBEB"/>
<path d="M1025.37 15.1092V0H1035.6V15.1092H1027.09" fill="#100070"/>
<path opacity="0.4" d="M1106.89 307.061H956.381L953.202 409.91H1110.32L1106.89 307.061Z" fill="white"/>
<path d="M1096.39 174.134C1096.3 173.587 1096.25 173.034 1096.25 172.48C1096.25 171.247 1096.25 169.677 1096.11 167.687C1096.11 163.342 1096.11 157.343 1095.89 149.914L1096.39 150.447C1080.22 150.447 1056.69 150.671 1030.54 150.671C1004.39 150.671 980.789 150.671 964.674 150.447L965.199 149.914C965.199 157.343 965.033 163.342 964.978 167.687C964.978 169.649 964.978 171.247 964.839 172.48C964.856 173.036 964.8 173.592 964.674 174.134C964.632 173.584 964.632 173.031 964.674 172.48C964.674 171.247 964.674 169.677 964.535 167.687C964.535 163.342 964.397 157.343 964.314 149.914V149.41H964.812C981.01 149.242 1004.53 149.158 1030.68 149.158C1056.83 149.158 1080.44 149.158 1096.52 149.41H1097.05V149.914C1097.05 157.343 1096.88 163.342 1096.83 167.687C1096.83 169.649 1096.83 171.247 1096.69 172.48C1096.66 173.043 1096.56 173.599 1096.39 174.134Z" fill="#263238"/>
<path d="M1058.88 174.134C1058.13 170.145 1057.88 166.077 1058.13 162.024C1057.88 157.972 1058.13 153.904 1058.88 149.914C1059.62 153.904 1059.87 157.972 1059.62 162.024C1059.87 166.077 1059.62 170.145 1058.88 174.134Z" fill="#263238"/>
<path d="M1010.23 174.134C1009.48 170.145 1009.23 166.077 1009.48 162.024C1009.23 157.972 1009.48 153.904 1010.23 149.914C1010.99 153.902 1011.25 157.971 1011 162.024C1011.25 166.078 1010.99 170.147 1010.23 174.134Z" fill="#263238"/>
<path d="M1009.31 111.483C1008.9 111.483 1008.57 94.6637 1008.57 74.0883C1008.57 53.5129 1008.9 36.7218 1009.31 36.7218C1009.73 36.7218 1010.09 53.5409 1010.09 74.0883C1010.09 94.6357 1009.73 111.483 1009.31 111.483Z" fill="#263238"/>
<path d="M1050.09 111.483C1049.67 111.483 1049.34 94.6637 1049.34 74.0883C1049.34 53.5129 1049.67 36.7218 1050.09 36.7218C1050.5 36.7218 1050.86 53.5409 1050.86 74.0883C1050.86 94.6357 1050.58 111.483 1050.09 111.483Z" fill="#263238"/>
<path d="M1083.26 74.2845C1081.92 74.5368 1080.55 74.6495 1079.19 74.6209L1068.14 74.9572C1058.71 75.1535 1045.72 75.3497 1031.37 75.4057C1017.03 75.4618 1004.01 75.4057 994.582 75.2095C989.497 75.3719 984.408 75.0623 979.379 74.2845L1031.34 73.864H1068.11H1079.16C1080.54 73.866 1081.91 74.0068 1083.26 74.2845Z" fill="#263238"/>
<path opacity="0.4" d="M949.913 517.552H1113.94L1117.39 620.85L946.762 620.149L949.913 517.552Z" fill="white"/>
<path d="M957.929 269.526C960.925 269.122 963.946 268.954 966.968 269.022C972.496 269.022 980.54 268.798 989.496 268.77L988.749 269.526V256.66L989.496 257.389C980.54 257.389 972.634 257.389 966.968 257.136C963.948 257.185 960.928 257.026 957.929 256.66C960.925 256.256 963.946 256.087 966.968 256.155C972.496 256.155 980.54 255.931 989.496 255.903H990.242V270.311H989.496C980.54 270.311 972.634 270.311 966.968 270.059C963.946 270.118 960.924 269.94 957.929 269.526Z" fill="#263238"/>
<path d="M1042.73 130.516C1042.55 129.433 1042.47 128.335 1042.48 127.237C1042.48 125.022 1042.26 121.63 1042.21 117.65V117.117H1042.76C1050.75 116.977 1061.94 116.893 1074.33 116.893L1075.1 117.678V120.986C1075.1 122.079 1075.1 123.172 1075.1 124.265C1075.1 126.424 1075.1 128.498 1075.1 130.516V131.245H1074.38C1065.07 131.245 1057.08 131.049 1051.5 130.909L1045 130.713C1044.27 130.724 1043.54 130.658 1042.82 130.516C1043.65 130.394 1044.49 130.329 1045.33 130.32L1051.97 130.124C1057.49 129.984 1065.4 129.816 1074.38 129.788L1073.66 130.516C1073.66 128.498 1073.66 126.424 1073.66 124.265V117.622C1073.5 117.454 1075.1 119.051 1074.41 118.379C1062.03 118.379 1050.83 118.379 1042.84 118.154L1043.37 117.622C1043.37 121.462 1043.18 124.63 1043.09 126.872C1043.01 129.115 1042.79 130.516 1042.73 130.516Z" fill="#263238"/>
<path d="M1024.19 143.579C1024.02 142.494 1023.95 141.397 1023.96 140.3C1023.96 138.113 1023.74 134.693 1023.66 130.713V130.18H1024.19C1032.2 130.18 1043.4 129.956 1055.78 129.956L1056.53 130.713V137.272C1056.53 139.431 1056.53 141.533 1056.53 143.523V144.28H1055.81C1046.49 144.28 1038.48 144.056 1032.89 143.916L1026.42 143.719C1025.68 143.767 1024.94 143.7 1024.21 143.523C1025.06 143.406 1025.91 143.35 1026.76 143.355L1033.39 143.159C1038.92 143.019 1046.8 142.85 1055.81 142.794L1055.09 143.523C1055.09 141.533 1055.09 139.431 1055.09 137.272V130.713L1055.84 131.469C1043.45 131.469 1032.26 131.469 1024.24 131.245L1024.79 130.713C1024.79 134.581 1024.6 137.749 1024.49 139.991C1024.48 141.194 1024.38 142.393 1024.19 143.579Z" fill="#263238"/>
<path d="M950.576 488.427C953.581 488.024 956.612 487.855 959.643 487.923C965.309 487.782 973.187 487.698 982.17 487.67L981.424 488.427C981.424 486.353 981.424 484.194 981.424 481.98C981.424 479.765 981.424 477.607 981.424 475.532L982.17 476.289C973.187 476.289 965.309 476.289 959.643 476.037C956.612 476.104 953.581 475.936 950.576 475.532C953.583 475.15 956.613 474.99 959.643 475.056C965.309 475.056 973.187 474.804 982.17 474.776H982.917V489.324H982.17C973.187 489.324 965.309 489.184 959.643 489.072C956.609 489.093 953.578 488.877 950.576 488.427Z" fill="#263238"/>
<path d="M1010.23 283.654C1010.09 282.361 1010.01 281.06 1010.01 279.758C1010.01 277.291 1009.78 273.815 1009.73 269.526L1010.23 270.059C1000.8 270.199 987.063 270.283 971.805 270.283L972.551 269.526V276.731C972.551 279.085 972.551 281.384 972.551 283.598L971.833 282.87C982.889 282.87 992.26 283.066 999.115 283.206L1007.21 283.43C1008.23 283.422 1009.25 283.478 1010.25 283.598C1009.34 283.763 1008.42 283.828 1007.49 283.795L999.557 283.991C992.757 283.991 982.972 284.299 971.916 284.355H971.197V269.526C971.059 269.695 972.634 268.069 971.971 268.77C987.229 268.77 1000.97 268.77 1010.39 269.022H1010.92V269.526C1010.92 274.068 1010.72 277.656 1010.64 280.066C1010.6 281.272 1010.46 282.472 1010.23 283.654Z" fill="#263238"/>
<path d="M1049.7 448.145C1049.56 446.842 1049.48 445.532 1049.48 444.221C1049.48 441.782 1049.26 438.306 1049.2 434.017L1049.7 434.522C1040.25 434.69 1026.51 434.774 1011.28 434.774L1012.02 434.017V441.194C1012.02 443.576 1012.02 445.875 1012.02 448.089L1011.28 447.361C1022.33 447.361 1031.73 447.557 1038.59 447.697L1046.69 447.893C1047.7 447.901 1048.72 447.967 1049.73 448.089C1048.81 448.231 1047.89 448.297 1046.96 448.286L1039.03 448.482C1032.23 448.622 1022.44 448.79 1011.22 448.818H1010.5V448.089C1010.5 445.875 1010.5 443.576 1010.5 441.194V434.017L1011.39 433.261C1026.62 433.261 1040.36 433.261 1049.81 433.513H1050.34V434.017C1050.34 438.531 1050.14 442.119 1050.03 444.529C1050.02 445.742 1049.91 446.952 1049.7 448.145Z" fill="#263238"/>
<path d="M999.585 502.555C999.444 501.252 999.371 499.942 999.364 498.631C999.364 496.192 999.143 492.716 999.087 488.427L999.585 488.932C990.159 489.1 976.421 489.184 961.163 489.184L961.91 488.427V495.603C961.91 497.986 961.91 500.285 961.91 502.499L961.191 501.77C972.247 501.77 981.618 501.967 988.473 502.107L996.572 502.303C997.588 502.311 998.604 502.376 999.613 502.499C998.698 502.643 997.774 502.708 996.849 502.695L988.915 502.892C982.116 503.032 972.33 503.2 961.274 503.228H960.555V488.483C960.389 488.652 961.992 487.026 961.329 487.726C976.587 487.726 990.325 487.727 999.751 487.951H1000.28V488.455C1000.28 492.968 1000.08 496.584 1000 498.967C999.958 500.173 999.819 501.373 999.585 502.555Z" fill="#263238"/>
<path d="M1092.35 575.578C1092.19 574.276 1092.11 572.966 1092.1 571.654C1092.1 569.215 1091.91 565.739 1091.82 561.45L1092.35 561.955C1082.9 562.123 1069.16 562.207 1053.9 562.207L1054.65 561.45V568.654C1054.65 571.009 1054.65 573.308 1054.65 575.522L1053.93 574.793C1064.98 574.793 1074.38 574.989 1081.24 575.13L1089.31 575.326C1090.34 575.333 1091.36 575.399 1092.38 575.522C1091.46 575.661 1090.54 575.727 1089.61 575.718L1081.71 575.915C1074.88 575.915 1065.12 576.223 1053.9 576.251H1053.18V575.522C1053.18 573.308 1053.18 571.009 1053.18 568.654V561.45L1053.93 560.693C1069.19 560.693 1082.92 560.693 1092.38 560.918H1092.88V561.422C1092.88 565.935 1092.68 569.551 1092.6 571.962C1092.6 573.172 1092.52 574.381 1092.35 575.578Z" fill="#263238"/>
<path d="M1116.56 590.239C1116.42 588.945 1116.35 587.644 1116.34 586.342C1116.34 583.876 1116.12 580.4 1116.07 576.111L1116.56 576.643C1107.11 576.784 1093.37 576.896 1078.14 576.896C1077.45 577.569 1079.05 575.943 1078.89 576.111V583.315C1078.89 585.67 1078.89 587.968 1078.89 590.183L1078.17 589.454C1089.23 589.454 1098.6 589.65 1105.45 589.79L1113.66 590.239C1114.68 590.231 1115.69 590.287 1116.7 590.407C1115.79 590.588 1114.86 590.654 1113.94 590.603L1106 590.8C1099.21 590.968 1089.42 591.108 1078.23 591.164H1077.48V590.239C1077.48 588.024 1077.48 585.726 1077.48 583.371V576.223L1078.25 575.466C1093.48 575.466 1107.22 575.466 1116.67 575.718H1117.2V576.223C1117.2 580.764 1117.01 584.352 1116.92 586.763C1116.9 587.93 1116.78 589.092 1116.56 590.239Z" fill="#263238"/>
<path d="M1087.6 351.099C1087.43 349.807 1087.35 348.505 1087.35 347.203C1087.35 344.736 1087.13 341.26 1087.07 336.971L1087.57 337.504C1078.14 337.504 1064.4 337.756 1049.15 337.756L1049.89 336.971V344.175C1049.89 346.53 1049.89 348.829 1049.89 351.043L1049.17 350.314C1060.23 350.314 1069.63 350.51 1076.46 350.651L1084.55 350.875C1085.58 350.869 1086.6 350.925 1087.62 351.043C1086.71 351.22 1085.78 351.286 1084.86 351.239L1076.95 351.436C1070.13 351.604 1060.37 351.744 1049.15 351.8H1048.43V351.043C1048.43 348.829 1048.43 346.53 1048.43 344.175V336.971C1048.26 337.139 1049.84 335.513 1049.17 336.214C1064.43 336.214 1078.17 336.214 1087.6 336.467H1088.12V336.971C1088.12 341.512 1087.93 345.1 1087.84 347.511C1087.85 348.712 1087.76 349.911 1087.6 351.099Z" fill="#263238"/>
<path opacity="0.4" d="M959.836 193.84L1058.88 216.49L1066.26 643.64H1118.17L1103.07 193.84H959.836Z" fill="black"/>
<path d="M889.765 703.151C889.765 703.6 856.595 703.936 815.824 703.936C775.052 703.936 741.855 703.6 741.855 703.151C741.855 702.703 775.025 702.394 815.824 702.394C856.623 702.394 889.765 702.731 889.765 703.151Z" fill="#263238"/>
<path d="M1195.67 643.303C1194.13 643.792 1192.55 644.139 1190.95 644.34L1177.98 646.583C1166.93 648.377 1151.86 650.788 1135.11 653.367L1128.59 654.348L1129.03 654.124L1111.28 673.325L1111.15 673.494H1110.9L1090.17 676.493L1084.39 677.222C1083.7 677.321 1083 677.321 1082.32 677.222C1082.96 676.985 1083.63 676.816 1084.31 676.717L1090.06 675.624L1110.7 672.12L1110.34 672.316L1127.9 652.946L1128.06 652.75H1128.34L1134.86 651.741C1151.61 649.162 1166.79 646.919 1177.79 645.378L1190.84 643.64C1192.44 643.405 1194.06 643.292 1195.67 643.303Z" fill="#263238"/>
<path d="M800.483 668.224C804.479 666.311 808.975 665.751 813.308 666.626C815.669 666.812 817.899 667.799 819.638 669.429C820.457 670.291 820.915 671.441 820.915 672.639C820.915 673.836 820.457 674.986 819.638 675.848C818.47 676.649 817.06 677.006 815.658 676.857C812.258 676.857 808.499 676.213 805.79 678.287C804.242 679.464 803.219 681.427 801.367 682.015C800.443 682.23 799.476 682.135 798.609 681.746C797.742 681.357 797.022 680.694 796.557 679.857C795.671 678.129 795.473 676.122 796.005 674.25C796.249 672.966 796.779 671.755 797.555 670.711C798.331 669.666 799.332 668.815 800.483 668.224Z" fill="#100070"/>
<path d="M791.526 650.704C792.086 651.376 792.78 651.919 793.563 652.299C794.345 652.679 795.198 652.887 796.065 652.908C796.932 652.929 797.794 652.764 798.593 652.422C799.393 652.081 800.112 651.572 800.703 650.928C802.669 648.614 804.012 645.823 804.601 642.827C806.48 636.183 808.388 629.175 806.978 622.392C806.656 620.315 805.765 618.373 804.407 616.785C803.726 616.012 802.858 615.433 801.888 615.103C800.919 614.774 799.882 614.706 798.879 614.907C797.758 615.375 796.746 616.075 795.908 616.963C795.07 617.852 794.425 618.908 794.014 620.065C790.938 626.597 789.324 633.738 789.287 640.977C789.056 644.355 789.837 647.726 791.526 650.648" fill="#100070"/>
<path d="M784.975 655.665C786.206 654.043 787.026 652.139 787.363 650.121C787.7 648.103 787.545 646.031 786.91 644.088C785.597 640.218 783.265 636.787 780.166 634.165C776.631 630.973 772.52 628.507 768.059 626.905C766.302 626.199 764.417 625.884 762.53 625.98C761.599 626.036 760.696 626.321 759.896 626.809C759.097 627.297 758.427 627.975 757.942 628.783C757.52 630.104 757.415 631.507 757.637 632.877C757.858 634.248 758.398 635.544 759.214 636.66C761.549 640.955 764.211 645.06 767.174 648.938C769.351 652.228 772.371 654.854 775.909 656.534C779.558 657.964 783.317 657.796 785.252 655.245" fill="#100070"/>
<path d="M791.361 702.843C791.508 702.333 791.582 701.804 791.582 701.273L791.997 696.984C792.21 694.875 792.533 692.779 792.964 690.705C793.503 688.17 794.252 685.685 795.203 683.277C796.131 680.877 797.387 678.622 798.935 676.577C800.21 674.921 801.822 673.563 803.661 672.597C804.915 671.969 806.258 671.543 807.642 671.335C808.164 671.316 808.683 671.241 809.19 671.111C808.667 671.044 808.137 671.044 807.614 671.111C806.179 671.221 804.775 671.592 803.468 672.204C801.529 673.136 799.826 674.508 798.492 676.213C796.863 678.287 795.558 680.604 794.623 683.08C793.655 685.521 792.905 688.044 792.384 690.621C791.98 692.723 791.703 694.848 791.554 696.984C791.416 698.806 791.361 700.264 791.333 701.301C791.296 701.815 791.305 702.331 791.361 702.843Z" fill="#263238"/>
<path d="M791.665 699.563C791.696 699.321 791.696 699.076 791.665 698.834V696.76C791.665 694.966 791.665 692.331 791.665 689.107C791.803 682.66 792.356 675.68 793.406 665.897C794.429 656.674 795.784 645.938 797.193 638.958C797.497 637.36 797.801 635.931 798.105 634.697C798.41 633.464 798.603 632.343 798.824 631.474C799.045 630.605 799.183 629.988 799.322 629.455C799.348 629.213 799.348 628.969 799.322 628.727C799.212 628.949 799.128 629.185 799.073 629.427C798.907 629.932 798.714 630.605 798.492 631.418C798.271 632.231 797.94 633.352 797.636 634.613C797.331 635.875 796.972 637.276 796.64 638.846C794.874 647.102 793.555 655.449 792.688 663.851C791.61 673.662 791.14 682.632 791.084 689.079C791.084 692.303 791.084 694.938 791.084 696.732C791.084 697.601 791.084 698.274 791.084 698.834C791.231 699.112 791.428 699.359 791.665 699.563Z" fill="#263238"/>
<path d="M791.721 682.296C791.763 681.567 791.763 680.837 791.721 680.109C791.721 678.707 791.444 676.689 791.057 674.222C790.58 671.322 789.952 668.45 789.177 665.617C788.249 662.149 787.067 658.757 785.639 655.469C783.183 649.394 779.651 643.827 775.218 639.042C774.458 638.214 773.646 637.437 772.786 636.716C772.399 636.407 772.067 636.071 771.736 635.819L770.768 635.174C770.214 634.716 769.611 634.321 768.971 633.996C771.058 635.646 773.034 637.435 774.887 639.351C779.174 644.173 782.607 649.712 785.031 655.721C786.438 658.992 787.629 662.354 788.597 665.785C789.41 668.551 790.083 671.358 790.615 674.194C791.057 676.633 791.306 678.651 791.472 680.025C791.486 680.788 791.569 681.548 791.721 682.296Z" fill="#263238"/>
<path d="M975.813 333.635H964.673V351.099H975.813V333.635Z" fill="#263238"/>
<path d="M975.813 355.892H964.673V373.356H975.813V355.892Z" fill="#263238"/>
<path d="M1186.88 742.256C1207.18 747.944 1228.79 746.37 1248.08 737.799C1252.63 735.728 1257.39 734.149 1262.26 733.089C1286.75 728.184 1311.05 742.788 1336.04 743.041C1351.02 743.181 1365.5 738.191 1380.26 735.584C1367.02 726.137 1350.72 714.616 1350.72 714.616L1346.46 704.188L1309.72 692.976L1266.19 664.243L1238.85 660.319L1208.94 644.172L1118.17 628.306H942.588L893.441 659.478L787.491 665.532L742.103 701.834L675.349 719.886L645.911 742.48C653.352 743.19 660.83 743.424 668.3 743.181C706.197 741.695 742.684 724.54 780.58 726.362C821.462 728.268 860.437 752.151 900.987 746.545C933.273 742.088 962.462 719.214 994.969 721.849C1025.21 724.287 1051.05 748.619 1081.38 748.675C1099.26 748.675 1115.9 740.265 1133.12 735.36C1153.05 729.613 1166.4 736.341 1186.88 742.256Z" fill="#8BA0B2"/>
<defs>
<linearGradient id="paint0_linear" x1="429" y1="247.5" x2="416" y2="348" gradientUnits="userSpaceOnUse">
<stop stop-color="#FFCB14"/>
<stop offset="1" stop-color="#FFCB14" stop-opacity="0"/>
</linearGradient>
</defs>
</svg>
