<svg width="850" height="772" viewBox="0 0 850 772" fill="none" xmlns="http://www.w3.org/2000/svg">
<path d="M35.0729 715.184C34.1042 712.749 32.4163 710.667 30.2342 709.216C29.533 708.716 28.7351 708.366 27.8914 708.191C27.4697 708.109 27.0354 708.116 26.6166 708.212C26.1978 708.307 25.8038 708.49 25.46 708.748C25.1229 709.016 24.8785 709.384 24.7612 709.798C24.6438 710.213 24.6594 710.654 24.8057 711.059C24.9546 711.354 25.163 711.614 25.4176 711.824C25.6722 712.034 25.9676 712.189 26.2851 712.279C26.9191 712.462 27.5701 712.581 28.228 712.633C30.6436 712.95 32.9683 713.76 35.0576 715.014" fill="#FAFAFA"/>
<path d="M61.647 707.897C62.4086 705.39 63.9163 703.174 65.9693 701.546C66.6262 700.988 67.3921 700.573 68.2181 700.328C68.6314 700.21 69.0647 700.181 69.4901 700.242C69.9155 700.302 70.3234 700.451 70.6876 700.679C71.0459 700.919 71.3202 701.264 71.4718 701.668C71.6235 702.071 71.6449 702.512 71.533 702.928C71.4092 703.234 71.2234 703.511 70.9872 703.741C70.7511 703.971 70.4697 704.15 70.1609 704.267C69.5444 704.503 68.9056 704.675 68.2544 704.783C65.8738 705.301 63.6251 706.303 61.648 707.726" fill="#FAFAFA"/>
<path d="M108.465 743.902C110.864 742.848 113.527 742.55 116.1 743.048C116.951 743.184 117.764 743.495 118.488 743.962C118.846 744.2 119.151 744.509 119.382 744.872C119.613 745.234 119.765 745.641 119.829 746.066C119.881 746.493 119.797 746.927 119.589 747.304C119.382 747.682 119.061 747.985 118.673 748.171C118.36 748.276 118.029 748.315 117.7 748.286C117.371 748.257 117.052 748.16 116.763 748.001C116.183 747.687 115.636 747.314 115.13 746.89C113.187 745.42 110.963 744.365 108.595 743.791" fill="#FAFAFA"/>
<path d="M73.9997 735.5C149.2 713.9 183.833 724.833 197 732C153.691 726.25 53.5 760 67 747C73.9997 740.26 41.951 752 25.9998 752C-22.9999 752 12.4995 742.5 19.4998 735.5C-4.99991 732 25.2324 725.336 38.9998 723.5C68.9998 719.5 81.1674 715.167 102.001 718.5L22.5008 742.5C43.7008 744.9 65.6663 737.5 73.9997 735.5Z" fill="#E2E5FF"/>
<path d="M213 736.691C264.125 739.326 212.911 728.8 260.5 744.5C279.043 750.602 400.921 772.158 420.852 771.585C450.789 770.754 476.587 750.414 506.524 751.13C533.081 751.76 555.422 768.806 581.771 771.585C612.859 774.851 641.539 757.891 672.444 753.508C716.052 747.319 804.566 758.452 846 744.5C862.5 738.942 811.736 700.398 796.41 697.308C781.084 694.217 735.272 716.718 720.5 705C704.5 701 692.14 714.344 683.549 711.594C674.958 708.843 661.051 714.917 661.051 714.917L490.809 717.324L362.892 706.064L248.803 713.17L213 736.691Z" fill="#FFCB14"/>
<path d="M334.836 193.84L321.015 645.742L493.167 643.64L478.075 193.84H334.836Z" fill="#100070"/>
<path d="M489.85 174.134H321.015V193.84H489.85V174.134Z" fill="#455A64"/>
<path d="M354.351 174.134V35.4322L400.374 15.1091H411.459L458.311 36.7217V174.134H354.351Z" fill="#100070"/>
<path d="M458.339 36.7218H354.351V111.483H458.339V36.7218Z" fill="#EBEBEB"/>
<path d="M400.375 15.1092V0H410.602V15.1092H402.088" fill="#100070"/>
<path opacity="0.4" d="M481.889 307.061H331.381L328.202 409.91H485.317L481.889 307.061Z" fill="white"/>
<path d="M471.386 174.134C471.298 173.587 471.252 173.034 471.247 172.48C471.247 171.247 471.247 169.677 471.109 167.687C471.109 163.342 471.109 157.343 470.888 149.914L471.386 150.447C455.215 150.447 431.692 150.671 405.543 150.671C379.394 150.671 355.789 150.671 339.674 150.447L340.199 149.914C340.199 157.343 340.033 163.342 339.978 167.687C339.978 169.649 339.978 171.247 339.839 172.48C339.856 173.036 339.8 173.592 339.674 174.134C339.632 173.584 339.632 173.031 339.674 172.48C339.674 171.247 339.674 169.677 339.535 167.687C339.535 163.342 339.397 157.343 339.314 149.914V149.41H339.812C356.01 149.242 379.533 149.158 405.682 149.158C431.831 149.158 455.436 149.158 471.524 149.41H472.049V149.914C472.049 157.343 471.883 163.342 471.828 167.687C471.828 169.649 471.828 171.247 471.69 172.48C471.661 173.043 471.559 173.599 471.386 174.134Z" fill="#263238"/>
<path d="M433.876 174.134C433.132 170.145 432.882 166.077 433.13 162.024C432.883 157.972 433.134 153.904 433.876 149.914C434.618 153.904 434.869 157.972 434.622 162.024C434.87 166.077 434.62 170.145 433.876 174.134Z" fill="#263238"/>
<path d="M385.227 174.134C384.483 170.145 384.232 166.077 384.48 162.024C384.234 157.972 384.485 153.904 385.227 149.914C385.987 153.902 386.247 157.971 386.001 162.024C386.249 166.078 385.989 170.147 385.227 174.134Z" fill="#263238"/>
<path d="M384.315 111.483C383.9 111.483 383.568 94.6637 383.568 74.0883C383.568 53.5129 383.9 36.7218 384.315 36.7218C384.729 36.7218 385.089 53.5409 385.089 74.0883C385.089 94.6357 384.729 111.483 384.315 111.483Z" fill="#263238"/>
<path d="M425.086 111.483C424.671 111.483 424.34 94.6637 424.34 74.0883C424.34 53.5129 424.671 36.7218 425.086 36.7218C425.501 36.7218 425.86 53.5409 425.86 74.0883C425.86 94.6357 425.584 111.483 425.086 111.483Z" fill="#263238"/>
<path d="M458.256 74.2845C456.916 74.5368 455.555 74.6495 454.192 74.6209L443.136 74.9572C433.71 75.1535 420.718 75.3497 406.372 75.4057C392.026 75.4618 379.007 75.4057 369.582 75.2095C364.497 75.3719 359.408 75.0623 354.379 74.2845L406.345 73.864H443.108H454.165C455.539 73.866 456.909 74.0068 458.256 74.2845Z" fill="#263238"/>
<path opacity="0.4" d="M324.913 517.552H488.938L492.393 620.85L321.762 620.149L324.913 517.552Z" fill="white"/>
<path d="M332.929 269.526C335.925 269.122 338.946 268.954 341.968 269.022C347.496 269.022 355.54 268.798 364.496 268.77L363.749 269.526V256.66L364.496 257.389C355.54 257.389 347.634 257.389 341.968 257.136C338.948 257.185 335.928 257.026 332.929 256.66C335.925 256.256 338.946 256.087 341.968 256.155C347.496 256.155 355.54 255.931 364.496 255.903H365.242V270.311H364.496C355.54 270.311 347.634 270.311 341.968 270.059C338.946 270.118 335.924 269.94 332.929 269.526Z" fill="#263238"/>
<path d="M417.733 130.516C417.553 129.433 417.469 128.335 417.485 127.237C417.485 125.022 417.264 121.63 417.208 117.65V117.117H417.761C425.75 116.977 436.944 116.893 449.328 116.893L450.102 117.678V120.986C450.102 122.079 450.102 123.172 450.102 124.265C450.102 126.424 450.102 128.498 450.102 130.516V131.245H449.383C440.068 131.245 432.079 131.049 426.496 130.909L420 130.713C419.267 130.724 418.536 130.658 417.816 130.516C418.65 130.394 419.49 130.329 420.332 130.32L426.966 130.124C432.494 129.984 440.4 129.816 449.383 129.788L448.664 130.516C448.664 128.498 448.664 126.424 448.664 124.265V117.622C448.498 117.454 450.102 119.051 449.411 118.379C437.027 118.379 425.832 118.379 417.844 118.154L418.369 117.622C418.369 121.462 418.176 124.63 418.093 126.872C418.01 129.115 417.789 130.516 417.733 130.516Z" fill="#263238"/>
<path d="M399.186 143.579C399.025 142.494 398.951 141.397 398.964 140.3C398.964 138.113 398.743 134.693 398.66 130.713V130.18H399.186C407.202 130.18 418.396 129.956 430.78 129.956L431.526 130.713V137.272C431.526 139.431 431.526 141.533 431.526 143.523V144.28H430.807C421.492 144.28 413.476 144.056 407.893 143.916L401.425 143.719C400.682 143.767 399.936 143.7 399.213 143.523C400.056 143.406 400.906 143.35 401.756 143.355L408.39 143.159C413.919 143.019 421.796 142.85 430.807 142.794L430.089 143.523C430.089 141.533 430.089 139.431 430.089 137.272V130.713L430.835 131.469C418.452 131.469 407.257 131.469 399.241 131.245L399.794 130.713C399.794 134.581 399.6 137.749 399.49 139.991C399.483 141.194 399.382 142.393 399.186 143.579Z" fill="#263238"/>
<path d="M325.576 488.427C328.581 488.024 331.612 487.855 334.643 487.923C340.309 487.782 348.187 487.698 357.17 487.67L356.424 488.427C356.424 486.353 356.424 484.194 356.424 481.98C356.424 479.765 356.424 477.607 356.424 475.532L357.17 476.289C348.187 476.289 340.309 476.289 334.643 476.037C331.612 476.104 328.581 475.936 325.576 475.532C328.583 475.15 331.613 474.99 334.643 475.056C340.309 475.056 348.187 474.804 357.17 474.776H357.917V489.324H357.17C348.187 489.324 340.309 489.184 334.643 489.072C331.609 489.093 328.578 488.877 325.576 488.427Z" fill="#263238"/>
<path d="M385.227 283.654C385.085 282.361 385.011 281.06 385.006 279.758C385.006 277.291 384.784 273.815 384.729 269.526L385.227 270.059C375.801 270.199 362.063 270.283 346.805 270.283L347.551 269.526V276.731C347.551 279.085 347.551 281.384 347.551 283.598L346.833 282.87C357.889 282.87 367.26 283.066 374.115 283.206L382.214 283.43C383.23 283.422 384.245 283.478 385.254 283.598C384.342 283.763 383.416 283.828 382.49 283.795L374.557 283.991C367.757 283.991 357.972 284.299 346.916 284.355H346.197V269.526C346.059 269.695 347.634 268.069 346.971 268.77C362.229 268.77 375.967 268.77 385.393 269.022H385.918V269.526C385.918 274.068 385.724 277.656 385.641 280.066C385.603 281.272 385.464 282.472 385.227 283.654Z" fill="#263238"/>
<path d="M424.699 448.145C424.559 446.842 424.485 445.532 424.478 444.221C424.478 441.782 424.257 438.306 424.202 434.017L424.699 434.522C415.246 434.69 401.508 434.774 386.277 434.774L387.024 434.017V441.194C387.024 443.576 387.024 445.875 387.024 448.089L386.277 447.361C397.334 447.361 406.732 447.557 413.587 447.697L421.686 447.893C422.703 447.901 423.718 447.967 424.727 448.089C423.812 448.231 422.888 448.297 421.963 448.286L414.03 448.482C407.23 448.622 397.445 448.79 386.222 448.818H385.503V448.089C385.503 445.875 385.503 443.576 385.503 441.194V434.017L386.388 433.261C401.619 433.261 415.356 433.261 424.81 433.513H425.335V434.017C425.335 438.531 425.142 442.119 425.031 444.529C425.024 445.742 424.913 446.952 424.699 448.145Z" fill="#263238"/>
<path d="M374.585 502.555C374.444 501.252 374.371 499.942 374.364 498.631C374.364 496.192 374.143 492.716 374.087 488.427L374.585 488.932C365.159 489.1 351.421 489.184 336.163 489.184L336.91 488.427V495.603C336.91 497.986 336.91 500.285 336.91 502.499L336.191 501.77C347.247 501.77 356.618 501.967 363.473 502.107L371.572 502.303C372.588 502.311 373.604 502.376 374.613 502.499C373.698 502.643 372.774 502.708 371.849 502.695L363.915 502.892C357.116 503.032 347.33 503.2 336.274 503.228H335.555V488.483C335.389 488.652 336.992 487.026 336.329 487.726C351.587 487.726 365.325 487.727 374.751 487.951H375.276V488.455C375.276 492.968 375.083 496.584 375 498.967C374.958 500.173 374.819 501.373 374.585 502.555Z" fill="#263238"/>
<path d="M467.35 575.578C467.188 574.276 467.105 572.966 467.101 571.654C467.101 569.215 466.908 565.739 466.825 561.45L467.35 561.955C457.897 562.123 444.159 562.207 428.901 562.207L429.647 561.45V568.654C429.647 571.009 429.647 573.308 429.647 575.522L428.928 574.793C439.985 574.793 449.383 574.989 456.238 575.13L464.31 575.326C465.335 575.333 466.359 575.399 467.378 575.522C466.463 575.661 465.539 575.727 464.614 575.718L456.708 575.915C449.881 575.915 440.123 576.223 428.901 576.251H428.182V575.522C428.182 573.308 428.182 571.009 428.182 568.654V561.45L428.928 560.693C444.186 560.693 457.924 560.693 467.378 560.918H467.875V561.422C467.875 565.935 467.682 569.551 467.599 571.962C467.604 573.172 467.52 574.381 467.35 575.578Z" fill="#263238"/>
<path d="M491.564 590.239C491.422 588.945 491.349 587.644 491.343 586.342C491.343 583.876 491.122 580.4 491.066 576.111L491.564 576.643C482.11 576.784 468.373 576.896 453.142 576.896C452.451 577.569 454.054 575.943 453.889 576.111V583.315C453.889 585.67 453.889 587.968 453.889 590.183L453.17 589.454C464.226 589.454 473.597 589.65 480.452 589.79L488.662 590.239C489.678 590.231 490.693 590.287 491.702 590.407C490.792 590.588 489.864 590.654 488.938 590.603L481.005 590.8C474.205 590.968 464.42 591.108 453.225 591.164H452.479V590.239C452.479 588.024 452.479 585.726 452.479 583.371V576.223L453.253 575.466C468.483 575.466 482.221 575.466 491.674 575.718H492.2V576.223C492.2 580.764 492.006 584.352 491.923 586.763C491.897 587.93 491.777 589.092 491.564 590.239Z" fill="#263238"/>
<path d="M462.595 351.099C462.434 349.807 462.351 348.505 462.347 347.203C462.347 344.736 462.126 341.26 462.07 336.971L462.568 337.504C453.142 337.504 439.404 337.756 424.146 337.756L424.892 336.971V344.175C424.892 346.53 424.892 348.829 424.892 351.043L424.173 350.314C435.23 350.314 444.628 350.51 451.456 350.651L459.555 350.875C460.58 350.869 461.605 350.925 462.623 351.043C461.713 351.22 460.785 351.286 459.859 351.239L451.953 351.436C445.126 351.604 435.368 351.744 424.146 351.8H423.427V351.043C423.427 348.829 423.427 346.53 423.427 344.175V336.971C423.261 337.139 424.837 335.513 424.173 336.214C439.432 336.214 453.17 336.214 462.595 336.467H463.121V336.971C463.121 341.512 462.927 345.1 462.844 347.511C462.848 348.712 462.764 349.911 462.595 351.099Z" fill="#263238"/>
<path opacity="0.4" d="M334.836 193.84L433.876 216.49L441.256 643.64H493.167L478.075 193.84H334.836Z" fill="black"/>
<path d="M264.765 703.151C264.765 703.6 231.595 703.936 190.824 703.936C150.052 703.936 116.855 703.6 116.855 703.151C116.855 702.703 150.025 702.394 190.824 702.394C231.623 702.394 264.765 702.731 264.765 703.151Z" fill="#263238"/>
<path d="M570.674 643.303C569.132 643.792 567.55 644.139 565.947 644.34L552.983 646.583C541.927 648.377 526.862 650.788 510.111 653.367L503.588 654.348L504.03 654.124L486.284 673.325L486.146 673.494H485.897L465.166 676.493L459.389 677.222C458.701 677.321 458.003 677.321 457.316 677.222C457.96 676.985 458.627 676.816 459.306 676.717L465.056 675.624L485.704 672.12L485.344 672.316L502.897 652.946L503.063 652.75H503.339L509.863 651.741C526.613 649.162 541.789 646.919 552.79 645.378L565.837 643.64C567.439 643.405 569.056 643.292 570.674 643.303Z" fill="#263238"/>
<path d="M175.483 668.224C179.479 666.311 183.975 665.751 188.308 666.626C190.669 666.812 192.899 667.799 194.638 669.429C195.457 670.291 195.915 671.441 195.915 672.639C195.915 673.836 195.457 674.986 194.638 675.848C193.47 676.649 192.06 677.006 190.658 676.857C187.258 676.857 183.499 676.213 180.79 678.287C179.242 679.464 178.219 681.427 176.367 682.015C175.443 682.23 174.476 682.135 173.609 681.746C172.742 681.357 172.022 680.694 171.557 679.857C170.671 678.129 170.473 676.122 171.005 674.25C171.249 672.966 171.779 671.755 172.555 670.711C173.331 669.666 174.332 668.815 175.483 668.224Z" fill="#100070"/>
<path d="M166.526 650.704C167.086 651.376 167.78 651.919 168.563 652.299C169.345 652.679 170.198 652.887 171.065 652.908C171.932 652.929 172.794 652.764 173.593 652.422C174.393 652.081 175.112 651.572 175.703 650.928C177.669 648.614 179.012 645.823 179.601 642.827C181.48 636.183 183.388 629.175 181.978 622.392C181.656 620.315 180.765 618.373 179.407 616.785C178.726 616.012 177.858 615.433 176.888 615.103C175.919 614.774 174.882 614.706 173.879 614.907C172.758 615.375 171.746 616.075 170.908 616.963C170.07 617.852 169.425 618.908 169.014 620.065C165.938 626.597 164.324 633.738 164.287 640.977C164.056 644.355 164.837 647.726 166.526 650.648" fill="#100070"/>
<path d="M159.975 655.665C161.206 654.043 162.026 652.139 162.363 650.121C162.7 648.103 162.545 646.031 161.91 644.088C160.597 640.218 158.265 636.787 155.166 634.165C151.631 630.973 147.52 628.507 143.059 626.905C141.302 626.199 139.417 625.884 137.53 625.98C136.599 626.036 135.696 626.321 134.896 626.809C134.097 627.297 133.427 627.975 132.942 628.783C132.52 630.104 132.415 631.507 132.637 632.877C132.858 634.248 133.398 635.544 134.214 636.66C136.549 640.955 139.211 645.06 142.174 648.938C144.351 652.228 147.371 654.854 150.909 656.534C154.558 657.964 158.317 657.796 160.252 655.245" fill="#100070"/>
<path d="M166.361 702.843C166.508 702.333 166.582 701.804 166.582 701.273L166.997 696.984C167.21 694.875 167.533 692.779 167.964 690.705C168.503 688.17 169.252 685.685 170.203 683.277C171.131 680.877 172.387 678.622 173.935 676.577C175.21 674.921 176.822 673.563 178.661 672.597C179.915 671.969 181.258 671.543 182.642 671.335C183.164 671.316 183.683 671.241 184.19 671.111C183.667 671.044 183.137 671.044 182.614 671.111C181.179 671.221 179.775 671.592 178.468 672.204C176.529 673.136 174.826 674.508 173.492 676.213C171.863 678.287 170.558 680.604 169.623 683.08C168.655 685.521 167.905 688.044 167.384 690.621C166.98 692.723 166.703 694.848 166.554 696.984C166.416 698.806 166.361 700.264 166.333 701.301C166.296 701.815 166.305 702.331 166.361 702.843Z" fill="#263238"/>
<path d="M166.665 699.563C166.696 699.321 166.696 699.076 166.665 698.834V696.76C166.665 694.966 166.665 692.331 166.665 689.107C166.803 682.66 167.356 675.68 168.406 665.897C169.429 656.674 170.784 645.938 172.193 638.958C172.497 637.36 172.801 635.931 173.105 634.697C173.41 633.464 173.603 632.343 173.824 631.474C174.045 630.605 174.183 629.988 174.322 629.455C174.348 629.213 174.348 628.969 174.322 628.727C174.212 628.949 174.128 629.185 174.073 629.427C173.907 629.932 173.714 630.605 173.492 631.418C173.271 632.231 172.94 633.352 172.636 634.613C172.331 635.875 171.972 637.276 171.64 638.846C169.874 647.102 168.555 655.449 167.688 663.851C166.61 673.662 166.14 682.632 166.084 689.079C166.084 692.303 166.084 694.938 166.084 696.732C166.084 697.601 166.084 698.274 166.084 698.834C166.231 699.112 166.428 699.359 166.665 699.563Z" fill="#263238"/>
<path d="M166.721 682.296C166.763 681.567 166.763 680.837 166.721 680.109C166.721 678.707 166.444 676.689 166.057 674.222C165.58 671.322 164.952 668.45 164.177 665.617C163.249 662.149 162.067 658.757 160.639 655.469C158.183 649.394 154.651 643.827 150.218 639.042C149.458 638.214 148.646 637.437 147.786 636.716C147.399 636.407 147.067 636.071 146.736 635.819L145.768 635.174C145.214 634.716 144.611 634.321 143.971 633.996C146.058 635.646 148.034 637.435 149.887 639.351C154.174 644.173 157.607 649.712 160.031 655.721C161.438 658.992 162.629 662.354 163.597 665.785C164.41 668.551 165.083 671.358 165.615 674.194C166.057 676.633 166.306 678.651 166.472 680.025C166.486 680.788 166.569 681.548 166.721 682.296Z" fill="#263238"/>
<path d="M350.813 333.635H339.673V351.099H350.813V333.635Z" fill="#263238"/>
<path d="M350.813 355.892H339.673V373.356H350.813V355.892Z" fill="#263238"/>
<path d="M561.884 742.256C582.183 747.944 603.794 746.37 623.083 737.799C627.633 735.728 632.386 734.149 637.263 733.089C661.753 728.184 686.05 742.788 711.038 743.041C726.02 743.181 740.504 738.191 755.265 735.584C742.024 726.137 725.716 714.616 725.716 714.616L721.459 704.188L684.723 692.976L641.188 664.243L613.85 660.319L583.942 644.172L493.167 628.306H317.588L268.441 659.478L162.491 665.532L117.103 701.834L50.3489 719.886L20.9106 742.48C28.352 743.19 35.83 743.424 43.3003 743.181C81.1969 741.695 117.684 724.54 155.58 726.362C196.462 728.268 235.437 752.151 275.987 746.545C308.273 742.088 337.462 719.214 369.969 721.849C400.208 724.287 426.053 748.619 456.376 748.675C474.26 748.675 490.901 740.265 508.121 735.36C528.051 729.613 541.402 736.341 561.884 742.256Z" fill="#8BA0B2"/>
</svg>
