<svg width="811" height="109" viewBox="0 0 811 109" fill="none" xmlns="http://www.w3.org/2000/svg">
<path d="M121.34 93.9337C121.627 91.8857 118.703 90.1552 116.502 89.976C115.452 89.8889 114.361 90.0528 113.368 89.7046C111.218 88.9571 110.358 86.1718 108.248 85.2861C106.676 84.6256 104.869 85.2144 103.343 85.9824C101.817 86.7504 100.317 87.7129 98.6174 87.8205C97.1377 87.9177 95.5454 87.3648 94.2347 88.0918C93.2721 88.6294 92.7652 89.7405 91.8744 90.3958C90.9835 91.0512 89.8724 91.1741 88.8024 91.2304C87.7199 91.2024 86.6417 91.376 85.6228 91.7424C84.6398 92.1929 83.8308 93.2323 84.0305 94.3024L121.34 93.9337Z" fill="#F5F5F5"/>
<path d="M99.34 8.93374C99.6267 6.88574 96.7032 5.15518 94.5016 4.97598C93.452 4.88894 92.3614 5.05278 91.3681 4.70462C89.2177 3.9571 88.3576 1.17182 86.2481 0.286061C84.6763 -0.374419 82.8689 0.214381 81.3432 0.98238C79.8174 1.75038 78.3172 2.71295 76.6174 2.82047C75.1377 2.91775 73.5454 2.36478 72.2347 3.09182C71.2721 3.62942 70.7652 4.74046 69.8744 5.39582C68.9835 6.05118 67.8724 6.17406 66.8024 6.23038C65.7199 6.20238 64.6417 6.376 63.6228 6.74238C62.6398 7.19294 61.8308 8.2323 62.0305 9.30238L99.34 8.93374Z" fill="#F5F5F5"/>
<path d="M410.92 89.7449C411.263 87.2515 407.741 85.1984 405.093 84.9833C403.834 84.8809 402.533 85.0755 401.325 84.6608C398.74 83.7545 397.705 80.4112 395.181 79.3462C393.292 78.5475 391.116 79.2592 389.283 80.1808C387.45 81.1024 385.643 82.2595 383.595 82.3926C381.818 82.5053 379.883 81.8448 378.326 82.7152C377.164 83.3654 376.56 84.7017 375.49 85.4902C374.42 86.2787 373.078 86.4221 371.778 86.5142C370.477 86.6064 369.136 86.6013 367.953 87.1389C366.77 87.6765 365.792 88.9309 366.038 90.2109L410.92 89.7449Z" fill="#F5F5F5"/>
<path d="M298.923 50.2284C299.282 47.6223 295.606 45.477 292.841 45.2518C291.52 45.1494 290.153 45.349 288.904 44.9138C286.195 43.9718 285.115 40.4748 282.473 39.3586C280.502 38.5292 278.228 39.2716 276.329 40.2342C274.429 41.1967 272.525 42.4102 270.385 42.5433C268.526 42.6662 266.509 41.975 264.881 42.8812C263.667 43.557 263.032 44.9548 261.916 45.7791C260.8 46.6034 259.392 46.757 258.04 46.8338C256.689 46.9106 255.275 46.9209 254.041 47.4841C252.808 48.0473 251.784 49.358 252.04 50.6892L298.923 50.2284Z" fill="#EBEBEB"/>
<path d="M46.9234 49.2284C47.2818 46.6223 43.6056 44.477 40.8408 44.2518C39.5199 44.1494 38.1528 44.349 36.9035 43.9138C34.1951 42.9718 33.1147 39.4748 30.4728 38.3586C28.5016 37.5292 26.2283 38.2716 24.3288 39.2342C22.4293 40.1967 20.5247 41.4102 18.3845 41.5433C16.5259 41.6662 14.5087 40.975 12.8805 41.8812C11.6671 42.557 11.0322 43.9548 9.91603 44.7791C8.79987 45.6034 7.39186 45.757 6.04018 45.8338C4.6885 45.9106 3.27539 45.9209 2.04147 46.4841C0.807545 47.0473 -0.216457 48.358 0.0395433 49.6892L46.9234 49.2284Z" fill="#EBEBEB"/>
<path d="M489.733 53.5446C490.004 51.558 487.203 49.9298 485.099 49.7558C484.075 49.679 483.051 49.8326 482.104 49.4998C480.056 48.783 479.221 46.1206 477.214 45.2758C475.709 44.6409 473.978 45.2041 472.524 45.9362C471.07 46.6684 469.626 47.59 468.003 47.6975C466.585 47.7846 465.049 47.2623 463.81 47.9535C462.889 48.4655 462.402 49.5305 461.552 50.1603C460.667 50.7067 459.643 50.9842 458.603 50.959C457.566 50.9391 456.535 51.1127 455.562 51.471C454.625 51.9011 453.847 52.8943 454.026 53.9132L489.733 53.5446Z" fill="#EBEBEB"/>
<path d="M585.34 107.934C585.627 105.886 582.703 104.155 580.502 103.976C579.452 103.889 578.361 104.053 577.368 103.705C575.218 102.957 574.358 100.172 572.248 99.2861C570.676 98.6256 568.869 99.2144 567.343 99.9824C565.817 100.75 564.317 101.713 562.617 101.82C561.138 101.918 559.545 101.365 558.235 102.092C557.272 102.629 556.765 103.74 555.874 104.396C554.983 105.051 553.872 105.174 552.802 105.23C551.72 105.202 550.642 105.376 549.623 105.742C548.64 106.193 547.831 107.232 548.031 108.302L585.34 107.934Z" fill="#F5F5F5"/>
<path d="M810.92 61.7449C811.263 59.2515 807.741 57.1984 805.093 56.9833C803.834 56.8809 802.533 57.0755 801.325 56.6608C798.74 55.7545 797.705 52.4112 795.181 51.3462C793.292 50.5475 791.116 51.2592 789.283 52.1808C787.45 53.1024 785.643 54.2595 783.595 54.3926C781.818 54.5053 779.883 53.8448 778.326 54.7152C777.164 55.3654 776.56 56.7017 775.49 57.4902C774.42 58.2787 773.078 58.4221 771.778 58.5142C770.477 58.6064 769.136 58.6013 767.953 59.1389C766.77 59.6765 765.792 60.9309 766.038 62.2109L810.92 61.7449Z" fill="#F5F5F5"/>
<path d="M700.923 78.2284C701.282 75.6223 697.606 73.477 694.841 73.2518C693.52 73.1494 692.153 73.349 690.904 72.9138C688.195 71.9718 687.115 68.4748 684.473 67.3586C682.502 66.5292 680.228 67.2716 678.329 68.2342C676.429 69.1967 674.525 70.4102 672.385 70.5433C670.526 70.6662 668.509 69.975 666.881 70.8812C665.667 71.557 665.032 72.9548 663.916 73.7791C662.8 74.6034 661.392 74.757 660.04 74.8338C658.689 74.9106 657.275 74.9209 656.041 75.4841C654.808 76.0473 653.784 77.358 654.04 78.6892L700.923 78.2284Z" fill="#EBEBEB"/>
<path d="M625.733 53.5446C626.004 51.558 623.203 49.9298 621.099 49.7558C620.075 49.679 619.051 49.8326 618.104 49.4998C616.056 48.783 615.221 46.1206 613.214 45.2758C611.709 44.6409 609.978 45.2041 608.524 45.9362C607.07 46.6684 605.626 47.59 604.003 47.6975C602.585 47.7846 601.049 47.2623 599.81 47.9535C598.889 48.4655 598.402 49.5305 597.552 50.1603C596.667 50.7067 595.643 50.9842 594.603 50.959C593.566 50.9391 592.535 51.1127 591.562 51.471C590.625 51.9011 589.847 52.8943 590.026 53.9132L625.733 53.5446Z" fill="#EBEBEB"/>
</svg>
