<svg width="2092" height="179" viewBox="0 0 2092 179" fill="none" xmlns="http://www.w3.org/2000/svg">
<path d="M2083.2 68.2169C1993.31 52.4276 1134.72 39.8205 814.825 41.7789C753.836 42.1523 322 38.9125 456.5 53.5647C591 68.2169 138.224 66.8694 98 68.2169C-109.512 75.1686 71.4999 111.437 110 137.5C148.402 163.497 1216.52 205.652 1233 155.804C1245 119.5 1563.57 135.157 1582.5 118C1608.28 107.353 2167.16 82.9659 2083.2 68.2169Z" fill="url(#paint0_linear)"/>
<path d="M1189.25 142.499C1189.94 142.499 1190.5 141.939 1190.5 141.249C1190.5 140.559 1189.94 140 1189.25 140C1188.56 140 1188 140.559 1188 141.249C1188 141.939 1188.56 142.499 1189.25 142.499Z" fill="#FAFAFA"/>
<path d="M1336.07 87.184C1335.1 84.7492 1333.42 82.6674 1331.23 81.2163C1330.53 80.7156 1329.74 80.3664 1328.89 80.191C1328.47 80.1087 1328.04 80.1157 1327.62 80.2116C1327.2 80.3075 1326.8 80.4902 1326.46 80.7479C1326.12 81.0163 1325.88 81.3837 1325.76 81.7983C1325.64 82.2129 1325.66 82.6539 1325.81 83.0592C1325.95 83.3536 1326.16 83.614 1326.42 83.8239C1326.67 84.0338 1326.97 84.1887 1327.29 84.2787C1327.92 84.4621 1328.57 84.5809 1329.23 84.6332C1331.64 84.9502 1333.97 85.7605 1336.06 87.0137" fill="#FAFAFA"/>
<path d="M1362.65 79.8973C1363.41 77.3899 1364.92 75.1742 1366.97 73.5456C1367.63 72.9879 1368.39 72.5732 1369.22 72.3279C1369.63 72.2105 1370.06 72.1811 1370.49 72.2416C1370.92 72.3022 1371.32 72.4513 1371.69 72.6793C1372.05 72.9186 1372.32 73.2642 1372.47 73.6676C1372.62 74.0709 1372.64 74.5116 1372.53 74.9277C1372.41 75.2336 1372.22 75.5105 1371.99 75.741C1371.75 75.9715 1371.47 76.1505 1371.16 76.2667C1370.54 76.5026 1369.91 76.6754 1369.25 76.7826C1366.87 77.3007 1364.63 78.3026 1362.65 79.7263" fill="#FAFAFA"/>
<path d="M1138.65 136.897C1139.41 134.39 1140.92 132.174 1142.97 130.546C1143.63 129.988 1144.39 129.573 1145.22 129.328C1145.63 129.21 1146.06 129.181 1146.49 129.242C1146.92 129.302 1147.32 129.451 1147.69 129.679C1148.05 129.919 1148.32 130.264 1148.47 130.668C1148.62 131.071 1148.64 131.512 1148.53 131.928C1148.41 132.234 1148.22 132.511 1147.99 132.741C1147.75 132.971 1147.47 133.15 1147.16 133.267C1146.54 133.503 1145.91 133.675 1145.25 133.783C1142.87 134.301 1140.63 135.303 1138.65 136.726" fill="#FAFAFA"/>
<path d="M1409.46 115.902C1411.86 114.848 1414.53 114.55 1417.1 115.048C1417.95 115.184 1418.76 115.495 1419.49 115.962C1419.85 116.2 1420.15 116.509 1420.38 116.872C1420.61 117.234 1420.77 117.641 1420.83 118.066C1420.88 118.493 1420.8 118.927 1420.59 119.304C1420.38 119.682 1420.06 119.985 1419.67 120.171C1419.36 120.276 1419.03 120.315 1418.7 120.286C1418.37 120.257 1418.05 120.16 1417.76 120.001C1417.18 119.687 1416.64 119.314 1416.13 118.89C1414.19 117.42 1411.96 116.365 1409.6 115.791" fill="#FAFAFA"/>
<path d="M1375 107.5C1450.2 85.9 1484.83 96.8333 1498 104C1454.69 98.2501 1354.5 132 1368 119C1375 112.26 1342.95 124 1327 124C1278 124 1313.5 114.5 1320.5 107.5C1296 104 1326.23 97.3356 1340 95.5C1370 91.5 1382.17 87.1667 1403 90.5L1323.5 114.5C1344.7 116.9 1366.67 109.5 1375 107.5Z" fill="#E2E5FF"/>
<path d="M426.005 113.289C427.088 111.925 428.573 110.936 430.249 110.463C431.925 109.989 433.708 110.054 435.345 110.65C436.708 111.177 438.016 112.099 439.488 112.035C440.96 111.972 442.304 110.836 443.781 110.386C445.498 109.859 447.342 110.295 449.096 110.695C454.352 111.894 464.387 113.116 470.929 113.294" fill="white"/>
<path d="M470.929 113.289C470.89 113.296 470.85 113.296 470.811 113.289H470.456C470.143 113.289 469.684 113.289 469.093 113.253C467.908 113.212 466.195 113.112 464.096 112.93C461.997 112.748 459.472 112.476 456.696 112.108C453.92 111.74 450.868 111.236 447.724 110.5C446.95 110.334 446.162 110.251 445.371 110.25C444.61 110.258 443.858 110.422 443.163 110.731C442.472 111.031 441.827 111.417 441.146 111.713C440.48 112.036 439.74 112.175 439.002 112.117C438.312 112.022 437.642 111.814 437.021 111.499C436.412 111.222 435.844 110.927 435.267 110.709C434.194 110.312 433.046 110.157 431.906 110.254C430.236 110.378 428.639 110.989 427.313 112.012C426.959 112.288 426.628 112.592 426.323 112.921L426.086 113.185C426.032 113.244 426.005 113.275 426 113.271L426.068 113.171L426.286 112.889C426.579 112.538 426.904 112.215 427.258 111.926C428.576 110.855 430.186 110.207 431.878 110.068C433.047 109.962 434.225 110.117 435.326 110.522C436.503 110.949 437.639 111.749 439.006 111.885C439.707 111.939 440.41 111.804 441.041 111.495C441.705 111.204 442.345 110.818 443.054 110.509C443.776 110.182 444.559 110.008 445.352 110C446.16 109.999 446.966 110.084 447.756 110.254C450.908 110.995 453.938 111.486 456.71 111.876C459.481 112.267 461.988 112.549 464.096 112.748C466.204 112.948 467.912 113.076 469.093 113.148L470.456 113.225H470.811L470.929 113.289Z" fill="#263238"/>
<path d="M925.005 124.289C926.088 122.925 927.573 121.936 929.249 121.463C930.925 120.989 932.708 121.054 934.345 121.65C935.708 122.177 937.016 123.099 938.488 123.035C939.96 122.972 941.304 121.836 942.781 121.386C944.498 120.859 946.342 121.295 948.096 121.695C953.352 122.894 963.387 124.116 969.929 124.294" fill="white"/>
<path d="M969.929 124.289C969.89 124.296 969.85 124.296 969.811 124.289H969.456C969.143 124.289 968.684 124.289 968.093 124.253C966.908 124.212 965.195 124.112 963.096 123.93C960.997 123.748 958.472 123.476 955.696 123.108C952.92 122.74 949.868 122.236 946.724 121.5C945.95 121.334 945.162 121.251 944.371 121.25C943.61 121.258 942.858 121.422 942.163 121.731C941.472 122.031 940.827 122.417 940.146 122.713C939.48 123.036 938.74 123.175 938.002 123.117C937.312 123.022 936.642 122.814 936.021 122.499C935.412 122.222 934.844 121.927 934.267 121.709C933.194 121.312 932.046 121.157 930.906 121.254C929.236 121.378 927.639 121.989 926.313 123.012C925.959 123.288 925.628 123.592 925.323 123.921L925.086 124.185C925.032 124.244 925.005 124.275 925 124.271L925.068 124.171L925.286 123.889C925.579 123.538 925.904 123.215 926.258 122.926C927.576 121.855 929.186 121.207 930.878 121.068C932.047 120.962 933.225 121.117 934.326 121.522C935.503 121.949 936.639 122.749 938.006 122.885C938.707 122.939 939.41 122.804 940.041 122.495C940.705 122.204 941.345 121.818 942.054 121.509C942.776 121.182 943.559 121.008 944.352 121C945.16 120.999 945.966 121.084 946.756 121.254C949.908 121.995 952.938 122.486 955.71 122.876C958.481 123.267 960.988 123.549 963.096 123.748C965.204 123.948 966.912 124.076 968.093 124.148L969.456 124.225H969.811L969.929 124.289Z" fill="#263238"/>
<path d="M1105.01 151.991C1107.44 149.507 1110.78 147.706 1114.55 146.843C1118.32 145.98 1122.33 146.099 1126.01 147.183C1129.07 148.143 1132.01 149.823 1135.32 149.707C1138.63 149.591 1141.65 147.523 1144.97 146.703C1148.83 145.744 1152.98 146.538 1156.92 147.266C1168.73 149.45 1191.29 151.676 1206 151.999" fill="white"/>
<path d="M1206 151.991C1205.91 152.003 1205.82 152.003 1205.73 151.991H1204.94C1204.23 151.991 1203.2 151.991 1201.87 151.925C1199.21 151.85 1195.36 151.668 1190.64 151.337C1185.92 151.006 1180.24 150.51 1174 149.839C1167.77 149.169 1160.9 148.251 1153.84 146.91C1152.1 146.609 1150.32 146.456 1148.55 146.455C1146.83 146.47 1145.15 146.768 1143.58 147.332C1142.03 147.878 1140.58 148.582 1139.05 149.119C1137.55 149.708 1135.89 149.962 1134.23 149.856C1132.68 149.684 1131.17 149.303 1129.78 148.731C1128.41 148.226 1127.13 147.688 1125.83 147.291C1123.42 146.569 1120.84 146.286 1118.28 146.463C1114.52 146.688 1110.93 147.802 1107.95 149.666C1107.16 150.168 1106.41 150.722 1105.73 151.321L1105.19 151.8C1105.07 151.908 1105.01 151.966 1105 151.958L1105.15 151.776L1105.64 151.263C1106.3 150.623 1107.03 150.035 1107.83 149.508C1110.79 147.557 1114.41 146.377 1118.21 146.124C1120.84 145.93 1123.49 146.213 1125.97 146.952C1128.61 147.729 1131.16 149.186 1134.24 149.434C1135.81 149.532 1137.39 149.287 1138.81 148.722C1140.3 148.193 1141.74 147.489 1143.34 146.927C1144.96 146.331 1146.72 146.015 1148.5 146C1150.32 145.998 1152.13 146.153 1153.91 146.463C1160.99 147.812 1167.81 148.706 1174.04 149.417C1180.26 150.129 1185.9 150.642 1190.64 151.006C1195.38 151.37 1199.22 151.602 1201.87 151.734L1204.94 151.875H1205.73L1206 151.991Z" fill="#263238"/>
<path d="M525 73.2962C524.943 73.2842 524.888 73.2654 524.836 73.24L524.375 73.0509C523.974 72.8883 523.396 72.646 522.659 72.4273C521.805 72.1535 520.908 72.069 520.022 72.1791C519.503 72.2729 518.999 72.4378 518.521 72.6697C517.998 72.9292 517.447 73.1169 516.88 73.2282C516.301 73.2942 515.714 73.2152 515.168 72.9977C514.64 72.8145 514.148 72.5987 513.662 72.4628C512.797 72.2281 511.887 72.2681 511.043 72.578C510.472 72.7827 509.943 73.1006 509.484 73.5149C509.161 73.8104 509.014 74.0113 509 73.9995C509.031 73.9471 509.067 73.8977 509.106 73.8517C509.211 73.7154 509.325 73.587 509.448 73.4676C509.902 73.0302 510.432 72.6928 511.01 72.4746C511.871 72.1418 512.806 72.0904 513.695 72.3268C514.195 72.4598 514.69 72.6756 515.213 72.8558C515.739 73.0617 516.303 73.1375 516.861 73.0775C517.415 72.9674 517.954 72.7827 518.465 72.5278C518.955 72.295 519.472 72.1311 520.002 72.0402C520.907 71.9354 521.822 72.0361 522.687 72.3357C523.269 72.5223 523.84 72.7463 524.397 73.0066L524.847 73.2223C524.901 73.2394 524.952 73.2642 525 73.2962Z" fill="#E0E0E0"/>
<path d="M567 77.2962C566.926 77.2842 566.854 77.2654 566.785 77.24L566.179 77.0509C565.654 76.8883 564.895 76.646 563.928 76.4273C562.807 76.1535 561.629 76.069 560.466 76.1791C559.786 76.2729 559.123 76.4378 558.496 76.6697C557.81 76.9292 557.087 77.1169 556.343 77.2282C555.582 77.2942 554.812 77.2152 554.096 76.9977C553.403 76.8145 552.757 76.5987 552.118 76.4628C550.983 76.2281 549.789 76.2681 548.682 76.578C547.932 76.7827 547.238 77.1006 546.635 77.5149C546.212 77.8104 546.018 78.0113 546 77.9995C546.041 77.9471 546.087 77.8977 546.139 77.8517C546.277 77.7154 546.427 77.587 546.587 77.4676C547.183 77.0302 547.88 76.6928 548.638 76.4746C549.768 76.1418 550.995 76.0904 552.162 76.3268C552.819 76.4598 553.468 76.6756 554.154 76.8558C554.845 77.0617 555.585 77.1375 556.318 77.0775C557.045 76.9674 557.753 76.7827 558.423 76.5278C559.066 76.295 559.744 76.1311 560.44 76.0402C561.628 75.9354 562.829 76.0361 563.965 76.3357C564.729 76.5223 565.478 76.7463 566.208 77.0066L566.799 77.2223C566.87 77.2394 566.938 77.2642 567 77.2962Z" fill="#E0E0E0"/>
<path d="M542 92.2962C541.841 92.2842 541.686 92.2654 541.539 92.24L540.241 92.0509C539.115 91.8883 537.489 91.646 535.417 91.4273C533.015 91.1535 530.49 91.069 527.998 91.1791C526.541 91.2729 525.122 91.4378 523.776 91.6697C522.308 91.9292 520.758 92.1169 519.164 92.2282C517.533 92.2942 515.884 92.2152 514.348 91.9977C512.863 91.8145 511.479 91.5987 510.111 91.4628C507.679 91.2281 505.118 91.2681 502.746 91.578C501.141 91.7827 499.652 92.1006 498.36 92.5149C497.453 92.8104 497.039 93.0113 497 92.9995C497.088 92.9471 497.187 92.8977 497.297 92.8517C497.594 92.7154 497.915 92.587 498.259 92.4676C499.536 92.0302 501.029 91.6928 502.652 91.4746C505.074 91.1418 507.704 91.0904 510.204 91.3268C511.612 91.4598 513.003 91.6756 514.473 91.8558C515.954 92.0617 517.539 92.1375 519.109 92.0775C520.668 91.9674 522.184 91.7827 523.62 91.5278C524.999 91.295 526.452 91.1311 527.943 91.0402C530.488 90.9354 533.062 91.0361 535.495 91.3357C537.133 91.5223 538.738 91.7463 540.303 92.0066L541.57 92.2223C541.722 92.2394 541.866 92.2642 542 92.2962Z" fill="#E0E0E0"/>
<path d="M608 100.296C607.841 100.284 607.686 100.265 607.539 100.24L606.241 100.051C605.115 99.8883 603.489 99.646 601.417 99.4273C599.015 99.1535 596.49 99.069 593.998 99.1791C592.541 99.2729 591.122 99.4378 589.776 99.6697C588.308 99.9292 586.758 100.117 585.164 100.228C583.533 100.294 581.884 100.215 580.348 99.9977C578.863 99.8145 577.479 99.5987 576.111 99.4628C573.679 99.2281 571.118 99.2681 568.746 99.578C567.141 99.7827 565.652 100.101 564.36 100.515C563.453 100.81 563.039 101.011 563 101C563.088 100.947 563.187 100.898 563.297 100.852C563.594 100.715 563.915 100.587 564.259 100.468C565.536 100.03 567.029 99.6928 568.652 99.4746C571.074 99.1418 573.704 99.0904 576.204 99.3268C577.612 99.4598 579.003 99.6756 580.473 99.8558C581.954 100.062 583.539 100.138 585.109 100.077C586.668 99.9674 588.184 99.7827 589.62 99.5278C590.999 99.295 592.452 99.1311 593.943 99.0402C596.488 98.9354 599.062 99.0361 601.495 99.3357C603.133 99.5223 604.738 99.7463 606.303 100.007L607.57 100.222C607.722 100.239 607.866 100.264 608 100.296Z" fill="#E0E0E0"/>
<path d="M538 61.2962C537.954 61.2842 537.909 61.2654 537.867 61.24L537.492 61.0509C537.167 60.8883 536.697 60.646 536.098 60.4273C535.404 60.1535 534.675 60.069 533.955 60.1791C533.534 60.2729 533.124 60.4378 532.735 60.6697C532.311 60.9292 531.863 61.1169 531.403 61.2282C530.932 61.2942 530.455 61.2152 530.012 60.9977C529.583 60.8145 529.183 60.5987 528.788 60.4628C528.085 60.2281 527.345 60.2681 526.66 60.578C526.196 60.7827 525.766 61.1006 525.393 61.5149C525.131 61.8104 525.011 62.0113 525 61.9995C525.025 61.9471 525.054 61.8977 525.086 61.8517C525.171 61.7154 525.264 61.587 525.364 61.4676C525.732 61.0302 526.164 60.6928 526.633 60.4746C527.333 60.1418 528.092 60.0904 528.815 60.3268C529.221 60.4598 529.623 60.6756 530.048 60.8558C530.476 61.0617 530.934 61.1375 531.387 61.0775C531.838 60.9674 532.275 60.7827 532.69 60.5278C533.089 60.295 533.508 60.1311 533.939 60.0402C534.674 59.9354 535.418 60.0361 536.121 60.3357C536.594 60.5223 537.058 60.7463 537.51 61.0066L537.876 61.2223C537.92 61.2394 537.961 61.2642 538 61.2962Z" fill="#E0E0E0"/>
<path d="M712 125.296C711.919 125.284 711.84 125.265 711.764 125.24L711.101 125.051C710.526 124.888 709.694 124.646 708.636 124.427C707.408 124.153 706.117 124.069 704.843 124.179C704.099 124.273 703.373 124.438 702.686 124.67C701.935 124.929 701.143 125.117 700.328 125.228C699.495 125.294 698.652 125.215 697.867 124.998C697.108 124.814 696.4 124.599 695.701 124.463C694.458 124.228 693.149 124.268 691.937 124.578C691.116 124.783 690.356 125.101 689.695 125.515C689.232 125.81 689.02 126.011 689 126C689.045 125.947 689.096 125.898 689.152 125.852C689.303 125.715 689.468 125.587 689.643 125.468C690.296 125.03 691.059 124.693 691.889 124.475C693.127 124.142 694.471 124.09 695.749 124.327C696.468 124.46 697.179 124.676 697.931 124.856C698.688 125.062 699.498 125.138 700.3 125.077C701.097 124.967 701.872 124.783 702.606 124.528C703.311 124.295 704.053 124.131 704.815 124.04C706.116 123.935 707.432 124.036 708.675 124.336C709.512 124.522 710.333 124.746 711.133 125.007L711.78 125.222C711.858 125.239 711.932 125.264 712 125.296Z" fill="#E0E0E0"/>
<path d="M1219 83.5923C1218.82 83.5684 1218.65 83.5307 1218.49 83.48L1217.05 83.1018C1215.79 82.7767 1213.99 82.292 1211.69 81.8547C1209.02 81.307 1206.21 81.138 1203.44 81.3582C1201.82 81.5459 1200.25 81.8757 1198.75 82.3393C1197.12 82.8583 1195.4 83.2337 1193.63 83.4564C1191.81 83.5884 1189.98 83.4305 1188.28 82.9954C1186.63 82.6289 1185.09 82.1975 1183.57 81.9256C1180.87 81.4562 1178.02 81.5363 1175.38 82.1561C1173.6 82.5654 1171.95 83.2012 1170.51 84.0297C1169.5 84.6208 1169.04 85.0227 1169 84.999C1169.1 84.8942 1169.21 84.7954 1169.33 84.7035C1169.66 84.4307 1170.02 84.174 1170.4 83.9351C1171.82 83.0605 1173.48 82.3855 1175.28 81.9492C1177.97 81.2836 1180.89 81.1807 1183.67 81.6537C1185.24 81.9197 1186.78 82.3511 1188.41 82.7117C1190.06 83.1234 1191.82 83.275 1193.57 83.155C1195.3 82.9348 1196.98 82.5654 1198.58 82.0556C1200.11 81.59 1201.72 81.2621 1203.38 81.0804C1206.21 80.8708 1209.07 81.0722 1211.77 81.6714C1213.59 82.0446 1215.38 82.4927 1217.11 83.0131L1218.52 83.4446C1218.69 83.4787 1218.85 83.5284 1219 83.5923Z" fill="#E0E0E0"/>
<g filter="url(#filter0_f)">
<path d="M528.5 40.5C514.199 40.7157 504.993 40.1091 491.5 40.5L454.5 137H752.5L528.5 40.5Z" fill="url(#paint1_linear)"/>
</g>
<defs>
<filter id="filter0_f" x="414.5" y="0.365356" width="378" height="176.635" filterUnits="userSpaceOnUse" color-interpolation-filters="sRGB">
<feFlood flood-opacity="0" result="BackgroundImageFix"/>
<feBlend mode="normal" in="SourceGraphic" in2="BackgroundImageFix" result="shape"/>
<feGaussianBlur stdDeviation="20" result="effect1_foregroundBlur"/>
</filter>
<linearGradient id="paint0_linear" x1="464" y1="42.0004" x2="1737" y2="179" gradientUnits="userSpaceOnUse">
<stop stop-color="#070032"/>
<stop offset="0.361784" stop-color="#0B0337" stop-opacity="0.92"/>
<stop offset="0.529982" stop-color="#100842" stop-opacity="0.92"/>
<stop offset="0.743734" stop-color="#100553" stop-opacity="0.79"/>
<stop offset="1" stop-color="#130855" stop-opacity="0.35"/>
</linearGradient>
<linearGradient id="paint1_linear" x1="516.5" y1="31.5" x2="527.982" y2="163.502" gradientUnits="userSpaceOnUse">
<stop offset="0.0907046" stop-color="#FFF4CE" stop-opacity="0.82"/>
<stop offset="0.146886" stop-color="#FFFDF2" stop-opacity="0.56"/>
<stop offset="0.364672" stop-color="#949199" stop-opacity="0.54"/>
<stop offset="0.691335" stop-color="#484459" stop-opacity="0.49"/>
<stop offset="0.904595" stop-color="#1C1643" stop-opacity="0.26"/>
</linearGradient>
</defs>
</svg>
