<svg width="230" height="199" viewBox="0 0 230 199" fill="none" xmlns="http://www.w3.org/2000/svg">
<path d="M111.13 89.7913C106.551 86.9044 99.7082 88.6164 97.0319 93.3257C95.9567 95.1973 95.4535 97.4603 93.7731 98.7809C91.1967 100.805 87.3969 99.5642 84.2615 100.42C82.4294 101.007 80.8952 102.28 79.9797 103.972C79.0643 105.664 78.8385 107.644 79.3496 109.499C79.8744 111.149 81.0119 112.802 80.4982 114.453C79.8449 116.563 76.9449 117.171 76.0374 119.2C75.223 121.02 76.5327 123.242 78.3575 124.053C80.1823 124.864 82.2916 124.613 84.2343 124.159C86.177 123.704 88.1118 123.059 90.1057 123.138C92.3089 123.249 94.3571 124.175 96.5069 124.607C101.682 125.639 107.118 123.514 111.094 120.024C115.07 116.534 117.756 111.84 119.975 107.051" fill="#100070"/>
<g opacity="0.3">
<path opacity="0.3" d="M111.13 89.7913C106.551 86.9044 99.7082 88.6164 97.0319 93.3257C95.9567 95.1973 95.4535 97.4603 93.7731 98.7809C91.1967 100.805 87.3969 99.5642 84.2615 100.42C82.4294 101.007 80.8952 102.28 79.9797 103.972C79.0643 105.664 78.8385 107.644 79.3496 109.499C79.8744 111.149 81.0119 112.802 80.4982 114.453C79.8449 116.563 76.9449 117.171 76.0374 119.2C75.223 121.02 76.5327 123.242 78.3575 124.053C80.1823 124.864 82.2916 124.613 84.2343 124.159C86.177 123.704 88.1118 123.059 90.1057 123.138C92.3089 123.249 94.3571 124.175 96.5069 124.607C101.682 125.639 107.118 123.514 111.094 120.024C115.07 116.534 117.756 111.84 119.975 107.051" fill="white"/>
</g>
<path d="M111.106 94.893C107.345 92.3696 101.518 93.9128 99.4912 97.9698C98.2571 100.447 97.9353 103.936 95.3101 104.8C93.5268 105.387 91.5433 104.338 89.7324 104.822C87.3225 105.466 86.3933 108.723 87.469 110.98C88.5447 113.238 90.9442 114.551 93.3419 115.255C101.66 117.68 111.973 113.024 116.262 105.508" fill="#100070"/>
<path d="M153.321 93.4432C153.321 93.4432 152.816 118.962 130.992 130.035L127.942 108.803L153.321 93.4432Z" fill="#FFCB14"/>
<path d="M109.754 79.1715L105.572 87.5473L118.996 108.742L127.969 108.785L109.754 79.1715Z" fill="#263238"/>
<path d="M186.674 49.485C183.849 45.6232 179.645 42.9984 174.935 42.1561C170.225 41.3138 165.372 42.3188 161.383 44.9622L109.361 79.4202L127.963 108.789L181.314 76.3683C183.517 75.0308 185.418 73.25 186.897 71.1389C188.375 69.0279 189.399 66.6325 189.903 64.1049C190.407 61.5772 190.38 58.9724 189.824 56.4557C189.268 53.939 188.196 51.5652 186.674 49.485Z" fill="#100070"/>
<g opacity="0.8">
<path opacity="0.8" d="M186.674 49.485C183.849 45.6232 179.645 42.9984 174.935 42.1561C170.225 41.3138 165.372 42.3188 161.383 44.9622L109.361 79.4202L127.963 108.789L181.314 76.3683C183.517 75.0308 185.418 73.25 186.897 71.1389C188.375 69.0279 189.399 66.6325 189.903 64.1049C190.407 61.5772 190.38 58.9724 189.824 56.4557C189.268 53.939 188.196 51.5652 186.674 49.485Z" fill="white"/>
</g>
<path d="M134.055 63.0257C134.055 63.0257 110.781 52.5984 91.4469 67.6029L109.35 79.4269L134.055 63.0257Z" fill="#FFCB14"/>
<path d="M163.233 44.0165C172.605 46.7841 184.835 66.3539 183.723 74.3901C202.436 60.6532 200.298 41.0739 200.298 41.0739C180.033 32.4937 163.233 44.0165 163.233 44.0165Z" fill="#100070"/>
<path d="M200.293 41.0773L200.244 41.3569C200.208 41.538 200.161 41.8089 200.087 42.1568L199.831 43.4648L199.677 44.316L199.415 45.2353C199.235 45.8916 199.047 46.6289 198.816 47.4306L197.937 49.9921C197.762 50.4419 197.56 50.9087 197.365 51.3863C197.171 51.8639 196.985 52.3805 196.725 52.8619C196.232 53.8446 195.752 54.8948 195.101 55.9481C193.765 58.2641 192.165 60.4177 190.334 62.3658C189.319 63.4533 188.232 64.4716 187.08 65.4138C186.493 65.914 185.867 66.378 185.274 66.8816C184.636 67.3682 183.972 67.8213 183.286 68.2391C177.827 71.6966 171.781 75.4282 165.45 79.3403C152.749 87.1743 141.23 94.2217 132.89 99.316C128.721 101.859 125.344 103.915 123.004 105.337C121.853 106.066 120.928 106.592 120.281 106.986C119.98 107.177 119.743 107.327 119.592 107.422C119.442 107.518 119.356 107.572 119.356 107.572C119.356 107.572 119.437 107.521 119.592 107.422C119.748 107.323 119.98 107.177 120.281 106.986C120.894 106.598 121.792 106.029 122.987 105.31C125.316 103.872 128.683 101.8 132.839 99.2354C141.173 94.1073 152.671 87.0276 165.372 79.2166C171.719 75.2943 177.772 71.5734 183.214 68.1262C183.895 67.7157 184.552 67.267 185.181 66.7823C185.788 66.2773 186.408 65.8167 186.994 65.3253C188.143 64.3871 189.227 63.3729 190.24 62.2894C192.067 60.3543 193.666 58.2165 195.006 55.9176C195.64 54.8375 196.121 53.7873 196.607 52.7938C196.86 52.3016 197.024 51.7757 197.25 51.3235C197.476 50.8714 197.654 50.3899 197.828 49.9401L198.72 47.386C198.965 46.5829 199.146 45.8577 199.331 45.198L199.598 44.2753L199.775 43.4476L200.049 42.1436L200.223 41.3476L200.293 41.0773Z" fill="#263238"/>
<path d="M163.539 73.9812C168.306 72.2555 170.871 67.2655 169.267 62.8356C167.663 58.4057 162.499 56.2136 157.732 57.9392C152.965 59.6649 150.4 64.655 152.004 69.0848C153.608 73.5147 158.772 75.7069 163.539 73.9812Z" fill="#FAFAFA"/>
<path d="M169.266 62.8321C169.234 62.7948 169.208 62.7532 169.188 62.7084L169.015 62.3282L168.894 62.0428L168.693 61.7255L168.461 61.3598C168.376 61.2253 168.288 61.0855 168.196 60.9403C167.968 60.6261 167.719 60.3282 167.45 60.0487C167.127 59.7181 166.777 59.4157 166.403 59.1446C165.489 58.483 164.457 58.001 163.363 57.7243C162.04 57.3868 160.66 57.3431 159.318 57.5961C158.951 57.6626 158.588 57.7539 158.233 57.8692C158.053 57.9303 157.866 57.9807 157.687 58.0419L157.151 58.2678L156.877 58.3814L156.629 58.5381C156.463 58.6437 156.274 58.7258 156.1 58.8207C155.927 58.9155 155.761 59.0353 155.589 59.1443L155.331 59.3078L155.085 59.5016C153.713 60.5688 152.679 62.0089 152.105 63.6493C151.463 65.4013 151.458 67.3239 152.093 69.0788C152.728 70.8338 153.961 72.3087 155.575 73.2443C157.071 74.1255 158.787 74.5603 160.521 74.4973L160.827 74.4921L161.135 74.4552L161.735 74.3915L162.321 74.2692L162.612 74.2054L162.898 74.122L163.453 73.9513C163.633 73.8902 163.805 73.8041 163.981 73.7376C164.327 73.5945 164.664 73.4314 164.99 73.2491C166.187 72.5912 167.224 71.6771 168.027 70.5721C168.97 69.2846 169.542 67.7627 169.679 66.1726C169.708 65.7836 169.713 65.3932 169.692 65.0037C169.671 64.8284 169.672 64.6624 169.651 64.51L169.576 64.0826L169.507 63.7119L169.425 63.4168L169.31 63.0079C169.295 62.9624 169.285 62.9154 169.281 62.8677L169.356 62.9861L169.488 63.3847L169.581 63.6872L169.656 64.0545L169.739 64.4838L169.79 64.9795C169.816 65.3759 169.816 65.7735 169.79 66.1699C169.751 66.635 169.679 67.0966 169.572 67.5511C169.302 68.6597 168.821 69.7061 168.156 70.6334C167.353 71.765 166.307 72.7029 165.095 73.3787C164.766 73.5689 164.424 73.7374 164.073 73.8828C163.891 73.9528 163.72 74.0388 163.535 74.1034C163.349 74.1679 163.157 74.2217 162.965 74.2755L162.682 74.3642L162.391 74.4281L161.792 74.5518L161.181 74.6223L160.867 74.6626L160.553 74.6659C158.786 74.7391 157.035 74.2982 155.514 73.3965C153.86 72.4434 152.597 70.9363 151.947 69.1417C151.297 67.3471 151.302 65.3804 151.962 63.5894C152.557 61.9226 153.622 60.4634 155.027 59.3872L155.291 59.2203L155.554 59.0534C155.726 58.9444 155.904 58.832 156.092 58.7128C156.28 58.5935 156.436 58.4947 156.657 58.4151L156.91 58.255L157.186 58.1326C157.368 58.0627 157.552 57.984 157.73 57.9087C157.909 57.8334 158.102 57.7937 158.291 57.7346C158.651 57.6176 159.02 57.5276 159.394 57.4654C160.758 57.2086 162.161 57.2589 163.503 57.6128C164.609 57.901 165.648 58.399 166.565 59.0796C166.941 59.3571 167.293 59.6661 167.617 60.0031C167.885 60.2887 168.133 60.5925 168.359 60.9123C168.454 61.0629 168.543 61.2027 168.628 61.3372L168.863 61.7083L169.064 62.0256L169.179 62.3144L169.336 62.7048L169.266 62.8321Z" fill="#263238"/>
<path d="M157.092 57.793C157 57.851 155.994 56.1673 154.37 54.4003C152.746 52.6334 151.17 51.4768 151.235 51.39C151.638 51.5496 152.01 51.7783 152.334 52.0656C153.995 53.321 155.411 54.8711 156.511 56.6386C156.766 56.9893 156.962 57.3793 157.092 57.793Z" fill="#263238"/>
<path d="M172.142 81.5297C171.858 81.0875 171.618 80.6181 171.427 80.1284C171.013 79.2604 170.434 78.06 169.742 76.7652C169.05 75.4704 168.359 74.3328 167.858 73.5051C167.554 73.0782 167.293 72.6225 167.079 72.1447C167.463 72.5039 167.795 72.9154 168.064 73.3669C168.794 74.4115 169.462 75.498 170.065 76.6209C170.665 77.7322 171.201 78.8769 171.671 80.0493C171.889 80.5214 172.047 81.0186 172.142 81.5297Z" fill="#263238"/>
<path d="M142.085 100.794C142.005 100.699 141.939 100.594 141.887 100.482L141.395 99.5504L139.575 96.1293C138.024 93.2532 135.797 89.321 133.139 85.135C130.48 80.9491 127.857 77.2372 125.911 74.6044L123.588 71.5089L122.962 70.6624C122.881 70.5686 122.815 70.4635 122.764 70.3505C122.862 70.4273 122.949 70.5166 123.023 70.6162L123.705 71.4198C124.291 72.1187 125.12 73.1536 126.099 74.4251C128.101 77.0151 130.749 80.6957 133.428 84.914C136.107 89.1322 138.322 93.1171 139.797 96.0038C140.548 97.4642 141.132 98.647 141.517 99.4808L141.957 100.438C142.016 100.55 142.058 100.67 142.085 100.794Z" fill="#263238"/>
<path d="M150.03 63.3587C149.987 63.386 149.855 63.2133 149.567 63.2225C149.49 63.2208 149.414 63.2356 149.344 63.2659C149.273 63.2963 149.21 63.3415 149.158 63.3984C149.11 63.4676 149.082 63.5497 149.08 63.6344C149.077 63.7191 149.099 63.8027 149.144 63.8749C149.178 63.9536 149.236 64.0205 149.308 64.0671C149.38 64.1137 149.465 64.138 149.551 64.1369C149.627 64.1262 149.7 64.0994 149.765 64.0583C149.83 64.0172 149.885 63.9627 149.927 63.8985C150.095 63.664 150.026 63.4593 150.076 63.4428C150.126 63.4263 150.313 63.6391 150.149 64.022C150.098 64.1331 150.021 64.2308 149.926 64.307C149.83 64.3833 149.718 64.4361 149.598 64.4612C149.443 64.4834 149.285 64.4554 149.147 64.3813C149.01 64.3072 148.899 64.1909 148.832 64.0495C148.767 63.9326 148.735 63.7996 148.742 63.6657C148.748 63.5318 148.793 63.4025 148.869 63.2925C148.946 63.1826 149.052 63.0965 149.176 63.0441C149.299 62.9917 149.435 62.9752 149.567 62.9964C150.002 63.0525 150.081 63.3564 150.03 63.3587Z" fill="#263238"/>
<path d="M150.636 71.9419C150.588 71.9726 150.456 71.8 150.168 71.8091C150.092 71.8081 150.018 71.823 149.948 71.8527C149.879 71.8824 149.816 71.9263 149.765 71.9816C149.714 72.0503 149.684 72.1329 149.681 72.2185C149.677 72.3041 149.699 72.3888 149.745 72.4615C149.781 72.54 149.839 72.6062 149.913 72.6522C149.986 72.6981 150.071 72.7217 150.157 72.7202C150.232 72.7084 150.303 72.6814 150.367 72.641C150.431 72.6006 150.486 72.5475 150.528 72.4851C150.693 72.2453 150.623 72.0405 150.673 72.024C150.723 72.0075 150.911 72.2203 150.746 72.6033C150.696 72.7137 150.621 72.8108 150.526 72.8865C150.431 72.9622 150.32 73.0145 150.201 73.0391C150.046 73.0618 149.887 73.0344 149.749 72.961C149.61 72.8875 149.498 72.7719 149.43 72.6307C149.356 72.5115 149.32 72.3732 149.324 72.2331C149.329 72.0931 149.375 71.9575 149.456 71.8433C149.537 71.7291 149.65 71.6414 149.781 71.5912C149.912 71.5409 150.055 71.5303 150.191 71.5606C150.603 71.6391 150.704 71.9294 150.636 71.9419Z" fill="#263238"/>
<path d="M158.051 77.1399C158.002 77.1705 157.874 77.0033 157.582 77.0071C157.507 77.0061 157.432 77.0209 157.362 77.0506C157.293 77.0803 157.23 77.1242 157.179 77.1795C157.13 77.2502 157.102 77.3336 157.099 77.4197C157.096 77.5058 157.118 77.591 157.162 77.6648C157.197 77.7433 157.255 77.8095 157.328 77.8547C157.401 77.8998 157.486 77.922 157.571 77.9181C157.646 77.9063 157.717 77.8794 157.781 77.8389C157.845 77.7985 157.9 77.7455 157.943 77.6831C158.11 77.4486 158.038 77.2385 158.093 77.2186C158.148 77.1987 158.325 77.4183 158.161 77.8012C158.113 77.9131 158.038 78.0118 157.944 78.0886C157.85 78.1655 157.738 78.2183 157.619 78.2424C157.463 78.2624 157.304 78.2333 157.165 78.1592C157.027 78.0851 156.914 77.9695 156.844 77.8287C156.766 77.6933 156.733 77.5365 156.75 77.3811C156.766 77.2257 156.832 77.0795 156.937 76.9637C157.024 76.8787 157.13 76.8158 157.246 76.7801C157.363 76.7444 157.486 76.737 157.606 76.7586C158.017 76.8371 158.096 77.1409 158.051 77.1399Z" fill="#263238"/>
<path d="M164.781 76.0946C164.738 76.1218 164.606 75.9492 164.314 75.953C164.238 75.9536 164.163 75.97 164.093 76.0012C164.023 76.0324 163.961 76.0777 163.909 76.1342C163.858 76.2029 163.829 76.2855 163.825 76.3711C163.822 76.4567 163.844 76.5414 163.889 76.6141C163.925 76.6916 163.983 76.7568 164.056 76.8018C164.129 76.8468 164.213 76.8696 164.298 76.8674C164.373 76.8556 164.444 76.8287 164.508 76.7882C164.572 76.7478 164.627 76.6948 164.669 76.6324C164.837 76.3979 164.773 76.1897 164.82 76.1679C164.866 76.146 165.052 76.3676 164.891 76.7559C164.841 76.8666 164.766 76.9639 164.671 77.0397C164.576 77.1155 164.464 77.1676 164.345 77.1917C164.191 77.2129 164.033 77.1844 163.896 77.1105C163.758 77.0365 163.647 76.9208 163.58 76.78C163.501 76.644 163.467 76.4866 163.483 76.3303C163.499 76.174 163.564 76.0267 163.669 75.9096C163.756 75.825 163.862 75.7624 163.979 75.7267C164.095 75.6911 164.218 75.6835 164.338 75.7045C164.744 75.7864 164.823 76.0903 164.781 76.0946Z" fill="#263238"/>
<path d="M153.833 57.6797C153.79 57.7069 153.658 57.5343 153.37 57.5435C153.293 57.5433 153.217 57.5589 153.147 57.5891C153.077 57.6194 153.014 57.6637 152.961 57.7193C152.911 57.7884 152.882 57.8708 152.878 57.9562C152.875 58.0417 152.897 58.1262 152.941 58.1992C152.979 58.2767 153.037 58.3421 153.11 58.3879C153.183 58.4336 153.267 58.4579 153.354 58.4579C153.429 58.4476 153.501 58.4213 153.565 58.3808C153.629 58.3402 153.683 58.2864 153.725 58.2229C153.893 57.9884 153.829 57.7802 153.878 57.7637C153.928 57.7472 154.11 57.9634 153.946 58.3464C153.896 58.4571 153.821 58.5544 153.726 58.6302C153.631 58.706 153.52 58.7581 153.401 58.7822C153.246 58.8044 153.088 58.7764 152.95 58.7023C152.812 58.6282 152.702 58.5119 152.635 58.3704C152.556 58.2345 152.522 58.0771 152.538 57.9208C152.554 57.7645 152.62 57.6172 152.724 57.5001C152.812 57.4151 152.919 57.3525 153.036 57.3178C153.153 57.283 153.277 57.277 153.397 57.3004C153.799 57.3769 153.879 57.6807 153.833 57.6797Z" fill="#263238"/>
<path d="M171.069 68.8789C171.112 68.8516 171.244 69.0243 171.532 69.0151C171.609 69.0168 171.685 69.002 171.756 68.9716C171.826 68.9413 171.889 68.8961 171.941 68.8392C171.989 68.7695 172.017 68.6872 172.021 68.6022C172.024 68.5171 172.004 68.4329 171.961 68.3593C171.925 68.2819 171.867 68.2166 171.794 68.1717C171.721 68.1267 171.637 68.1039 171.552 68.106C171.476 68.1146 171.403 68.1402 171.339 68.1809C171.275 68.2216 171.221 68.2764 171.181 68.3411C171.013 68.5755 171.077 68.7837 171.027 68.8002C170.977 68.8167 170.795 68.6005 170.959 68.2176C171.009 68.1068 171.084 68.0095 171.179 67.9337C171.274 67.8579 171.385 67.8058 171.504 67.7817C171.659 67.7595 171.817 67.7875 171.955 67.8616C172.093 67.9357 172.203 68.052 172.27 68.1935C172.344 68.3127 172.38 68.4511 172.376 68.5911C172.371 68.7312 172.325 68.8667 172.244 68.9809C172.163 69.0951 172.05 69.1828 171.919 69.233C171.788 69.2833 171.645 69.2939 171.509 69.2636C171.097 69.1851 171.023 68.8778 171.069 68.8789Z" fill="#263238"/>
<path d="M169.726 59.8352C169.769 59.8079 169.901 59.9805 170.189 59.9714C170.266 59.9715 170.342 59.956 170.412 59.9257C170.482 59.8955 170.545 59.8512 170.598 59.7955C170.647 59.7246 170.674 59.6413 170.677 59.5553C170.68 59.4693 170.658 59.3843 170.615 59.3102C170.578 59.2328 170.52 59.1676 170.448 59.1226C170.375 59.0776 170.291 59.0548 170.205 59.0569C170.131 59.0687 170.059 59.0957 169.996 59.1361C169.932 59.1765 169.877 59.2296 169.834 59.292C169.661 59.5299 169.734 59.74 169.684 59.7565C169.634 59.773 169.447 59.5602 169.616 59.1738C169.667 59.0421 169.755 58.9283 169.87 58.8473C169.986 58.7662 170.123 58.7215 170.264 58.7189C170.405 58.7163 170.543 58.7559 170.662 58.8327C170.78 58.9095 170.872 59.0199 170.927 59.1498C171.006 59.2852 171.039 59.4419 171.022 59.5973C171.005 59.7528 170.94 59.8989 170.835 60.0147C170.747 60.0993 170.641 60.162 170.525 60.1976C170.409 60.2333 170.286 60.2409 170.166 60.2199C169.755 60.1414 169.675 59.8375 169.726 59.8352Z" fill="#263238"/>
<path d="M162.175 54.8371C162.218 54.8099 162.35 54.9825 162.638 54.9734C162.715 54.9735 162.79 54.958 162.861 54.9277C162.931 54.8975 162.994 54.8531 163.047 54.7975C163.095 54.7266 163.123 54.6432 163.126 54.5573C163.129 54.4713 163.107 54.3863 163.063 54.3122C163.027 54.2348 162.969 54.1695 162.897 54.1245C162.824 54.0796 162.74 54.0567 162.654 54.0589C162.58 54.0707 162.508 54.0976 162.444 54.1381C162.381 54.1785 162.326 54.2315 162.283 54.2939C162.115 54.5284 162.183 54.7419 162.133 54.7584C162.083 54.7749 161.901 54.5587 162.065 54.1758C162.115 54.044 162.204 53.9303 162.319 53.8492C162.435 53.7681 162.572 53.7234 162.713 53.7208C162.853 53.7182 162.992 53.7579 163.11 53.8347C163.229 53.9115 163.321 54.0219 163.376 54.1517C163.454 54.2871 163.487 54.4439 163.471 54.5993C163.454 54.7548 163.389 54.9009 163.284 55.0167C163.196 55.1013 163.09 55.1639 162.974 55.1996C162.857 55.2352 162.734 55.2429 162.615 55.2218C162.203 55.1433 162.129 54.8361 162.175 54.8371Z" fill="#263238"/>
<path d="M140.099 77.3505L109.031 97.9103C108.601 98.197 108.301 98.6427 108.198 99.1498C108.096 99.6569 108.199 100.184 108.484 100.616C108.763 101.034 109.192 101.33 109.683 101.44C110.174 101.55 110.688 101.467 111.119 101.207C116.829 97.6812 136.031 85.812 142.812 81.5624C143.118 81.3704 143.378 81.1144 143.576 80.8121C143.773 80.5098 143.903 80.1683 143.956 79.8111C144.009 79.4539 143.984 79.0895 143.883 78.7429C143.781 78.3963 143.606 78.0757 143.37 77.8031C142.972 77.3445 142.421 77.0459 141.819 76.9627C141.218 76.8794 140.606 77.0172 140.099 77.3505Z" fill="#100070"/>
<g opacity="0.3">
<path opacity="0.3" d="M140.099 77.3505L109.031 97.9103C108.601 98.197 108.301 98.6427 108.198 99.1498C108.096 99.6569 108.199 100.184 108.484 100.616C108.763 101.034 109.192 101.33 109.683 101.44C110.174 101.55 110.688 101.467 111.119 101.207C116.829 97.6812 136.031 85.812 142.812 81.5624C143.118 81.3704 143.378 81.1144 143.576 80.8121C143.773 80.5098 143.903 80.1683 143.956 79.8111C144.009 79.4539 143.984 79.0895 143.883 78.7429C143.781 78.3963 143.606 78.0757 143.37 77.8031C142.972 77.3445 142.421 77.0459 141.819 76.9627C141.218 76.8794 140.606 77.0172 140.099 77.3505Z" fill="black"/>
</g>
<path d="M198.275 41.8655C198.225 42.025 196.554 41.6221 193.815 41.2243C192.449 41.0193 190.814 40.8645 188.997 40.7566C187.023 40.6688 185.046 40.6886 183.074 40.8159C181.107 40.9692 179.149 41.2305 177.21 41.5989C175.434 41.9706 173.827 42.348 172.502 42.7426C169.848 43.5265 168.248 44.1637 168.163 43.9834C168.079 43.803 169.61 42.9841 172.252 42.0039C173.801 41.4383 175.384 40.9739 176.993 40.6136C178.968 40.1787 180.971 39.8821 182.987 39.7259C185.001 39.6017 187.021 39.6112 189.033 39.7543C190.678 39.8835 192.312 40.1194 193.926 40.4604C196.715 41.0678 198.312 41.7445 198.275 41.8655Z" fill="white"/>
<path d="M130.506 64.3468C130.426 64.518 128.541 63.6244 125.279 62.7816L124.008 62.464C123.562 62.3547 123.092 62.2907 122.612 62.1877C121.65 61.9762 120.603 61.8705 119.51 61.7266C117.13 61.4877 114.734 61.4547 112.349 61.628C109.964 61.8347 107.6 62.2426 105.284 62.8473C104.231 63.16 103.201 63.4132 102.3 63.7877C101.837 63.9606 101.385 64.1037 100.963 64.281C100.54 64.4583 100.142 64.6274 99.7745 64.7848C96.7069 66.14 94.9615 67.2984 94.8573 67.1458C94.8164 67.0813 95.2146 66.7462 95.9872 66.1815C96.1915 66.052 96.4004 65.8821 96.6356 65.718C96.8708 65.554 97.1465 65.3944 97.4315 65.2139C98.0828 64.8072 98.7547 64.4344 99.4445 64.0971C99.8286 63.9065 100.232 63.7111 100.652 63.5055C101.072 63.2998 101.533 63.1358 101.992 62.9434C102.921 62.5431 103.951 62.2298 105.029 61.8859C109.764 60.4864 114.74 60.0944 119.635 60.7352C120.699 60.8729 121.756 61.0638 122.801 61.3073C123.287 61.4211 123.769 61.5154 124.214 61.6476L125.496 62.0414C126.232 62.2663 126.955 62.5302 127.662 62.8321C127.976 62.9577 128.273 63.0707 128.537 63.1899L129.246 63.5473C130.098 64.0246 130.536 64.2751 130.506 64.3468Z" fill="white"/>
<path d="M13.2451 106.187C13.1971 105.204 13.4518 104.229 13.9748 103.395C14.4978 102.561 15.2639 101.908 16.17 101.523C17.076 101.138 18.0783 101.04 19.0416 101.243C20.005 101.445 20.8832 101.938 21.5576 102.655C22.7814 103.945 23.5303 106.055 25.3208 106.217C26.9312 106.38 27.949 104.846 29.905 104.127C31.861 103.408 33.6098 104.373 34.6204 106.016C35.0904 106.863 35.338 107.815 35.34 108.784C35.3421 109.752 35.0985 110.706 34.6321 111.555C33.5913 113.436 32.0295 114.977 30.1343 115.993C26.1423 117.912 22.9815 117.133 19.8423 115.663C16.703 114.192 13.3826 109.747 13.2774 106.167" fill="#100070"/>
<g opacity="0.8">
<path opacity="0.8" d="M13.2451 106.187C13.1971 105.204 13.4518 104.229 13.9748 103.395C14.4978 102.561 15.2639 101.908 16.17 101.523C17.076 101.138 18.0783 101.04 19.0416 101.243C20.005 101.445 20.8832 101.938 21.5576 102.655C22.7814 103.945 23.5303 106.055 25.3208 106.217C26.9312 106.38 27.949 104.846 29.905 104.127C31.861 103.408 33.6098 104.373 34.6204 106.016C35.0904 106.863 35.338 107.815 35.34 108.784C35.3421 109.752 35.0985 110.706 34.6321 111.555C33.5913 113.436 32.0295 114.977 30.1343 115.993C26.1423 117.912 22.9815 117.133 19.8423 115.663C16.703 114.192 13.3826 109.747 13.2774 106.167" fill="white"/>
</g>
<path d="M81.2495 147.654C82.7756 147.527 84.304 147.87 85.6299 148.636C86.9558 149.402 88.0158 150.555 88.668 151.941C89.3202 153.326 89.5333 154.878 89.2788 156.388C89.0243 157.898 88.3144 159.294 87.2442 160.39C85.2992 162.375 82.0653 163.67 81.8856 166.444C81.726 168.964 84.1899 170.463 85.4335 173.473C86.677 176.483 85.2767 179.269 82.7651 180.943C80.2534 182.616 76.8455 182.59 74.1243 181.292C71.1277 179.781 68.6294 177.439 66.9282 174.546C63.6962 168.433 64.7223 163.45 66.824 158.464C68.9256 153.478 75.6705 148.03 81.2495 147.654Z" fill="#100070"/>
<g opacity="0.8">
<path opacity="0.8" d="M81.2495 147.654C82.7756 147.527 84.304 147.87 85.6299 148.636C86.9558 149.402 88.0158 150.555 88.668 151.941C89.3202 153.326 89.5333 154.878 89.2788 156.388C89.0243 157.898 88.3144 159.294 87.2442 160.39C85.2992 162.375 82.0653 163.67 81.8856 166.444C81.726 168.964 84.1899 170.463 85.4335 173.473C86.677 176.483 85.2767 179.269 82.7651 180.943C80.2534 182.616 76.8455 182.59 74.1243 181.292C71.1277 179.781 68.6294 177.439 66.9282 174.546C63.6962 168.433 64.7223 163.45 66.824 158.464C68.9256 153.478 75.6705 148.03 81.2495 147.654Z" fill="white"/>
</g>
<path d="M61.3484 99.3647C60.6044 98.9276 59.7543 98.704 58.8915 98.7187C58.0287 98.7335 57.1866 98.9859 56.458 99.4482C55.6653 99.9881 55.068 100.769 54.7548 101.676C54.4417 102.582 54.4293 103.566 54.7196 104.48C55.01 105.394 55.5874 106.19 56.3663 106.75C57.1451 107.309 58.0838 107.603 59.0427 107.587C60.0017 107.57 60.9298 107.245 61.6891 106.659C62.4484 106.073 62.9984 105.258 63.2574 104.334C63.5164 103.411 63.4705 102.428 63.1266 101.533C62.7826 100.638 62.159 99.8774 61.3484 99.3647Z" fill="#100070"/>
<g opacity="0.8">
<path opacity="0.8" d="M61.3484 99.3647C60.6044 98.9276 59.7543 98.704 58.8915 98.7187C58.0287 98.7335 57.1866 98.9859 56.458 99.4482C55.6653 99.9881 55.068 100.769 54.7548 101.676C54.4417 102.582 54.4293 103.566 54.7196 104.48C55.01 105.394 55.5874 106.19 56.3663 106.75C57.1451 107.309 58.0838 107.603 59.0427 107.587C60.0017 107.57 60.9298 107.245 61.6891 106.659C62.4484 106.073 62.9984 105.258 63.2574 104.334C63.5164 103.411 63.4705 102.428 63.1266 101.533C62.7826 100.638 62.159 99.8774 61.3484 99.3647Z" fill="white"/>
</g>
<path d="M52.4659 185.108C52.0933 184.891 51.6685 184.781 51.2375 184.788C50.8064 184.795 50.3856 184.921 50.0207 185.15C49.6224 185.42 49.3221 185.812 49.1643 186.266C49.0065 186.721 48.9997 187.215 49.145 187.673C49.2902 188.132 49.5797 188.532 49.9704 188.813C50.3611 189.094 50.8321 189.241 51.3133 189.233C51.7945 189.225 52.2602 189.062 52.6411 188.767C53.022 188.473 53.2977 188.064 53.4272 187.6C53.5567 187.137 53.5331 186.644 53.3599 186.195C53.1867 185.746 52.8731 185.365 52.4659 185.108Z" fill="#100070"/>
<g opacity="0.8">
<path opacity="0.8" d="M52.4659 185.108C52.0933 184.891 51.6685 184.781 51.2375 184.788C50.8064 184.795 50.3856 184.921 50.0207 185.15C49.6224 185.42 49.3221 185.812 49.1643 186.266C49.0065 186.721 48.9997 187.215 49.145 187.673C49.2902 188.132 49.5797 188.532 49.9704 188.813C50.3611 189.094 50.8321 189.241 51.3133 189.233C51.7945 189.225 52.2602 189.062 52.6411 188.767C53.022 188.473 53.2977 188.064 53.4272 187.6C53.5567 187.137 53.5331 186.644 53.3599 186.195C53.1867 185.746 52.8731 185.365 52.4659 185.108Z" fill="white"/>
</g>
</svg>
