<svg width="188" height="188" viewBox="0 0 188 188" fill="none" xmlns="http://www.w3.org/2000/svg">
<path d="M177.848 165.094C177.772 165.079 177.697 165.055 177.626 165.023L177.002 164.782C176.461 164.575 175.679 164.267 174.682 163.989C173.527 163.64 172.312 163.533 171.114 163.673C170.413 163.792 169.731 164.002 169.084 164.297C168.377 164.627 167.632 164.866 166.865 165.008C166.081 165.092 165.288 164.991 164.549 164.714C163.835 164.481 163.169 164.207 162.511 164.034C161.342 163.735 160.11 163.786 158.969 164.18C158.197 164.441 157.481 164.845 156.86 165.372C156.424 165.748 156.224 166.004 156.206 165.989C156.248 165.922 156.296 165.859 156.348 165.801C156.491 165.627 156.646 165.464 156.811 165.312C157.425 164.756 158.143 164.326 158.924 164.049C160.089 163.625 161.354 163.56 162.556 163.861C163.233 164.03 163.902 164.305 164.609 164.534C165.321 164.796 166.084 164.892 166.839 164.816C167.589 164.676 168.318 164.441 169.008 164.117C169.672 163.82 170.371 163.612 171.088 163.496C172.311 163.363 173.549 163.491 174.72 163.872C175.507 164.11 176.279 164.395 177.032 164.726L177.641 165C177.714 165.022 177.784 165.053 177.848 165.094Z" fill="#E0E0E0"/>
<path d="M166.812 56.118C166.812 56.118 166.7 56.0879 166.493 56.0466C166.205 55.989 165.91 55.9814 165.62 56.024C165.193 56.0847 164.789 56.2616 164.455 56.5354C164.047 56.8717 163.758 57.3305 163.631 57.8438L163.579 58.0394L163.504 57.8551C163.324 57.4108 163.024 57.0253 162.637 56.7418C162.251 56.4583 161.793 56.2878 161.315 56.2496C160.915 56.2292 160.514 56.2801 160.131 56.4C160.224 56.3417 160.326 56.2974 160.432 56.2684C160.719 56.1796 161.019 56.1427 161.319 56.1594C161.769 56.1783 162.206 56.3158 162.586 56.5579C163.054 56.8569 163.417 57.2929 163.628 57.8062H163.504C163.634 57.2645 163.941 56.7815 164.376 56.4339C164.671 56.1978 165.017 56.0346 165.387 55.9576C165.757 55.8805 166.139 55.8916 166.504 55.9902C166.614 56.0134 166.718 56.0568 166.812 56.118Z" fill="#E0E0E0"/>
<path d="M128.69 40.4651C128.601 40.5829 128.504 40.6947 128.4 40.7998C127.266 42.1015 126.639 43.7692 126.637 45.496V45.5449H126.505C126.306 44.2494 125.703 43.0496 124.783 42.1158C124.398 41.736 123.977 41.3935 123.527 41.0931C123.563 41.1048 123.597 41.1212 123.629 41.1419C123.726 41.1907 123.82 41.2446 123.911 41.3036C124.251 41.5194 124.566 41.7715 124.851 42.0556C125.807 42.991 126.434 44.2115 126.637 45.5336H126.505V45.496C126.497 44.1514 126.882 42.8337 127.614 41.7059C127.833 41.3661 128.085 41.0487 128.366 40.7584C128.464 40.6531 128.551 40.5817 128.603 40.5291C128.656 40.4764 128.686 40.4614 128.69 40.4651Z" fill="#E0E0E0"/>
<path d="M82.7464 45.6953C82.7464 45.6953 85.9913 100.719 115.316 131.371L81.3176 130.352L82.7464 45.6953Z" fill="#F5F5F5"/>
<path d="M82.7464 45.6953C82.7464 46.639 82.1749 82.0808 81.4116 130.355L81.3213 130.258L102.61 130.893L115.315 131.269L115.244 131.435C110.877 126.776 107.012 121.672 103.712 116.207C100.662 111.165 97.995 105.901 95.7334 100.46C91.9475 91.3374 88.967 81.9015 86.826 72.2597C85.3733 65.8432 84.2438 59.3578 83.442 52.828C83.1637 50.5269 82.9908 48.7409 82.8893 47.5339C82.8366 46.9285 82.8065 46.4661 82.7877 46.154C82.7877 46.0036 82.7877 45.887 82.7652 45.8081V45.6877C82.7652 45.8081 82.8253 46.3533 82.9306 47.5301C83.0359 48.707 83.2239 50.5381 83.5134 52.8205C84.1037 57.4114 85.1077 64.0704 86.9689 72.2296C89.1197 81.857 92.1012 91.2797 95.8801 100.392C98.1457 105.822 100.814 111.076 103.863 116.109C107.157 121.561 111.014 126.652 115.372 131.299L115.534 131.468H115.3L102.595 131.092L81.3025 130.453H81.2161V130.359C82.0921 82.0808 82.7201 46.624 82.7464 45.6953Z" fill="#263238"/>
<path d="M101.727 112.886C100.572 117.485 94.3835 115.229 91.4544 112.789C90.0181 111.589 88.9691 109.999 87.6944 108.626C86.4198 107.254 84.7842 106.04 82.9117 105.994L82.7388 118.959C82.7388 118.959 85.2617 116.902 89.7662 121.362C94.2707 125.821 99.2188 126.49 102.174 124.219C105.13 121.948 105.874 119.685 105.874 119.685L101.727 112.886Z" fill="white"/>
<path d="M21.0747 128.299C21.0747 128.299 29.8317 61.4948 81.5693 45.3795L81.528 51.9933C81.528 51.9933 65.469 87.6795 81.3174 130.871L21.0747 128.299Z" fill="#F5F5F5"/>
<path d="M48.222 76.8281C48.2671 76.8582 46.9474 78.8322 45.2779 81.2386C43.6085 83.645 42.221 85.5701 42.1759 85.54C42.1308 85.51 43.4506 83.5322 45.12 81.1258C46.7894 78.7194 48.1769 76.798 48.222 76.8281Z" fill="#263238"/>
<path d="M24.3347 113.552C27.9857 116.161 33.3174 116.094 37.3744 114.176C41.4314 112.259 44.65 108.972 47.7482 105.727C50.8465 102.483 54.0011 99.1512 57.9867 97.0795C60.4709 95.8141 63.1912 95.0794 65.9746 94.9221C68.7581 94.7648 71.5438 95.1883 74.1547 96.1658L74.4254 96.2974C74.4254 96.2974 74.4254 86.8109 74.4856 85.5438C74.4856 85.5438 68.9772 83.6149 65.2586 83.081C61.0737 82.4794 53.4371 83.5322 46.7255 90.601C40.8486 96.7975 35.1974 104.998 28.3015 101.452C26.8426 105.686 25.4966 109.736 24.3347 113.552Z" fill="white"/>
<path d="M21.0747 128.299L81.3212 130.788L81.2385 130.897C73.4373 109.621 72.121 86.5086 77.4559 64.484C78.4597 60.2101 79.796 56.0213 81.4528 51.9557V51.9933C81.4678 49.7574 81.4816 47.5528 81.4942 45.3795L81.622 45.4697C74.537 47.6785 67.8429 50.9862 61.7842 55.272C56.2218 59.2364 51.1956 63.9037 46.8307 69.1577C42.9089 73.8594 39.4276 78.9115 36.4306 84.2504C33.8334 88.862 31.5327 93.6343 29.5422 98.5384C26.6825 105.569 24.3843 112.814 22.6689 120.207C22.0636 122.805 21.6763 124.836 21.4281 126.223C21.3116 126.911 21.2213 127.434 21.1612 127.791C21.101 128.148 21.0747 128.321 21.0747 128.321C21.0747 128.321 21.0935 128.141 21.1424 127.787C21.1913 127.434 21.274 126.908 21.3905 126.219C21.6274 124.84 22.0072 122.809 22.6013 120.203C24.2905 112.798 26.5713 105.541 29.4219 98.5008C31.408 93.5894 33.705 88.8095 36.299 84.1902C39.2948 78.8388 42.7762 73.7741 46.6991 69.06C51.0732 63.7976 56.1081 59.1217 61.679 55.148C67.7442 50.8521 74.4457 47.5343 81.5393 45.3156L81.6671 45.278V45.4096C81.6521 47.5828 81.6383 49.7887 81.6258 52.0272V52.046C79.9741 56.1004 78.6428 60.278 77.6439 64.5404C72.3205 86.5305 73.6289 109.605 81.4039 130.852L81.4453 130.968H81.3212L21.0747 128.299Z" fill="#263238"/>
<path d="M65.2586 55.8285L65.127 55.9451L64.7284 56.2722L63.1868 57.5243L62.0588 58.4229C61.6565 58.7613 61.2354 59.1448 60.7729 59.5509C59.863 60.3668 58.7876 61.2542 57.6972 62.3408L55.9526 64.014C55.3472 64.6006 54.7607 65.2473 54.129 65.894C52.8544 67.1762 51.5985 68.6501 50.2562 70.1804C44.5287 76.9177 39.7308 84.3928 35.9908 92.4058C35.1598 94.2632 34.3401 96.0154 33.7047 97.7111C33.3776 98.5571 33.0316 99.3618 32.7534 100.151C32.4752 100.941 32.212 101.708 31.9563 102.434C31.4224 103.881 31.0614 105.227 30.7004 106.393C30.5275 106.98 30.3545 107.521 30.2154 108.029C30.0763 108.536 29.9672 108.999 29.862 109.42C29.6476 110.243 29.486 110.89 29.3656 111.337L29.234 111.837C29.2002 111.95 29.1814 112.007 29.1814 112.007C29.1814 112.007 29.1814 111.946 29.2115 111.834C29.2416 111.721 29.2792 111.544 29.328 111.33C29.4371 110.879 29.5912 110.232 29.7868 109.401C29.8883 108.98 30.0011 108.514 30.1252 108.006C30.2492 107.498 30.426 106.953 30.5952 106.363C30.9486 105.19 31.302 103.84 31.8284 102.389C32.0766 101.659 32.3398 100.885 32.6105 100.099C32.8812 99.3129 33.2309 98.5007 33.5543 97.651C34.186 95.9514 34.9981 94.1918 35.8103 92.3268C39.5404 84.2917 44.3472 76.802 50.0983 70.0638C51.4519 68.5335 52.7115 67.0558 53.9936 65.7812C54.6291 65.1345 55.2194 64.484 55.8285 63.9012L57.5807 62.2318C58.6824 61.1526 59.7652 60.2691 60.6827 59.4607C61.1489 59.0621 61.5738 58.6823 61.9799 58.3327L63.1079 57.4453L64.672 56.2233L65.0781 55.9112C65.1364 55.8798 65.1967 55.8521 65.2586 55.8285Z" fill="#263238"/>
<path d="M78.2644 78.5088C78.2644 78.5088 79.133 77.5613 79.3924 77.5387C79.6518 77.5162 82.3628 78.3283 82.3628 78.3283C82.676 78.3869 82.9688 78.5255 83.2126 78.7306C83.457 79.0164 85.8446 81.7086 85.8446 81.7086L87.5591 82.5546L85.9837 86.5326L83.1637 84.5323C83.1637 84.5323 79.6819 83.9082 79.3811 83.5434C79.0803 83.1787 78.8322 82.5922 79.0578 82.4154C78.9075 82.1585 78.8368 81.8628 78.8547 81.5657C78.9031 81.3569 78.9634 81.151 79.0352 80.949C79.0352 80.949 78.5088 80.5731 78.49 80.3136C78.4847 80.1727 78.4502 80.0344 78.3885 79.9075L78.2682 79.7083L78.2644 78.5088Z" fill="#FFBE9D"/>
<path d="M79.4752 79.0765C79.4752 79.0765 79.4752 79.1705 79.4263 79.3021C79.3628 79.4819 79.2493 79.6397 79.0992 79.7571C79.0217 79.8169 78.9322 79.8593 78.8368 79.8814C78.7414 79.9034 78.6424 79.9046 78.5465 79.8849C78.3998 79.8473 78.3397 79.7684 78.3509 79.7571C78.3622 79.7458 78.4337 79.7872 78.5615 79.7985C78.7279 79.8088 78.8924 79.758 79.024 79.6556C79.1542 79.5515 79.2639 79.424 79.3473 79.2796C79.415 79.148 79.4601 79.069 79.4752 79.0765Z" fill="#EB996E"/>
<path d="M84.3857 80.5617L79.336 77.7681C79.336 77.7681 78.8133 78.3208 79.5315 79.0841C80.0903 79.6406 80.6995 80.1441 81.3513 80.5881L82.7463 83.081L84.3857 80.5617Z" fill="#FFBE9D"/>
<path d="M118.406 76.0573H122.012L125.223 75.279C125.223 75.279 127.182 84.2052 128.111 87.6118C129.04 91.0184 139.049 102.276 139.357 103.092C139.665 103.908 139.462 107.529 135.127 108.563C130.792 109.597 128.419 107.841 127.284 109.905C126.666 111.048 125.977 112.151 125.219 113.206L102.859 115.146L105.919 98.8392L107.047 78.4788L110.879 73.7336L118.406 76.0573Z" fill="#FFCB14"/>
<g opacity="0.3">
<path opacity="0.3" d="M118.406 76.0573H122.012L125.223 75.279C125.223 75.279 127.182 84.2052 128.111 87.6118C129.04 91.0184 139.049 102.276 139.357 103.092C139.665 103.908 139.462 107.529 135.127 108.563C130.792 109.597 128.419 107.841 127.284 109.905C126.666 111.048 125.977 112.151 125.219 113.206L102.859 115.146L105.919 98.8392L107.047 78.4788L110.879 73.7336L118.406 76.0573Z" fill="black"/>
</g>
<path d="M143.418 48.3536L142.015 52.2189L141.541 52.8618C141.541 52.8618 141.094 55.0201 141.06 55.4938C141.026 55.9676 141.579 58.389 141.579 58.389L140.192 60.5134L143.884 62.0174C143.884 62.0174 144.929 60.0697 145.215 59.8517C145.531 59.4928 145.731 59.0474 145.79 58.5733C145.865 58.1446 146.475 55.5991 146.475 55.5991C146.475 55.5991 148.178 52.8167 147.494 52.6588C147.321 52.6388 147.147 52.6388 146.975 52.6588C146.975 52.6588 145.944 54.4937 145.678 54.5388L145.302 54.3094C145.302 54.3094 146.132 51.4894 146.181 50.9593C146.23 50.4291 146.132 50.0569 145.723 49.9854C145.723 49.9854 145.414 50.102 145.384 50.2374C145.354 50.3727 144.516 53.5198 144.343 53.4559C144.17 53.392 144.256 53.11 144.256 53.11C144.256 53.11 145.365 49.2936 145.32 49.0718C145.312 48.9188 145.245 48.7749 145.134 48.6694C145.023 48.5639 144.876 48.5047 144.722 48.504L143.891 50.5946C143.891 50.5946 144.294 48.8274 144.016 48.504C143.947 48.4157 143.851 48.353 143.743 48.3257C143.634 48.2985 143.52 48.3083 143.418 48.3536Z" fill="#FFBE9D"/>
<path d="M144.034 56.9828C144.001 56.9828 144.034 56.6519 143.914 56.1218C143.747 55.4093 143.351 54.7713 142.786 54.3057L142.733 54.2681V54.2079C142.805 53.9297 142.876 53.6327 142.955 53.3319V53.3131C143.027 53.2166 143.094 53.1162 143.155 53.0123C143.372 52.6666 143.525 52.2844 143.606 51.8843C143.645 51.711 143.645 51.5311 143.606 51.3579C143.592 51.288 143.56 51.2234 143.511 51.1715C143.462 51.1196 143.4 51.0825 143.331 51.0646L143.395 51.042C142.94 51.4594 142.56 51.794 142.29 52.0384C142.156 52.1708 142.009 52.2881 141.85 52.3881C141.959 52.2338 142.085 52.0925 142.226 51.967C142.474 51.7113 142.839 51.3503 143.279 50.9217L143.309 50.8954H143.343C143.447 50.9137 143.544 50.9623 143.622 51.0351C143.699 51.1079 143.754 51.2018 143.779 51.3052C143.822 51.506 143.822 51.7136 143.779 51.9143C143.694 52.3328 143.535 52.7326 143.309 53.095C143.244 53.2058 143.172 53.3125 143.094 53.4146V53.3807C143.015 53.6815 142.94 53.9748 142.865 54.2531L142.831 54.1553C143.424 54.6504 143.824 55.3387 143.959 56.0992C143.997 56.3151 144.009 56.5347 143.997 56.7535C144.057 56.9039 144.046 56.9866 144.034 56.9828Z" fill="#EB996E"/>
<path d="M144.094 53.8357C144.524 53.9148 144.927 54.0996 145.268 54.3734C145.645 54.5938 145.96 54.9054 146.185 55.2795C145.828 55.0474 145.485 54.7964 145.155 54.5275C144.789 54.3162 144.435 54.0852 144.094 53.8357Z" fill="#EB996E"/>
<path d="M119.696 154.818L115.274 159.33C115.274 159.33 118.376 165.346 117.643 166.252L108.581 157.98L115.184 150.667L119.696 154.818Z" fill="#FFCB14"/>
<g opacity="0.3">
<path opacity="0.3" d="M119.696 154.818L115.274 159.33C115.274 159.33 118.376 165.346 117.643 166.252L108.581 157.98L115.184 150.667L119.696 154.818Z" fill="black"/>
</g>
<path d="M112.83 156.386C112.719 156.332 112.592 156.322 112.474 156.357C112.356 156.391 112.255 156.469 112.191 156.574C112.135 156.684 112.122 156.81 112.156 156.929C112.189 157.047 112.266 157.149 112.371 157.213C112.49 157.269 112.625 157.279 112.75 157.24C112.875 157.202 112.981 157.119 113.048 157.006C113.096 156.887 113.096 156.754 113.048 156.634C112.999 156.515 112.906 156.419 112.789 156.367" fill="#E0E0E0"/>
<g opacity="0.6">
<path opacity="0.6" d="M108.581 157.995L109.277 157.285L117.688 165.47C117.688 165.47 117.932 166.012 117.628 166.256L108.581 157.995Z" fill="white"/>
</g>
<path d="M115.462 159.424C115.421 159.465 115.184 159.285 114.834 159.229C114.484 159.172 114.202 159.251 114.176 159.198C114.15 159.146 114.451 158.946 114.872 159.022C115.293 159.097 115.511 159.386 115.462 159.424Z" fill="#263238"/>
<path d="M116.056 160.68C116.026 160.732 115.767 160.631 115.447 160.68C115.127 160.729 114.902 160.89 114.857 160.849C114.812 160.808 115.015 160.529 115.417 160.473C115.819 160.417 116.094 160.635 116.056 160.68Z" fill="#263238"/>
<path d="M115.56 162.308C115.511 162.282 115.65 162.003 115.985 161.864C116.319 161.725 116.613 161.819 116.598 161.864C116.583 161.909 116.338 161.932 116.064 162.049C115.789 162.165 115.605 162.346 115.56 162.308Z" fill="#263238"/>
<path d="M116.357 158.296C116.301 158.319 116.154 158.07 115.891 157.86C115.627 157.649 115.357 157.552 115.368 157.484C115.379 157.416 115.71 157.439 116.019 157.691C116.327 157.943 116.41 158.266 116.357 158.296Z" fill="#263238"/>
<path d="M117.233 157.352C117.214 157.371 117.015 157.239 116.782 156.935C116.645 156.758 116.53 156.564 116.44 156.36C116.386 156.238 116.34 156.112 116.304 155.984C116.279 155.908 116.265 155.83 116.263 155.75C116.264 155.693 116.284 155.638 116.319 155.592C116.354 155.547 116.403 155.514 116.458 155.499C116.509 155.487 116.561 155.488 116.611 155.501C116.66 155.514 116.706 155.539 116.744 155.574C116.803 155.625 116.854 155.684 116.895 155.75C116.97 155.862 117.034 155.98 117.086 156.104C117.178 156.313 117.235 156.535 117.256 156.762C117.296 156.967 117.273 157.18 117.188 157.371C117.154 157.371 117.188 157.138 117.109 156.781C117.069 156.574 117.003 156.373 116.913 156.183C116.859 156.073 116.796 155.967 116.725 155.867C116.654 155.754 116.571 155.679 116.507 155.698C116.443 155.717 116.477 155.698 116.473 155.758C116.474 155.815 116.483 155.872 116.5 155.927C116.534 156.055 116.575 156.172 116.616 156.284C116.693 156.482 116.789 156.673 116.902 156.852C117.023 157.011 117.134 157.178 117.233 157.352Z" fill="#263238"/>
<path d="M117.116 157.364C117.094 157.364 117.15 157.115 117.398 156.815C117.544 156.641 117.717 156.493 117.91 156.375C118.029 156.307 118.155 156.25 118.286 156.205C118.364 156.168 118.451 156.151 118.538 156.157C118.625 156.163 118.709 156.191 118.782 156.239C118.822 156.277 118.851 156.325 118.864 156.379C118.877 156.432 118.875 156.488 118.857 156.54C118.832 156.614 118.797 156.683 118.752 156.747C118.676 156.864 118.582 156.968 118.474 157.055C118.295 157.202 118.081 157.302 117.853 157.345C117.477 157.42 117.229 157.303 117.24 157.285C117.435 157.271 117.629 157.243 117.819 157.202C118.015 157.143 118.196 157.043 118.35 156.909C118.44 156.83 118.518 156.739 118.583 156.638C118.654 156.529 118.688 156.42 118.643 156.393C118.597 156.372 118.547 156.361 118.496 156.361C118.446 156.361 118.396 156.372 118.35 156.393C118.234 156.43 118.121 156.477 118.015 156.536C117.829 156.636 117.659 156.763 117.511 156.912C117.252 157.168 117.146 157.379 117.116 157.364Z" fill="#263238"/>
<path d="M118.542 155.728L118.508 162.045C118.508 162.045 124.919 164.203 125.024 165.372L112.774 165.748L112.424 155.897L118.542 155.728Z" fill="#FFCB14"/>
<path d="M114.702 161.631C114.586 161.671 114.488 161.752 114.427 161.86C114.367 161.967 114.348 162.094 114.375 162.214C114.41 162.332 114.488 162.432 114.595 162.494C114.701 162.556 114.827 162.574 114.947 162.545C115.071 162.502 115.174 162.415 115.238 162.3C115.302 162.186 115.321 162.052 115.293 161.924C115.243 161.805 115.149 161.71 115.031 161.659C114.912 161.607 114.779 161.602 114.657 161.646" fill="#E0E0E0"/>
<g opacity="0.6">
<path opacity="0.6" d="M112.774 165.745V164.752H124.52C124.52 164.752 125.073 164.974 125.02 165.361L112.774 165.745Z" fill="white"/>
</g>
<path d="M118.703 161.977C118.703 162.037 118.406 162.075 118.117 162.274C117.827 162.473 117.68 162.733 117.624 162.71C117.568 162.688 117.647 162.334 118 162.105C118.353 161.876 118.714 161.924 118.703 161.977Z" fill="#263238"/>
<path d="M120.004 162.47C120.004 162.53 119.764 162.639 119.568 162.898C119.373 163.158 119.324 163.425 119.263 163.425C119.203 163.425 119.154 163.086 119.406 162.77C119.658 162.455 120.004 162.432 120.004 162.47Z" fill="#263238"/>
<path d="M120.783 163.985C120.73 163.985 120.636 163.703 120.783 163.372C120.929 163.041 121.204 162.902 121.23 162.951C121.256 163 121.087 163.18 120.974 163.455C120.862 163.729 120.843 163.977 120.783 163.985Z" fill="#263238"/>
<path d="M118.553 160.552C118.53 160.608 118.252 160.552 117.914 160.552C117.575 160.552 117.316 160.699 117.286 160.65C117.256 160.601 117.5 160.379 117.895 160.345C118.29 160.311 118.579 160.488 118.553 160.552Z" fill="#263238"/>
<path d="M118.538 159.262C118.336 159.318 118.123 159.318 117.921 159.262C117.567 159.21 117.226 159.09 116.917 158.909C116.845 158.874 116.78 158.827 116.725 158.77C116.686 158.728 116.66 158.675 116.653 158.618C116.647 158.561 116.659 158.503 116.688 158.454C116.717 158.411 116.755 158.375 116.8 158.35C116.845 158.324 116.896 158.31 116.947 158.307C117.025 158.305 117.102 158.314 117.177 158.334C117.305 158.363 117.431 158.403 117.553 158.454C117.763 158.54 117.959 158.659 118.132 158.807C118.421 159.059 118.526 159.281 118.508 159.292C118.489 159.304 118.338 159.131 118.041 158.916C117.87 158.795 117.682 158.696 117.485 158.623C117.37 158.58 117.252 158.547 117.131 158.525C117 158.495 116.891 158.499 116.857 158.555C116.823 158.612 116.857 158.589 116.857 158.623C116.898 158.664 116.945 158.699 116.996 158.725C117.103 158.79 117.213 158.849 117.327 158.901C117.521 158.99 117.722 159.061 117.929 159.112C118.135 159.146 118.339 159.197 118.538 159.262Z" fill="#263238"/>
<path d="M118.459 159.349C118.34 159.177 118.278 158.971 118.282 158.762C118.263 158.536 118.283 158.308 118.342 158.089C118.38 157.96 118.429 157.834 118.489 157.713C118.519 157.632 118.57 157.561 118.635 157.505C118.701 157.449 118.78 157.411 118.865 157.394C118.919 157.393 118.972 157.408 119.018 157.437C119.064 157.465 119.101 157.507 119.124 157.555C119.158 157.627 119.182 157.703 119.196 157.781C119.216 157.918 119.216 158.057 119.196 158.195C119.168 158.424 119.086 158.643 118.955 158.834C118.726 159.161 118.477 159.24 118.47 159.21C118.6 159.064 118.72 158.91 118.827 158.747C118.929 158.57 118.989 158.372 119.004 158.168C119.014 158.049 119.008 157.929 118.985 157.811C118.959 157.683 118.91 157.578 118.861 157.593C118.812 157.608 118.699 157.694 118.65 157.8C118.593 157.908 118.546 158.021 118.508 158.138C118.447 158.338 118.414 158.546 118.41 158.755C118.44 159.119 118.493 159.341 118.459 159.349Z" fill="#263238"/>
<path d="M125.381 103.584L135.969 129.19C136.951 131.446 137.338 133.649 136.687 135.984C136.249 137.481 135.446 138.846 134.349 139.955L118.816 158.153L114.124 151.096L126.156 134.552L120.042 121.952L121.41 103.588L125.381 103.584Z" fill="#263238"/>
<path d="M119.515 160.371L121.734 109.183V103.641L109.638 102.197C109.638 102.197 106.893 107.062 106.103 110.337C105.314 113.612 109.487 132.608 109.487 132.608L109.555 141.726L111.183 160.526L119.515 160.371Z" fill="#263238"/>
<path d="M119.515 160.371C119.474 160.371 119.921 148.715 120.519 134.356C121.117 119.997 121.647 108.341 121.677 108.344C121.707 108.348 121.275 120 120.677 134.36C120.079 148.719 119.568 160.371 119.515 160.371Z" fill="#455A64"/>
<path d="M117.312 103.419C117.299 103.509 117.271 103.597 117.229 103.678C117.136 103.908 117.023 104.13 116.891 104.34C116.451 105.037 115.847 105.615 115.131 106.024C114.413 106.431 113.606 106.653 112.781 106.671C112.53 106.678 112.278 106.661 112.029 106.622C111.937 106.617 111.847 106.595 111.762 106.558C111.762 106.532 112.138 106.596 112.762 106.558C113.564 106.514 114.344 106.285 115.041 105.889C115.739 105.493 116.336 104.941 116.786 104.276C117.143 103.776 117.282 103.4 117.312 103.419Z" fill="#455A64"/>
<path d="M129.032 134.029C129.032 134.074 128.381 134.134 127.592 134.296C126.802 134.458 126.178 134.649 126.159 134.604C126.596 134.369 127.071 134.212 127.562 134.138C128.042 134.016 128.539 133.979 129.032 134.029Z" fill="#455A64"/>
<path d="M118.339 74.0494L118.406 76.0573C118.406 76.0573 121.685 82.5395 122.809 84.2616C124.415 86.7206 126.276 89.9693 128.382 92.9096C129.393 94.3309 135.853 99.7528 138.319 102.095C138.754 102.497 139.066 103.015 139.218 103.587C139.371 104.16 139.358 104.764 139.18 105.329C139.116 105.524 138.214 106.833 138.105 106.98C138.105 106.98 141.113 104.28 140.425 102.02C139.737 99.7603 133.01 93.1126 131.472 90.2588C129.829 87.2094 127.776 82.4342 126.723 80.4114C125.671 78.3885 125.005 74.8804 125.005 74.8804L120.377 76.0084L118.339 74.0494Z" fill="#FFCB14"/>
<path d="M124.385 87.3035C124.212 87.5328 122.975 94.549 122.975 94.549L125.381 103.573C125.381 103.573 124.892 104.464 121.403 103.893C118.56 103.423 107.901 102.599 107.901 102.599L107.303 88.3111L110.232 75.6776L118.406 76.031L124.385 87.3035Z" fill="#FFBE9D"/>
<path d="M109.792 77.5425L115.902 85.6678C116.111 85.9424 116.387 86.1577 116.705 86.2921C117.022 86.4265 117.369 86.4754 117.712 86.4339C118.054 86.3925 118.379 86.2621 118.656 86.0558C118.932 85.8495 119.149 85.5744 119.286 85.258C119.294 85.2411 119.3 85.2235 119.305 85.2054C119.76 84.0247 120.628 80.2948 120.628 80.2948L124.546 87.0628L127.246 98.403C127.246 98.403 120.937 99.7754 117.741 100.249L108.446 101.618L107.265 88.4051L108.856 80.7949L109.792 77.5425Z" fill="#FAFAFA"/>
<path d="M124.892 74.9782L133.833 68.3568L139.737 59.9984L145.166 62.0062L144.869 64.3186L144.064 64.2096C142.008 67.9094 138.725 72.8087 138.21 73.6471C137.375 75.0045 127.498 84.1751 127.498 84.1751L124.892 74.9782Z" fill="#FFCB14"/>
<g opacity="0.3">
<path opacity="0.3" d="M109.393 80.3587C109.522 81.8001 109.513 83.2505 109.367 84.6902C108.754 94.4437 114.567 101.648 114.394 110.593C112.356 106.047 109.882 101.791 108.408 97.0381C106.712 91.5417 107.062 85.6172 109.393 80.3587Z" fill="black"/>
</g>
<path d="M106.002 76.0009L108.051 75.9445L110.503 74.2374L109.867 77.9749C109.867 77.9749 108.739 83.9909 108.705 87.1079C108.638 93.7518 115.06 107.701 114.612 111.642C114.612 111.642 110.555 109.852 107.273 109.491C104.126 109.145 102.859 115.206 102.859 115.206C102.859 115.206 102.347 106.893 102.885 104.566C103.412 102.616 104.07 100.704 104.855 98.8429L103.87 88.0253C103.941 88.8413 103.78 87.4576 103.78 87.4576C103.78 87.4576 98.7789 93.6465 97.2899 93.451C95.6017 93.2254 87.1116 87.4049 87.1116 87.4049L86.3596 88.5329L84.7278 86.2243L86.9838 80.9904L96.1131 85.1264L102.272 78.0162C102.272 78.0162 103.866 76.0798 105.848 76.0121" fill="#FFCB14"/>
<path d="M102.501 80.8137C102.64 81.1804 102.749 81.5576 102.828 81.9417C103.005 82.6485 103.227 83.6299 103.43 84.7241C103.633 85.8182 103.783 86.8184 103.862 87.5441C103.925 87.933 103.949 88.3273 103.934 88.7209C103.838 88.3399 103.768 87.9531 103.723 87.5629C103.61 86.8447 103.445 85.8521 103.238 84.7617L102.693 81.968C102.597 81.5892 102.533 81.2031 102.501 80.8137Z" fill="#263238"/>
<g opacity="0.3">
<path opacity="0.3" d="M126.93 79.791C127.663 80.919 128.223 82.2688 128.145 83.6262C128.145 83.6262 124.761 77.8997 124.065 77.0574C125.218 77.7359 126.198 78.6714 126.93 79.791Z" fill="black"/>
</g>
<path d="M125.136 78.6329C125.259 78.7699 125.369 78.9185 125.464 79.0766C125.659 79.3698 125.937 79.7985 126.276 80.3324C126.949 81.4002 127.851 82.8892 128.791 84.5737C129.731 86.2582 130.525 87.811 131.047 88.9691C131.295 89.5482 131.498 90.0182 131.611 90.3528C131.684 90.5208 131.74 90.6959 131.777 90.8754C131.681 90.7197 131.602 90.5546 131.54 90.3829C131.404 90.0558 131.186 89.597 130.919 89.0255C130.378 87.8975 129.573 86.3446 128.633 84.6677C127.693 82.9907 126.81 81.4867 126.167 80.4038L125.415 79.1179C125.307 78.9651 125.214 78.8028 125.136 78.6329Z" fill="#263238"/>
<path d="M108.288 75.952C108.264 76.358 108.208 76.7615 108.122 77.159C107.995 77.911 107.807 78.9224 107.585 80.0504L107.483 80.5655L107.322 80.4753C108.032 79.8248 108.671 79.2495 109.153 78.8284L109.239 78.7532L109.266 78.8623C109.372 79.2413 109.446 79.6287 109.487 80.0203C109.339 79.6546 109.221 79.2774 109.134 78.8923L109.243 78.9262C108.784 79.3699 108.16 79.9564 107.453 80.6144L107.235 80.8137L107.292 80.5242L107.393 80.0091C107.611 78.8811 107.822 77.8659 107.983 77.1289C108.052 76.7288 108.154 76.3351 108.288 75.952Z" fill="#263238"/>
<path d="M120.376 76.0121C120.566 76.256 120.733 76.5165 120.876 76.7905C121.17 77.2868 121.572 77.9861 122.004 78.7908L122.215 79.1668L121.865 78.9224C121.64 78.7645 121.403 78.5915 121.166 78.4148C120.74 78.1036 120.333 77.7671 119.948 77.4071L120.098 77.3206C120.26 78.0425 120.391 78.6629 120.474 79.0991C120.537 79.3273 120.572 79.562 120.579 79.7985C120.485 79.5821 120.413 79.3566 120.365 79.1254C120.249 78.693 120.094 78.0801 119.918 77.362L119.846 77.0649L120.068 77.2755C120.455 77.6232 120.859 77.9507 121.279 78.2569L121.974 78.7682L121.835 78.8923C121.392 78.0839 121.012 77.3695 120.745 76.8581C120.595 76.5889 120.471 76.3055 120.376 76.0121Z" fill="#263238"/>
<path d="M118.44 76.1738C118.496 76.2518 118.546 76.3335 118.59 76.4182L118.993 77.1364L120.467 79.7684C121.719 81.9943 123.475 85.0549 125.471 88.3938C126.404 89.9662 127.426 91.484 128.532 92.9397C129.484 94.086 130.52 95.1605 131.63 96.1545C132.57 97.0155 133.348 97.6923 133.886 98.1661L134.499 98.715C134.571 98.7777 134.639 98.8456 134.702 98.9181C134.622 98.8657 134.545 98.8079 134.473 98.7451L133.837 98.2262C133.284 97.7713 132.491 97.0982 131.536 96.256C130.404 95.2714 129.352 94.199 128.389 93.0487C127.269 91.5952 126.24 90.0746 125.306 88.4954C123.298 85.1527 121.564 82.0808 120.346 79.8474C119.733 78.7194 119.252 77.8094 118.925 77.1777C118.771 76.8694 118.651 76.625 118.549 76.4257C118.504 76.3457 118.468 76.2613 118.44 76.1738Z" fill="#263238"/>
<g opacity="0.3">
<path opacity="0.3" d="M122.027 78.8923C121.591 78.0162 121.057 77.3545 120.621 76.4784L120.512 76.2565C121.388 77.2379 122.147 78.584 122.899 79.7759C122.089 79.5024 121.34 79.0719 120.696 78.5088C120.63 78.9045 120.587 79.3037 120.568 79.7045C120.399 78.9525 120.222 78.1629 120.053 77.4184C120.068 77.4184 121.361 78.4862 122.027 78.8923Z" fill="black"/>
</g>
<g opacity="0.3">
<path opacity="0.3" d="M109.495 80.0165L109.157 79.5353L106.901 81.7499C106.861 81.4478 106.896 81.1407 107.002 80.855C107.243 79.9865 107.6 78.9186 107.841 78.05C107.728 78.8359 107.502 79.821 107.386 80.6106C107.983 80.0165 108.581 79.4826 109.209 78.8773L109.495 80.0165Z" fill="black"/>
</g>
<g opacity="0.3">
<path opacity="0.3" d="M102.501 80.9866C102.968 82.5696 103.693 85.807 103.78 87.4576C102.956 85.8634 102.272 82.7614 102.501 80.9866Z" fill="black"/>
</g>
<path d="M109.142 82.4343C109.141 82.5365 109.131 82.6385 109.112 82.7388C109.085 82.9381 109.048 83.2276 109.01 83.6074C108.939 84.3594 108.86 85.4535 108.833 86.8071C108.807 88.1607 108.788 89.7851 109.303 91.5071C109.751 93.2405 110.337 95.1243 110.939 97.1058C111.54 99.0873 112.191 100.948 112.729 102.659C113.266 104.37 113.721 105.927 114.03 107.247C114.283 108.289 114.48 109.345 114.62 110.409C114.676 110.785 114.691 111.082 114.71 111.281C114.721 111.382 114.721 111.484 114.71 111.586C114.683 111.487 114.665 111.386 114.658 111.285C114.624 111.089 114.597 110.796 114.53 110.42C114.417 109.668 114.206 108.596 113.879 107.28C113.552 105.964 113.097 104.419 112.541 102.716C111.984 101.012 111.349 99.1437 110.736 97.1622C110.123 95.1807 109.555 93.2969 109.115 91.5523C109.01 91.1161 108.905 90.6912 108.83 90.2701C108.759 89.8598 108.715 89.4453 108.698 89.0293C108.657 88.2284 108.664 87.4839 108.698 86.8071C108.736 85.446 108.841 84.3519 108.935 83.5961C108.984 83.2201 109.033 82.9306 109.07 82.7313C109.088 82.631 109.112 82.5318 109.142 82.4343Z" fill="#263238"/>
<path d="M105.092 98.888C105.567 98.8828 106.041 98.9294 106.506 99.0271C106.979 99.0625 107.446 99.1482 107.901 99.2828C107.426 99.3402 106.944 99.3199 106.476 99.2227C105.999 99.1883 105.532 99.0753 105.092 98.888Z" fill="#263238"/>
<path d="M89.7662 82.2463C89.2877 83.3374 88.7505 84.4017 88.1569 85.4348C87.6212 86.4993 87.0275 87.5336 86.3784 88.533C86.8549 87.444 87.3908 86.3821 87.9839 85.352C88.5197 84.2844 89.1147 83.2475 89.7662 82.2463Z" fill="#263238"/>
<path d="M138.157 62.3032C138.495 62.3802 138.826 62.4845 139.146 62.6153C139.752 62.8221 140.586 63.1041 141.519 63.3899C142.451 63.6756 143.305 63.9087 143.922 64.0742C144.261 64.143 144.593 64.2424 144.914 64.3712C144.567 64.3521 144.224 64.2979 143.888 64.2095C143.26 64.0779 142.384 63.8636 141.463 63.5779C140.541 63.2921 139.692 62.9875 139.097 62.7431C138.768 62.6329 138.453 62.4853 138.157 62.3032Z" fill="#263238"/>
<path d="M113.646 93.7293C113.89 93.492 114.153 93.2745 114.432 93.0788C114.924 92.7028 115.597 92.1426 116.312 91.5071C117.026 90.8717 117.65 90.2701 118.094 89.8302C118.326 89.5775 118.577 89.3437 118.846 89.1308C118.663 89.4181 118.449 89.6842 118.207 89.9242C117.098 91.138 115.864 92.2319 114.526 93.1878C114.255 93.4029 113.96 93.5847 113.646 93.7293Z" fill="#263238"/>
<g opacity="0.3">
<path opacity="0.3" d="M111.672 95.1995C112.965 94.1354 115.564 92.7254 117.312 90.7213L117.485 90.7401C116.049 92.8119 114.511 94.9739 112.221 96.0492C111.935 96.1846 111.533 96.2711 111.364 96.0041C111.194 95.7372 111.431 95.3988 111.672 95.1995Z" fill="black"/>
</g>
<path d="M122.256 61.6076C122.256 61.6076 122.388 64.7585 124.588 66.7738C125.509 67.6198 127.363 67.9432 127.851 69.0938L127.983 69.6653C127.983 69.6653 120.087 74.7074 117.286 74.8804L114.928 69.0787L122.256 61.6076Z" fill="#263238"/>
<path d="M106.859 64.3637C107.502 61.5888 107.747 58.3477 110.052 56.5541C111.762 55.2118 113.714 54.8396 115.887 54.9298C117.022 55.0432 118.117 55.4066 119.094 55.9939C120.373 56.7196 120.914 58.186 121.531 59.517C122.764 62.1866 122.61 65.8 121.771 66.8039L110.619 72.6958C108.39 71.5377 106.995 71.0753 106.641 68.1049C106.497 66.8546 106.571 65.5888 106.859 64.3637Z" fill="#263238"/>
<path d="M111.939 57.9604L117.312 56.6858C119.568 56.3587 121.192 59.0922 121.425 61.367C121.685 63.8937 121.903 66.9844 121.677 68.887C121.222 72.7071 118.331 73.305 118.331 73.305C118.331 73.305 118.331 73.3614 118.331 74.4931L118.44 76.328C118.483 77.0695 118.265 77.8025 117.823 78.3998C116.789 79.7421 114.902 79.9038 112.676 79.0991C111.386 78.6216 110.852 76.9371 110.755 75.6287L109.694 60.1224C109.634 59.408 111.251 58.0619 111.939 57.9604Z" fill="#FFBE9D"/>
<path d="M120.655 64.9916C120.661 65.1184 120.617 65.2426 120.533 65.3375C120.448 65.4324 120.33 65.4905 120.203 65.4992C120.142 65.507 120.079 65.5023 120.019 65.4854C119.959 65.4685 119.904 65.4397 119.855 65.4007C119.807 65.3618 119.767 65.3135 119.737 65.2587C119.708 65.2039 119.69 65.1437 119.685 65.0818C119.679 64.9548 119.723 64.8307 119.807 64.7354C119.891 64.6401 120.009 64.581 120.136 64.5705C120.198 64.5632 120.26 64.5684 120.32 64.5857C120.38 64.6031 120.436 64.6322 120.484 64.6715C120.532 64.7107 120.572 64.7593 120.602 64.8143C120.631 64.8692 120.649 64.9295 120.655 64.9916Z" fill="#263238"/>
<path d="M120.839 63.6568C120.782 63.7245 120.403 63.4651 119.88 63.4876C119.357 63.5102 118.981 63.7847 118.921 63.7245C118.861 63.6643 118.948 63.5779 119.113 63.45C119.33 63.2862 119.593 63.193 119.865 63.1831C120.132 63.1747 120.395 63.2496 120.617 63.3974C120.809 63.5139 120.869 63.6267 120.839 63.6568Z" fill="#263238"/>
<path d="M115.947 64.9916C115.953 65.1184 115.909 65.2426 115.825 65.3375C115.741 65.4324 115.622 65.4905 115.496 65.4992C115.434 65.507 115.372 65.5023 115.312 65.4854C115.252 65.4685 115.196 65.4397 115.148 65.4008C115.099 65.3618 115.059 65.3135 115.03 65.2587C115 65.2039 114.982 65.1437 114.977 65.0818C114.971 64.9552 115.014 64.8311 115.097 64.7357C115.181 64.6403 115.298 64.581 115.424 64.5705C115.486 64.5632 115.549 64.5683 115.609 64.5856C115.669 64.603 115.725 64.6321 115.774 64.6713C115.823 64.7105 115.863 64.759 115.893 64.814C115.923 64.869 115.941 64.9294 115.947 64.9916Z" fill="#263238"/>
<path d="M116.022 63.6568C115.966 63.7245 115.586 63.465 115.06 63.4876C114.533 63.5101 114.165 63.7846 114.105 63.7245C114.044 63.6643 114.131 63.5778 114.293 63.45C114.511 63.2872 114.773 63.1942 115.045 63.183C115.318 63.1709 115.588 63.246 115.815 63.3973C115.992 63.5139 116.052 63.6267 116.022 63.6568Z" fill="#263238"/>
<path d="M117.726 67.116C117.999 67.0191 118.283 66.9572 118.572 66.9318C118.703 66.9318 118.831 66.8791 118.85 66.7889C118.851 66.6561 118.815 66.5256 118.745 66.4129L118.308 65.409C117.699 63.9802 117.256 62.8033 117.316 62.777C117.782 63.5932 118.184 64.4442 118.519 65.3225C118.662 65.6759 118.805 66.0106 118.936 66.3339C119.027 66.4922 119.059 66.6772 119.027 66.8566C119.009 66.9043 118.981 66.9474 118.945 66.9826C118.908 67.0178 118.864 67.0442 118.816 67.0596C118.742 67.0827 118.664 67.0966 118.587 67.101C118.301 67.1426 118.012 67.1477 117.726 67.116Z" fill="#263238"/>
<path d="M118.331 73.32C116.537 73.4171 114.752 73.0121 113.176 72.1506C113.176 72.1506 114.537 74.7563 118.327 74.2525L118.331 73.32Z" fill="#EB996E"/>
<path d="M116.015 68.2628C116.076 68.1604 116.161 68.0749 116.264 68.0138C116.366 67.9528 116.482 67.9182 116.601 67.9131C116.766 67.8918 116.934 67.9155 117.087 67.9816C117.24 68.0478 117.372 68.1541 117.47 68.2891C117.541 68.4175 117.561 68.5678 117.526 68.7103C117.496 68.7817 117.526 68.7441 117.466 68.7967C117.287 68.9948 117.063 69.1458 116.812 69.2367C116.676 69.2771 116.532 69.2754 116.398 69.2317C116.263 69.1881 116.146 69.1045 116.06 68.9923C115.987 68.886 115.945 68.7621 115.937 68.6338C115.929 68.5054 115.956 68.3772 116.015 68.2628Z" fill="#EB996E"/>
<path d="M116.105 67.5634C116.188 67.5634 116.214 68.1237 116.722 68.5034C117.229 68.8832 117.827 68.7967 117.85 68.8794C117.872 68.9621 117.722 68.996 117.474 69.0148C117.14 69.0333 116.81 68.9349 116.541 68.7365C116.285 68.5459 116.113 68.2624 116.064 67.9469C116.007 67.7063 116.064 67.5634 116.105 67.5634Z" fill="#263238"/>
<path d="M115.883 61.7994C115.845 61.946 115.315 61.931 114.71 62.0626C114.105 62.1942 113.627 62.4122 113.533 62.2919C113.492 62.2355 113.563 62.0926 113.751 61.9385C114.001 61.7435 114.292 61.6083 114.602 61.5431C114.913 61.478 115.234 61.4846 115.541 61.5625C115.774 61.6302 115.898 61.7317 115.883 61.7994Z" fill="#263238"/>
<path d="M120.798 62.2468C120.677 62.3483 120.297 62.1679 119.816 62.0927C119.335 62.0175 118.918 62.0438 118.842 61.9084C118.809 61.8407 118.891 61.7317 119.083 61.649C119.346 61.5455 119.633 61.5181 119.91 61.57C120.19 61.6101 120.451 61.7317 120.662 61.9197C120.813 62.0663 120.85 62.1942 120.798 62.2468Z" fill="#263238"/>
<path d="M117.214 56.2759C117.214 56.3064 117.214 56.3331 117.233 56.3597L117.214 56.2759Z" fill="#263238"/>
<path d="M116.398 72.6958C116.274 71.6393 113.984 69.2592 113.191 68.5598C111.792 67.304 111.067 66.4467 111.792 63.7921C112.762 63.6334 113.64 63.1267 114.263 62.3671C114.976 61.4368 115.54 60.4002 115.932 59.2952C115.902 60.3637 115.541 61.3964 114.898 62.2505C115.111 62.2843 115.329 62.2678 115.535 62.2026C115.74 62.1373 115.928 62.025 116.082 61.8745C116.387 61.5673 116.624 61.1997 116.778 60.7954C117.188 59.8331 117.417 58.8029 117.451 57.7573C117.592 59.2547 117.423 60.765 116.955 62.1941C117.228 62.1436 117.51 62.1552 117.778 62.228C117.913 62.2618 118.055 62.2642 118.191 62.2349C118.327 62.2055 118.455 62.1453 118.564 62.0588C118.684 61.9143 118.76 61.7379 118.782 61.5512C119.043 60.2792 119.085 58.972 118.906 57.6859C119.267 58.3699 119.559 59.0878 119.779 59.8291C119.993 60.576 119.993 61.3683 119.779 62.1152C119.842 62.1772 119.927 62.2119 120.015 62.2119C120.104 62.2119 120.189 62.1772 120.252 62.1152C120.371 61.9824 120.443 61.8149 120.459 61.6377C120.521 60.9933 120.478 60.343 120.331 59.7125C120.662 60.4068 120.911 61.1375 121.072 61.8896C121.3 62.6087 121.786 63.2181 122.437 63.6004C122.546 62.4724 122.335 61.946 122.166 60.9045C121.992 60.0972 121.705 59.3187 121.313 58.5921C120.943 57.784 120.42 57.0559 119.771 56.4489C118.643 55.4675 118.184 55.8886 117.47 56.2646L117.387 56.2985C117.387 56.2985 117.387 56.2646 117.387 56.2458L117.357 56.0954C115.487 55.6772 113.54 55.7681 111.717 56.3586C110.187 56.9533 108.891 58.0287 108.025 59.423C108.025 59.4456 107.998 59.4681 107.987 59.4945C104.603 65.8865 106.239 69.6728 108.164 74.7413L112.007 74.0193L110.781 71.4625L112.345 74.0645L116.398 72.6958Z" fill="#263238"/>
<path d="M117.192 72.192C117.16 71.6565 116.991 71.1383 116.699 70.688C116.373 70.2102 115.96 69.7982 115.481 69.4735C114.951 69.0975 114.304 68.7478 113.669 68.3042C113.054 67.8942 112.554 67.3354 112.213 66.6798C111.942 66.1444 111.789 65.5573 111.762 64.9578C111.742 64.5552 111.783 64.1518 111.886 63.7621C111.913 63.6566 111.948 63.5535 111.992 63.4537C112.018 63.3861 112.037 63.3522 112.044 63.3522C111.923 63.8745 111.875 64.411 111.901 64.9465C111.948 65.588 112.141 66.2101 112.467 66.7645C112.793 67.3189 113.243 67.7904 113.781 68.1425C114.398 68.5786 115.048 68.9246 115.582 69.3269C116.074 69.672 116.493 70.1102 116.816 70.6166C117.021 70.9608 117.15 71.3457 117.192 71.7446C117.225 71.8918 117.225 72.0447 117.192 72.192Z" fill="#263238"/>
<path d="M79.7119 28.2C79.7119 29.2979 79.7119 30.3996 79.7119 31.5013C79.7119 34.4692 79.6994 37.4371 79.6743 40.405C79.6542 44.8242 79.6342 49.2422 79.6141 53.659L79.5464 69.7179L79.4675 87.4275C79.4424 93.3458 79.4174 99.2653 79.3923 105.186C79.3672 110.738 79.3422 116.294 79.3171 121.854L79.2569 135.845L79.2118 145.974C79.2118 147.565 79.1742 149.155 79.193 150.742V150.953C79.193 151.451 79.3911 151.93 79.7437 152.282C80.0962 152.635 80.5744 152.833 81.073 152.833C81.5716 152.833 82.0498 152.635 82.4024 152.282C82.7549 151.93 82.953 151.451 82.953 150.953C82.953 149.852 82.953 148.752 82.953 147.651C82.953 144.681 82.9656 141.712 82.9906 138.744L83.047 125.49C83.0696 120.138 83.0934 114.785 83.1185 109.431C83.146 103.528 83.1711 97.6246 83.1937 91.7215L83.2726 73.9667C83.2952 68.4095 83.319 62.8534 83.3441 57.2986L83.4042 43.3077L83.4493 33.1745C83.4493 31.5878 83.4869 29.9973 83.4719 28.4068C83.4719 28.3391 83.4719 28.2677 83.4719 28.2C83.4719 27.7014 83.2738 27.2232 82.9213 26.8706C82.5687 26.5181 82.0905 26.32 81.5919 26.32C81.0933 26.32 80.6151 26.5181 80.2625 26.8706C79.91 27.2232 79.7119 27.7014 79.7119 28.2Z" fill="#FFCB14"/>
<g opacity="0.6">
<path opacity="0.6" d="M79.7119 28.2C79.7119 29.2979 79.7119 30.3996 79.7119 31.5013C79.7119 34.4692 79.6994 37.4371 79.6743 40.405C79.6542 44.8242 79.6342 49.2422 79.6141 53.659L79.5464 69.7179L79.4675 87.4275C79.4424 93.3458 79.4174 99.2653 79.3923 105.186C79.3672 110.738 79.3422 116.294 79.3171 121.854L79.2569 135.845L79.2118 145.974C79.2118 147.565 79.1742 149.155 79.193 150.742V150.953C79.193 151.451 79.3911 151.93 79.7437 152.282C80.0962 152.635 80.5744 152.833 81.073 152.833C81.5716 152.833 82.0498 152.635 82.4024 152.282C82.7549 151.93 82.953 151.451 82.953 150.953C82.953 149.852 82.953 148.752 82.953 147.651C82.953 144.681 82.9656 141.712 82.9906 138.744L83.047 125.49C83.0696 120.138 83.0934 114.785 83.1185 109.431C83.146 103.528 83.1711 97.6246 83.1937 91.7215L83.2726 73.9667C83.2952 68.4095 83.319 62.8534 83.3441 57.2986L83.4042 43.3077L83.4493 33.1745C83.4493 31.5878 83.4869 29.9973 83.4719 28.4068C83.4719 28.3391 83.4719 28.2677 83.4719 28.2C83.4719 27.7014 83.2738 27.2232 82.9213 26.8706C82.5687 26.5181 82.0905 26.32 81.5919 26.32C81.0933 26.32 80.6151 26.5181 80.2625 26.8706C79.91 27.2232 79.7119 27.7014 79.7119 28.2Z" fill="black"/>
</g>
<path d="M79.6857 33.088C83.4457 32.5015 86.5628 32.2157 90.0633 33.464C91.8117 34.0844 93.6955 35.6674 95.5981 35.8027C97.3126 35.9268 98.9821 35.2726 100.682 35.0507C103.374 34.7086 106.224 35.5395 108.036 37.1902C108.036 37.1902 103.735 35.8291 100.042 38.3633C96.3501 40.8975 95.1093 43.2513 90.1949 41.6947C87.0779 40.702 81.2123 41.157 79.603 43.0107L79.6857 33.088Z" fill="#FFCB14"/>
<path d="M79.6857 33.088C79.6889 33.1481 79.6889 33.2084 79.6857 33.2685C79.6857 33.3925 79.6857 33.5655 79.6857 33.7836V35.7613C79.6857 37.4759 79.6857 39.9462 79.6594 43.0069L79.5391 42.9617C80.1487 42.3758 80.8961 41.9529 81.7123 41.7322C82.5806 41.4637 83.4737 41.2836 84.3782 41.1945C85.3486 41.0928 86.3255 41.069 87.2997 41.1231C88.3392 41.1694 89.3687 41.3462 90.3641 41.6495C91.3832 42 92.4624 42.142 93.5375 42.0669C94.6547 41.9323 95.7148 41.4984 96.6057 40.811C97.5419 40.1455 98.4406 39.3747 99.4182 38.6753C99.9037 38.309 100.419 37.9845 100.96 37.7053L101.373 37.5022L101.806 37.3368C102.094 37.2219 102.389 37.1264 102.689 37.051C104.452 36.6024 106.3 36.6179 108.055 37.0961L107.961 37.2578C106.42 35.9418 104.484 35.177 102.46 35.0845C101.513 35.0422 100.564 35.1295 99.64 35.344C98.7263 35.5282 97.839 35.7613 96.9441 35.8666C96.5027 35.9217 96.0571 35.9355 95.6131 35.908C95.1805 35.8698 94.7547 35.7763 94.3459 35.6297C93.5817 35.3419 92.8434 34.9897 92.1388 34.5769C91.4893 34.1956 90.8133 33.8613 90.1159 33.5768C88.3515 32.925 86.4806 32.61 84.6 32.6481C83.5585 32.6481 82.6636 32.7421 81.9379 32.821C81.2123 32.9 80.6483 32.9752 80.2723 33.0241L79.8436 33.0805H79.6895L79.8323 33.0504L80.261 32.9752C80.637 32.915 81.201 32.8248 81.9304 32.7345C82.8163 32.6221 83.7073 32.5556 84.6 32.5353C85.7935 32.5049 86.9866 32.6083 88.157 32.8436C88.8387 32.9905 89.5106 33.1802 90.1686 33.4113C90.8725 33.696 91.556 34.0289 92.214 34.4077C92.9132 34.8142 93.6452 35.1614 94.4023 35.4455C94.7983 35.5841 95.2101 35.6725 95.6281 35.7087C96.0622 35.7329 96.4977 35.7178 96.9291 35.6636C97.8051 35.5583 98.6887 35.3252 99.6099 35.1334C100.553 34.922 101.521 34.841 102.486 34.8928C104.554 34.9815 106.532 35.7614 108.104 37.1074L108.408 37.3781L108.01 37.2729C106.288 36.8081 104.475 36.7938 102.746 37.2315C102.453 37.3083 102.164 37.4012 101.881 37.5097L101.46 37.6752L101.054 37.8745C100.527 38.1487 100.023 38.4669 99.5498 38.8257C98.5797 39.5213 97.6698 40.2846 96.7335 40.9577C95.8155 41.6631 94.7246 42.1086 93.5751 42.2473C92.4755 42.3208 91.3723 42.1738 90.3303 41.8149C89.3536 41.5143 88.343 41.3375 87.3223 41.2885C86.3572 41.229 85.3888 41.2491 84.4271 41.3487C83.5346 41.4336 82.6529 41.6075 81.7951 41.8676C81.0019 42.0761 80.2739 42.4808 79.6782 43.0445L79.5579 43.1761V42.9993C79.603 39.9199 79.6331 37.4383 79.6594 35.7162C79.6594 34.8702 79.6857 34.2122 79.6932 33.7535C79.6932 33.5392 79.6932 33.3775 79.6932 33.2497C79.6932 33.1218 79.6857 33.088 79.6857 33.088Z" fill="#263238"/>
<path d="M98.512 36.848C98.512 36.8781 98.0946 37.0398 97.5156 37.4872C97.1784 37.7514 96.857 38.0351 96.553 38.337C96.2034 38.6754 95.8311 39.0627 95.4025 39.4387C95.0058 39.8039 94.5588 40.1103 94.0752 40.3486C93.6752 40.539 93.2426 40.6513 92.8006 40.6795C92.5013 40.6962 92.2016 40.6567 91.917 40.5629C91.8117 40.5356 91.7131 40.487 91.6274 40.42C92.0048 40.5272 92.398 40.5679 92.7893 40.5403C93.2101 40.4964 93.6193 40.3753 93.9962 40.1831C94.4603 39.9446 94.8903 39.6449 95.2746 39.292C95.692 38.916 96.068 38.54 96.4252 38.2054C96.7408 37.9046 97.0775 37.6269 97.4329 37.3744C97.6748 37.205 97.933 37.0601 98.2037 36.942C98.2996 36.8915 98.4042 36.8596 98.512 36.848Z" fill="#263238"/>
<g opacity="0.3">
<path opacity="0.3" d="M91.6312 40.7772C90.2588 40.1756 89.2436 39.5252 87.8713 38.9236C87.2666 38.72 86.7286 38.3562 86.3146 37.8708C86.0909 37.5364 85.9853 37.1369 86.0146 36.7356C86.0439 36.3344 86.2064 35.9544 86.4763 35.6561C87.1531 34.9492 88.3074 34.9304 89.2173 35.2801C90.1272 35.6298 90.868 36.3104 91.6764 36.8668C92.4848 37.4233 93.436 37.8858 94.4024 37.7429C95.1544 37.6339 95.8236 37.1639 96.4854 36.7578C97.1472 36.3517 97.9029 36.0058 98.6624 36.1299C98.858 36.1675 99.2791 36.2352 99.3468 36.4232C99.4144 36.6112 99.1625 36.6488 98.8768 36.7052C98.6674 36.7566 98.4644 36.831 98.2714 36.927C97.5724 37.2626 96.9484 37.7358 96.4365 38.3182C95.7936 39.0319 95.0649 39.6633 94.267 40.1982C93.4843 40.6925 92.5523 40.8949 91.635 40.7697" fill="black"/>
</g>
<path d="M128.129 67.5108C127.941 67.5034 127.753 67.4782 127.569 67.4356C127.059 67.3466 126.557 67.221 126.065 67.0596C125.322 66.8409 124.639 66.4551 124.069 65.9316C123.74 65.6071 123.473 65.2247 123.283 64.8036C123.087 64.3537 122.934 63.8867 122.824 63.4086C122.64 62.4975 122.389 61.6014 122.072 60.7277C121.804 60.0173 121.48 59.3295 121.102 58.671C120.849 58.2259 120.573 57.7942 120.275 57.3776C120.158 57.2289 120.053 57.0718 119.959 56.9076C119.959 56.9076 120 56.9377 120.064 57.0091C120.161 57.1121 120.253 57.22 120.339 57.3325C120.659 57.7365 120.954 58.1597 121.222 58.5996C121.621 59.2558 121.962 59.9452 122.241 60.6601C122.572 61.5392 122.832 62.4432 123.02 63.3635C123.172 64.2705 123.579 65.1155 124.193 65.8C124.737 66.32 125.391 66.7118 126.107 66.9468C126.591 67.1147 127.084 67.2553 127.584 67.3679C127.77 67.3991 127.952 67.4469 128.129 67.5108Z" fill="#263238"/>
<path d="M84.318 80.5617L82.9005 79.6819L79.2758 77.7681C79.2758 77.7681 78.5539 78.4674 79.7722 79.4751L81.2762 80.6633C81.2762 80.6633 82.6185 83.0922 82.893 83.2953C83.3742 83.6337 84.397 83.5171 84.397 83.5171" fill="#FFBE9D"/>
<path d="M84.3856 83.5096C84.2754 83.5463 84.1595 83.5629 84.0434 83.5585C83.7186 83.5842 83.3918 83.5471 83.0809 83.4494C82.9701 83.413 82.8687 83.3526 82.7838 83.2727C82.7061 83.1801 82.6333 83.0835 82.5658 82.9832C82.4229 82.7801 82.2838 82.5583 82.1371 82.3177C81.8401 81.8401 81.5242 81.2987 81.1896 80.7046L81.2159 80.7347L80.2534 79.9827C79.8894 79.729 79.5573 79.4323 79.2645 79.0991C79.1037 78.902 79.002 78.6635 78.9712 78.411C78.9594 78.2826 78.9744 78.1532 79.0151 78.0309C79.0559 77.9085 79.1216 77.796 79.2081 77.7004L79.2532 77.6515L79.3209 77.6853C80.776 78.4599 82.0431 79.1442 82.9305 79.6293L83.957 80.2985C84.0841 80.3748 84.2037 80.4629 84.3142 80.5617C84.1835 80.5045 84.0577 80.4366 83.9382 80.3587L82.8778 79.7345C81.9754 79.2796 80.697 78.6065 79.2382 77.8545H79.351C79.2852 77.9297 79.2357 78.0175 79.2053 78.1126C79.1749 78.2076 79.1643 78.3079 79.1742 78.4072C79.2011 78.6234 79.2899 78.8271 79.4299 78.9938C79.7122 79.3149 80.0315 79.6014 80.3812 79.8473L81.3362 80.5993C81.6634 81.1897 81.9717 81.7273 82.2537 82.2199C82.3966 82.4605 82.5282 82.6861 82.6635 82.8892C82.7233 82.9865 82.7899 83.0795 82.8628 83.1674C82.9317 83.2373 83.0151 83.2913 83.1072 83.3253C83.4037 83.427 83.7149 83.4791 84.0284 83.4795C84.148 83.4816 84.2673 83.4917 84.3856 83.5096Z" fill="#EB996E"/>
<path d="M140.594 151.787C140.594 151.787 137.992 160.236 134.42 167.388H39.2017L38.2128 166.342C31.5996 159.395 26.6476 151.039 23.7293 141.902C23.1728 140.143 22.8494 138.868 22.9773 138.605L140.594 151.787Z" fill="#455A64"/>
<path d="M21.4508 143.79L141.32 151.904C142.101 151.957 142.872 151.697 143.462 151.181C144.052 150.666 144.414 149.937 144.467 149.155C144.519 148.373 144.26 147.602 143.744 147.011C143.229 146.421 142.5 146.059 141.718 146.005L21.8494 137.894C21.4622 137.868 21.0735 137.918 20.7057 138.042C20.3379 138.165 19.9981 138.361 19.7057 138.616C19.4134 138.871 19.1743 139.182 19.0021 139.529C18.8299 139.877 18.728 140.256 18.7022 140.643C18.6757 141.03 18.7257 141.419 18.8495 141.786C18.9734 142.154 19.1685 142.494 19.4238 142.786C19.6791 143.079 19.9895 143.318 20.3374 143.49C20.6852 143.662 21.0635 143.764 21.4508 143.79Z" fill="#263238"/>
<path d="M23.3948 143.828L141.62 151.975L23.3948 143.828Z" fill="#A86B62"/>
<path d="M141.62 151.975C141.62 152.028 115.146 150.25 82.502 147.997C49.8577 145.745 23.391 143.884 23.3948 143.828C23.3985 143.771 49.8614 145.553 82.517 147.806C115.173 150.058 141.624 151.904 141.62 151.975Z" fill="#263238"/>
<path d="M138.898 156.762C138.898 156.818 113.932 155.551 83.1448 153.942C52.3579 152.333 27.3915 150.975 27.3953 150.934C27.399 150.893 52.3579 152.141 83.1523 153.758C113.947 155.375 138.902 156.709 138.898 156.762Z" fill="#E0E0E0"/>
<path d="M136.394 163.109C136.394 163.165 113.041 162.252 84.2428 161.071C55.4449 159.89 32.0916 158.886 32.0916 158.834C32.0916 158.781 55.4412 159.691 84.2503 160.875C113.059 162.06 136.394 163.056 136.394 163.109Z" fill="#E0E0E0"/>
<path d="M47.2257 152.036C47.1288 150.954 47.0962 149.868 47.128 148.783C47.0963 147.699 47.1289 146.615 47.2257 145.535C47.3248 146.614 47.3574 147.699 47.3235 148.783C47.3575 149.868 47.3248 150.954 47.2257 152.036Z" fill="#E0E0E0"/>
<path d="M72.523 167.388C72.4233 166.263 72.3907 165.133 72.4253 164.004C72.3906 162.875 72.4232 161.745 72.523 160.62C72.6205 161.745 72.6532 162.875 72.6208 164.004C72.6531 165.133 72.6204 166.262 72.523 167.388Z" fill="#E0E0E0"/>
<path d="M108.965 155.194C108.834 153.365 108.834 151.529 108.965 149.701C109.095 151.529 109.095 153.365 108.965 155.194Z" fill="#E0E0E0"/>
<path d="M91.6124 161.274C91.5134 160.119 91.4808 158.959 91.5147 157.8C91.4808 156.641 91.5134 155.481 91.6124 154.325C91.7092 155.481 91.7419 156.641 91.7102 157.8C91.7419 158.959 91.7092 160.119 91.6124 161.274Z" fill="#E0E0E0"/>
<path d="M22.1841 171.287C26.4103 166.256 30.1816 163.643 36.0961 161.579C42.0739 159.515 48.6066 159.758 54.4148 162.259C58.0432 163.838 61.5588 166.335 65.5031 166.098C69.6165 165.85 72.993 162.673 77.0162 161.778C84.6151 160.093 92.1615 166.831 99.7905 165.305C103.374 164.59 106.491 162.105 110.131 161.83C115.316 161.454 119.858 165.59 125.05 165.933C129.291 166.211 133.42 163.898 137.642 164.38C141.196 164.782 144.196 167.087 147.418 168.613C150.641 170.14 150.821 170.422 157.446 171.039" fill="white"/>
<path d="M157.439 171.039L157.063 171.012L155.976 170.915C154.581 170.801 153.193 170.616 151.818 170.362C150.824 170.159 149.859 169.833 148.945 169.392C147.941 168.922 146.843 168.425 145.704 167.805C144.564 167.185 143.369 166.497 142.053 165.854C140.678 165.151 139.197 164.678 137.669 164.455C136.844 164.372 136.012 164.372 135.187 164.455C134.324 164.548 133.467 164.688 132.619 164.876C130.886 165.252 129.096 165.752 127.182 165.963C126.207 166.081 125.222 166.073 124.249 165.94C123.249 165.792 122.264 165.55 121.309 165.218C119.372 164.553 117.485 163.616 115.47 162.876C113.454 162.135 111.255 161.639 109.04 162.056C106.825 162.473 104.791 163.609 102.622 164.489C101.527 164.957 100.379 165.29 99.2038 165.481C98.0036 165.643 96.787 165.643 95.5867 165.481C93.1653 165.181 90.819 164.383 88.469 163.601C86.119 162.819 83.7841 162.011 81.389 161.721C80.2062 161.562 79.0073 161.562 77.8245 161.721C76.6632 161.9 75.5321 162.238 74.463 162.725C72.3198 163.647 70.3534 164.891 68.1951 165.617C67.132 165.992 66.0136 166.186 64.8863 166.192C63.7852 166.175 62.6933 165.989 61.649 165.639C59.581 164.981 57.7348 163.947 55.9037 163.056C54.9937 162.602 54.0776 162.199 53.1551 161.845C52.6889 161.688 52.2339 161.507 51.7639 161.375L51.0683 161.169L50.3727 160.992C45.3976 159.765 40.1672 160.079 35.3741 161.891C34.0787 162.361 32.813 162.91 31.584 163.534C30.5142 164.079 29.4817 164.694 28.4933 165.376C27.6677 165.961 26.8732 166.588 26.1132 167.256C25.068 168.184 24.0763 169.171 23.1428 170.211C22.8194 170.561 22.5863 170.843 22.4209 171.027C22.2554 171.212 22.1689 171.302 22.1689 171.302C22.1689 171.302 22.2479 171.2 22.4058 171.012C22.5637 170.824 22.7818 170.542 23.1127 170.185C24.0353 169.133 25.0197 168.136 26.0605 167.2C26.8215 166.533 27.6159 165.906 28.4406 165.32C29.4276 164.63 30.4602 164.008 31.5313 163.459C32.7676 162.823 34.0407 162.261 35.344 161.778C36.7973 161.228 38.2974 160.81 39.8259 160.529C43.342 159.892 46.9528 159.998 50.4254 160.842L51.1285 161.018L51.8278 161.225C52.2978 161.357 52.7565 161.537 53.2265 161.695C54.1565 162.049 55.0802 162.453 55.9977 162.91C57.8288 163.801 59.6749 164.827 61.7166 165.478C62.7448 165.817 63.8187 165.999 64.9014 166.015C66.0084 166.009 67.1066 165.817 68.15 165.448C70.2782 164.729 72.2409 163.489 74.3991 162.556C75.4842 162.063 76.6316 161.72 77.8094 161.537C79.0109 161.374 80.2289 161.374 81.4303 161.537C83.848 161.842 86.1942 162.646 88.548 163.44C90.9018 164.233 93.233 165.023 95.6243 165.32C96.8071 165.48 98.006 165.48 99.1888 165.32C100.353 165.133 101.489 164.805 102.573 164.342C104.735 163.47 106.78 162.327 109.029 161.902C110.137 161.697 111.273 161.682 112.386 161.857C113.47 162.029 114.532 162.315 115.556 162.71C117.583 163.462 119.466 164.399 121.388 165.06C122.332 165.392 123.305 165.634 124.294 165.782C125.253 165.913 126.225 165.922 127.186 165.809C129.085 165.605 130.871 165.102 132.611 164.737C133.464 164.55 134.326 164.41 135.195 164.32C136.03 164.237 136.871 164.237 137.706 164.32C139.248 164.546 140.743 165.027 142.128 165.741C143.448 166.391 144.643 167.091 145.779 167.707C146.914 168.324 148.005 168.835 149.005 169.309C149.912 169.75 150.869 170.078 151.855 170.287C153.637 170.663 155.051 170.764 155.991 170.877L157.078 170.994L157.439 171.039Z" fill="#263238"/>
<path d="M30.8319 160.39C28.8278 158.702 26.3568 157.664 23.748 157.416C22.8934 157.306 22.0252 157.375 21.1988 157.619C20.7882 157.746 20.4087 157.957 20.0849 158.24C19.7611 158.522 19.5001 158.869 19.3188 159.259C19.1485 159.654 19.1067 160.094 19.1991 160.515C19.2915 160.935 19.5135 161.317 19.8339 161.605C20.1043 161.794 20.4109 161.925 20.7345 161.99C21.0581 162.055 21.3915 162.051 21.7139 161.981C22.3594 161.843 22.9893 161.64 23.5939 161.375C25.8727 160.514 28.3044 160.13 30.7379 160.247" fill="#FAFAFA"/>
<path d="M30.6852 160.248C30.5953 160.257 30.5045 160.257 30.4145 160.248C30.2378 160.248 29.9746 160.248 29.6362 160.248C28.027 160.288 26.4302 160.54 24.8873 161C24.2068 161.195 23.5074 161.47 22.7592 161.752C22.3716 161.903 21.9679 162.009 21.556 162.067C21.1147 162.126 20.6656 162.077 20.2475 161.924C19.8086 161.753 19.4529 161.419 19.2548 160.992C19.0552 160.556 18.9999 160.067 19.0969 159.597C19.1969 159.13 19.4293 158.702 19.7662 158.364C20.0882 158.04 20.4717 157.784 20.8942 157.612C21.6922 157.31 22.549 157.195 23.3984 157.277C24.8233 157.374 26.2217 157.711 27.5344 158.274C28.4159 158.651 29.2521 159.127 30.0272 159.691C30.298 159.898 30.501 160.067 30.6364 160.18C30.7717 160.293 30.8394 160.36 30.8319 160.368C30.7538 160.321 30.6796 160.268 30.6101 160.21C30.4709 160.101 30.2566 159.947 29.9821 159.755C29.1979 159.218 28.3599 158.765 27.4817 158.401C26.1779 157.864 24.7945 157.545 23.3871 157.458C22.5665 157.382 21.7395 157.495 20.9694 157.788C20.5634 157.943 20.2 158.193 19.9091 158.516C19.6182 158.839 19.4081 159.226 19.2962 159.646C19.2089 160.075 19.2576 160.52 19.4353 160.921C19.6027 161.308 19.9142 161.615 20.3039 161.778C20.6917 161.921 21.1082 161.969 21.5184 161.917C21.9167 161.859 22.3075 161.759 22.684 161.616C23.436 161.33 24.1428 161.056 24.8272 160.864C25.4638 160.682 26.1103 160.536 26.7636 160.428C27.7074 160.266 28.6636 160.187 29.6212 160.191C29.9596 160.191 30.2228 160.191 30.3995 160.217C30.4955 160.218 30.5912 160.228 30.6852 160.248Z" fill="#263238"/>
<path d="M62.2845 162.71C63.4557 162.71 64.4051 161.761 64.4051 160.59C64.4051 159.418 63.4557 158.469 62.2845 158.469C61.1133 158.469 60.1638 159.418 60.1638 160.59C60.1638 161.761 61.1133 162.71 62.2845 162.71Z" fill="#FAFAFA"/>
<path d="M64.405 160.59C64.3824 160.59 64.405 160.402 64.2997 160.082C64.1743 159.63 63.9017 159.233 63.5251 158.954C63.2499 158.752 62.9292 158.622 62.5914 158.574C62.2536 158.526 61.9091 158.562 61.5887 158.68C61.3147 158.782 61.0658 158.941 60.859 159.148C60.6521 159.355 60.4922 159.604 60.39 159.878C60.2879 160.152 60.2459 160.444 60.2669 160.736C60.2879 161.028 60.3715 161.311 60.5119 161.568C60.6523 161.824 60.8462 162.048 61.0805 162.223C61.3149 162.397 61.5841 162.52 61.87 162.582C62.1558 162.643 62.4516 162.643 62.7372 162.58C63.0228 162.517 63.2915 162.394 63.5251 162.218C63.9021 161.939 64.1748 161.542 64.2997 161.09C64.3899 160.77 64.3824 160.578 64.405 160.578C64.4275 160.578 64.405 160.627 64.405 160.717C64.4071 160.844 64.3932 160.97 64.3636 161.093C64.2618 161.573 63.9959 162.003 63.6116 162.308C63.3217 162.535 62.979 162.685 62.6155 162.744C62.2519 162.803 61.8793 162.77 61.5323 162.646C61.1211 162.503 60.7614 162.241 60.4983 161.894C60.2205 161.513 60.0693 161.054 60.0659 160.582C60.0678 160.111 60.2206 159.652 60.5021 159.274C60.7617 158.925 61.1209 158.663 61.5323 158.522C61.879 158.398 62.2514 158.363 62.615 158.422C62.9785 158.48 63.3213 158.63 63.6116 158.856C63.9952 159.162 64.2609 159.591 64.3636 160.071C64.3928 160.194 64.4067 160.32 64.405 160.447C64.4125 160.542 64.4125 160.59 64.405 160.59Z" fill="#263238"/>
</svg>
