<svg width="45" height="43" viewBox="0 0 45 43" fill="none" xmlns="http://www.w3.org/2000/svg">
<path d="M31.262 29.7307L33.4216 28.708L26.3717 13.8206L24.212 14.8433L31.262 29.7307Z" fill="#455A64"/>
<path d="M26.3531 13.7423C26.4122 13.715 27.6614 16.2091 29.1515 19.3118C30.6415 22.4146 31.7909 24.9586 31.7318 24.9858C31.6728 25.0131 30.4416 22.5054 28.9516 19.4163C27.4616 16.3272 26.3077 13.7695 26.3531 13.7423Z" fill="#263238"/>
<path d="M25.6399 17.808C25.699 17.7808 26.9346 20.2748 28.3929 23.3775C29.8511 26.4803 30.9914 29.0197 30.9323 29.047C30.8733 29.0743 29.6376 26.5939 28.1703 23.4775C26.7029 20.3611 25.5809 17.8398 25.6399 17.808Z" fill="#263238"/>
<path d="M34.9773 16.9538L33.304 15.248L21.545 26.7834L23.2183 28.4892L34.9773 16.9538Z" fill="#455A64"/>
<path d="M33.3583 15.1641C33.4038 15.2141 31.4412 17.1948 28.9745 19.5979C26.5077 22.0011 24.468 23.9046 24.4317 23.8591C24.3953 23.8137 26.3487 21.8285 28.82 19.4253C31.2913 17.0222 33.3129 15.1187 33.3583 15.1641Z" fill="#263238"/>
<path d="M32.6313 19.23C32.6813 19.2799 30.7369 21.2697 28.2929 23.6774C25.8489 26.0851 23.8319 27.9976 23.7864 27.9522C23.741 27.9068 25.6853 25.917 28.1294 23.5093C30.5734 21.1016 32.5859 19.1845 32.6313 19.23Z" fill="#263238"/>
<path d="M30.0446 0.438165L34.6601 1.26032C35.3125 1.37653 35.892 1.74713 36.2712 2.29062C36.6503 2.8341 36.798 3.50594 36.6818 4.15833L35.3044 11.8912C35.244 12.2304 35.0512 12.5318 34.7686 12.7289C34.486 12.9261 34.1366 13.0029 33.7974 12.9425L26.8204 11.6997C26.4812 11.6392 26.1798 11.4465 25.9827 11.1639C25.7855 10.8813 25.7087 10.5319 25.7691 10.1927L27.1466 2.45984C27.2628 1.80745 27.6334 1.22794 28.1768 0.848801C28.7203 0.469663 29.3922 0.321956 30.0446 0.438165Z" fill="#455A64"/>
<path d="M36.0072 7.93574L26.4675 6.23645L26.1536 7.9986L35.6933 9.69789L36.0072 7.93574Z" fill="white"/>
<path d="M36.6034 4.58497L27.0637 2.88568L26.7498 4.64781L36.2895 6.3471L36.6034 4.58497Z" fill="white"/>
<path d="M33.7896 12.9654C33.9212 12.9745 34.0533 12.9745 34.1849 12.9654C34.3712 12.9369 34.549 12.868 34.7059 12.7637C34.8628 12.6593 34.9951 12.522 35.0934 12.3612C35.2207 12.1208 35.295 11.8559 35.3115 11.5844C35.366 11.2845 35.4205 10.9575 35.475 10.6122C35.5977 9.90806 35.734 9.11306 35.8839 8.24083C36.0338 7.36861 36.2019 6.39643 36.3791 5.36521L36.5153 4.57931C36.5744 4.31498 36.6094 4.04585 36.6198 3.77521C36.6234 3.22106 36.4338 2.68297 36.0838 2.25337C35.3751 1.28575 33.9895 1.3448 32.7584 1.07223L30.8322 0.73152C30.5097 0.677006 30.169 0.604313 29.8555 0.567971C29.5344 0.535988 29.21 0.568431 28.9015 0.66338C28.5948 0.758931 28.3107 0.915673 28.0663 1.12415C27.8219 1.33263 27.6223 1.58851 27.4796 1.87631C27.345 2.16358 27.2561 2.47014 27.2161 2.78488L27.0435 3.74343L26.3893 7.3777C26.2849 7.95918 26.1804 8.52249 26.0804 9.07671C26.0305 9.34929 25.985 9.62185 25.9351 9.88534C25.869 10.1324 25.846 10.3891 25.8669 10.644C25.905 10.8788 26.0115 11.0972 26.1731 11.2718C26.3347 11.4463 26.5443 11.5693 26.7755 11.6252L28.1383 11.8796L32.2905 12.6565L33.4171 12.8791C33.5496 12.9006 33.6803 12.9325 33.8078 12.9745C33.6736 12.97 33.5399 12.9548 33.408 12.929L32.2723 12.7473L28.1065 12.0432L26.7437 11.8024C26.478 11.7373 26.2372 11.596 26.0508 11.3958C25.8643 11.1957 25.7404 10.9454 25.6943 10.6758C25.6671 10.3986 25.6886 10.1188 25.7579 9.849C25.8033 9.58552 25.8533 9.31293 25.8987 9.04036C25.9941 8.48614 26.0941 7.92283 26.1986 7.34135L26.8391 3.70707C26.8936 3.38908 26.9527 3.07108 27.0072 2.74854C27.0489 2.41161 27.144 2.08345 27.2888 1.77637C27.4452 1.45947 27.6644 1.17766 27.933 0.94807C28.2017 0.718476 28.5142 0.545884 28.8516 0.440772C29.1909 0.33607 29.5477 0.300549 29.901 0.336295C30.2508 0.381724 30.5642 0.449864 30.8958 0.504378L32.822 0.849624L34.68 1.1858C35.3077 1.29332 35.8746 1.62605 36.2746 2.12163C36.6554 2.59131 36.8596 3.17966 36.8515 3.78431C36.8385 4.06425 36.8005 4.34246 36.7379 4.61564C36.688 4.88367 36.6425 5.14715 36.5971 5.40609C36.4063 6.43277 36.2291 7.39587 36.0701 8.27264C35.9111 9.14941 35.7612 9.93986 35.6159 10.6395C35.5523 10.9847 35.4887 11.3118 35.4341 11.6116C35.4069 11.8931 35.3202 12.1656 35.1797 12.4112C35.0753 12.5791 34.9338 12.7208 34.7661 12.8256C34.5983 12.9303 34.4088 12.9952 34.2121 13.0153C34.0693 13.0313 33.9248 13.0143 33.7896 12.9654Z" fill="#263238"/>
<path d="M36.1499 13.4009L33.7974 12.9819L30.7963 29.8296L33.1488 30.2486L36.1499 13.4009Z" fill="#455A64"/>
<path d="M26.6167 12.1031L24.2642 11.684L21.2631 28.5317L23.6156 28.9507L26.6167 12.1031Z" fill="#455A64"/>
<path d="M38.0915 12.4693L22.9524 9.77262C22.1718 9.63358 21.4264 10.1536 21.2873 10.9342L21.2515 11.1354C21.1124 11.916 21.6325 12.6614 22.413 12.8005L37.5522 15.4972C38.3327 15.6362 39.0782 15.1162 39.2172 14.3356L39.2531 14.1344C39.3921 13.3538 38.8721 12.6084 38.0915 12.4693Z" fill="#455A64"/>
<path d="M37.7101 15.5321C37.7101 15.5957 34.2349 15.0324 29.9873 14.2738C25.7398 13.5151 22.2645 12.8473 22.2872 12.7837C22.3099 12.7201 25.7625 13.2834 30.01 14.0421C34.2576 14.8007 37.7374 15.4685 37.7101 15.5321Z" fill="#263238"/>
<path d="M38.2597 12.5338C38.2597 12.602 34.7799 12.0341 30.5369 11.2755C26.2939 10.5168 22.8141 9.84901 22.8368 9.78541C22.8595 9.72181 26.3121 10.2851 30.5596 11.0438C34.8072 11.8024 38.2688 12.4702 38.2597 12.5338Z" fill="#263238"/>
<path d="M23.6272 28.9471C23.5636 28.9471 24.1269 25.4855 24.881 21.2243C25.6351 16.9631 26.3029 13.5469 26.3665 13.5605C26.4301 13.5742 25.8714 17.0176 25.1127 21.2834C24.3541 25.5491 23.6726 28.9608 23.6272 28.9471Z" fill="#263238"/>
<path d="M30.7234 30.2283C30.6598 30.2283 31.2186 26.7666 31.9773 22.5054C32.7359 18.2442 33.3992 14.828 33.4628 14.8417C33.5264 14.8553 32.9631 18.2988 32.209 22.5645C31.4548 26.8302 30.787 30.2283 30.7234 30.2283Z" fill="#263238"/>
<path d="M36.7335 30.5099L17.9079 27.1573C17.3178 27.0511 16.7097 27.1826 16.2161 27.523C15.7225 27.8634 15.3835 28.3851 15.2731 28.9745L12.9653 41.9397L37.0106 41.8988L38.5733 33.1266C38.6737 32.536 38.5367 31.9296 38.1921 31.4395C37.8475 30.9494 37.3232 30.6153 36.7335 30.5099Z" fill="#455A64"/>
<path d="M37.0107 41.9169L12.97 41.8987L14.5963 32.813L37.892 36.9652L37.0107 41.9169Z" fill="#263238"/>
<path d="M36.3019 30.4781C36.3019 30.5417 32.2996 29.883 27.3843 29.0107C22.4689 28.1385 18.4985 27.3708 18.5076 27.3072C18.5167 27.2436 22.5098 27.9023 27.4252 28.7745C32.3405 29.6467 36.3155 30.4145 36.3019 30.4781Z" fill="#263238"/>
<path d="M0.00463867 42.4076C1.088 41.0437 2.57278 40.055 4.24894 39.5813C5.92509 39.1076 7.70775 39.173 9.34471 39.7682C10.7076 40.2951 12.0159 41.2173 13.4878 41.1537C14.9597 41.0901 16.3043 39.9544 17.7808 39.5047C19.498 38.9777 21.3423 39.4138 23.0959 39.8136C28.3519 41.0129 38.3871 42.235 44.9288 42.4121" fill="white"/>
<path d="M44.9287 42.4076C44.8896 42.4143 44.8497 42.4143 44.8106 42.4076H44.4562C44.1428 42.4076 43.6839 42.4076 43.0934 42.3712C41.9077 42.3303 40.195 42.2304 38.0963 42.0487C35.9975 41.867 33.4716 41.5944 30.696 41.2264C27.9203 40.8584 24.8675 40.3542 21.7239 39.6183C20.9504 39.4528 20.1617 39.369 19.3707 39.3684C18.6096 39.3764 17.8582 39.5402 17.1628 39.8499C16.4723 40.1498 15.8273 40.5359 15.1458 40.8312C14.4797 41.1541 13.7396 41.2936 13.0016 41.2355C12.3116 41.141 11.6423 40.9322 11.0209 40.6177C10.4122 40.3406 9.84434 40.0453 9.2674 39.8272C8.19377 39.4309 7.04602 39.2758 5.90569 39.3729C4.23561 39.4965 2.6386 40.1078 1.31289 41.131C0.959112 41.407 0.627949 41.7109 0.322552 42.0396L0.0863151 42.3031C0.031801 42.3621 0.00454284 42.3939 0 42.3894L0.0681537 42.2894L0.286201 42.0078C0.578701 41.6564 0.904256 41.3339 1.25838 41.0447C2.57563 39.9734 4.18621 39.3256 5.87844 39.1867C7.04725 39.0801 8.22512 39.2353 9.32645 39.641C10.503 40.068 11.6388 40.8675 13.0062 41.0038C13.7073 41.0578 14.4101 40.9229 15.0413 40.6131C15.7046 40.3224 16.3451 39.9363 17.0538 39.6273C17.7764 39.3 18.5593 39.1268 19.3525 39.1185C20.1603 39.1173 20.966 39.2025 21.7557 39.3729C24.9084 40.1134 27.9385 40.6041 30.7096 40.9947C33.4807 41.3854 35.9884 41.6671 38.0963 41.867C40.2041 42.0668 41.9122 42.194 43.0934 42.2667L44.4562 42.344H44.8106L44.9287 42.4076Z" fill="#263238"/>
<path d="M8.99464 35.6614C9.6846 35.6614 10.2439 35.1021 10.2439 34.4121C10.2439 33.7222 9.6846 33.1628 8.99464 33.1628C8.30468 33.1628 7.74536 33.7222 7.74536 34.4121C7.74536 35.1021 8.30468 35.6614 8.99464 35.6614Z" fill="#FAFAFA"/>
<path d="M10.2442 34.4122C10.2106 34.3156 10.1833 34.217 10.1624 34.1169C10.0795 33.8647 9.92088 33.6442 9.70809 33.4854C9.55143 33.3735 9.36969 33.3016 9.1788 33.2763C8.98792 33.2509 8.79373 33.2728 8.61328 33.34C8.39494 33.4218 8.20677 33.5683 8.07392 33.7598C7.94108 33.9514 7.86989 34.179 7.86989 34.4122C7.86989 34.6453 7.94108 34.8729 8.07392 35.0645C8.20677 35.2561 8.39494 35.4025 8.61328 35.4843C8.79373 35.5515 8.98792 35.5734 9.1788 35.548C9.36969 35.5227 9.55143 35.4509 9.70809 35.3389C9.92088 35.1802 10.0795 34.9596 10.1624 34.7074C10.1833 34.6074 10.2106 34.5087 10.2442 34.4122C10.2442 34.4122 10.285 34.5257 10.2442 34.7302C10.1851 35.0229 10.0241 35.2853 9.78987 35.4706C9.61416 35.6127 9.40497 35.7073 9.18228 35.7454C8.9596 35.7836 8.73085 35.7641 8.51787 35.6887C8.2578 35.5915 8.03364 35.4171 7.87538 35.189C7.71712 34.9608 7.63232 34.6898 7.63232 34.4122C7.63232 34.1345 7.71712 33.8635 7.87538 33.6353C8.03364 33.4072 8.2578 33.2329 8.51787 33.1356C8.73098 33.0611 8.95955 33.042 9.18206 33.0802C9.40458 33.1183 9.61375 33.2124 9.78987 33.3537C10.0241 33.539 10.1851 33.8014 10.2442 34.0942C10.285 34.3168 10.2578 34.4122 10.2442 34.4122Z" fill="#263238"/>
</svg>
