<svg
    width="105"
    height="70"
    viewBox="0 0 105 70"
    fill="none"
    xmlns="http://www.w3.org/2000/svg"
  >
    <path
      d="M38.5866 24.6901H43.5229V43.2077C41.2518 45.1959 38.5635 46.7216 35.458 47.7851C32.3525 48.8485 29.0848 49.3802 25.6549 49.3802C20.7881 49.3802 16.408 48.3168 12.5146 46.1899C8.62116 44.063 5.56204 41.1271 3.33722 37.3819C1.11241 33.5905 0 29.3599 0 24.6901C0 20.0203 1.11241 15.8128 3.33722 12.0676C5.56204 8.27625 8.62116 5.31718 12.5146 3.19029C16.408 1.06341 20.8113 0 25.7244 0C29.4324 0 32.8392 0.601093 35.9447 1.80321C39.0502 2.95914 41.6689 4.69299 43.801 7.00478L40.6029 10.2644C36.7558 6.47304 31.8658 4.57738 25.933 4.57738C21.9932 4.57738 18.4242 5.45589 15.2261 7.21284C12.0743 8.9236 9.59451 11.3278 7.78685 14.4257C5.97919 17.4773 5.07536 20.8987 5.07536 24.6901C5.07536 28.4815 5.97919 31.9029 7.78685 34.9545C9.59451 38.0061 12.0743 40.4104 15.2261 42.1674C18.3779 43.9243 21.9237 44.8028 25.8635 44.8028C30.8693 44.8028 35.1104 43.5544 38.5866 41.0577V24.6901Z"
      fill="#FFCB14"
    />
    <path
      d="M79.3594 49.3802C74.5385 49.3802 70.1584 48.3168 66.2191 46.1899C62.3256 44.0168 59.2664 41.0577 57.0416 37.3126C54.8631 33.5674 53.7739 29.3599 53.7739 24.6901C53.7739 20.0203 54.8631 15.8128 57.0416 12.0676C59.2664 8.32251 62.3256 5.38653 66.2191 3.25965C70.1584 1.08657 74.5385 0 79.3594 0C84.1796 0 88.5132 1.06341 92.3607 3.19029C96.2541 5.31718 99.3132 8.27625 101.538 12.0676C103.763 15.8128 104.875 20.0203 104.875 24.6901C104.875 29.3599 103.763 33.5905 101.538 37.3819C99.3132 41.1271 96.2541 44.063 92.3607 46.1899C88.5132 48.3168 84.1796 49.3802 79.3594 49.3802ZM79.3594 44.8028C83.2063 44.8028 86.6826 43.9475 89.7883 42.2367C92.8933 40.4798 95.3267 38.0755 97.0884 35.0239C98.8495 31.926 99.7304 28.4815 99.7304 24.6901C99.7304 20.8987 98.8495 17.4773 97.0884 14.4257C95.3267 11.3278 92.8933 8.9236 89.7883 7.21284C86.6826 5.45589 83.2063 4.57738 79.3594 4.57738C75.5119 4.57738 72.0127 5.45589 68.8611 7.21284C65.7555 8.9236 63.2989 11.3278 61.4913 14.4257C59.7299 17.4773 58.8493 20.8987 58.8493 24.6901C58.8493 28.4815 59.7299 31.926 61.4913 35.0239C63.2989 38.0755 65.7555 40.4798 68.8611 42.2367C72.0127 43.9475 75.5119 44.8028 79.3594 44.8028Z"
      fill="#100070"
    />
    <path
      d="M4.71506 69.185C3.77507 69.185 2.87124 69.0345 2.00356 68.7342C1.14794 68.4339 0.485129 68.0372 0.0151367 67.5441L0.539358 66.5162C0.997302 66.9733 1.60588 67.3457 2.3651 67.6342C3.12432 67.9109 3.90766 68.049 4.71506 68.049C5.84784 68.049 6.69744 67.8444 7.26386 67.4359C7.83028 67.0149 8.11346 66.4739 8.11346 65.813C8.11346 65.3081 7.95682 64.9051 7.64347 64.6048C7.34222 64.3045 6.96859 64.0757 6.52272 63.9196C6.07685 63.7511 5.4562 63.5708 4.66083 63.3786C3.70882 63.138 2.94958 62.9098 2.38317 62.6934C1.81677 62.4653 1.3287 62.1226 0.918967 61.6656C0.521282 61.2086 0.322439 60.5899 0.322439 59.8083C0.322439 59.1709 0.491157 58.5939 0.828585 58.0772C1.16601 57.548 1.68421 57.1278 2.38317 56.815C3.08213 56.5022 3.94979 56.3461 4.98621 56.3461C5.70927 56.3461 6.41426 56.4481 7.10117 56.6527C7.80011 56.8448 8.40269 57.1153 8.90883 57.4641L8.45692 58.528C7.92665 58.1792 7.36029 57.9212 6.75772 57.7526C6.15514 57.5723 5.56466 57.4822 4.98621 57.4822C3.87748 57.4822 3.03996 57.6985 2.47356 58.1313C1.91921 58.5523 1.64203 59.0988 1.64203 59.7722C1.64203 60.2771 1.79267 60.6856 2.09395 60.9984C2.40728 61.2987 2.79291 61.5331 3.25085 61.7017C3.72084 61.8577 4.34748 62.0325 5.13082 62.2246C6.05878 62.4528 6.8059 62.6816 7.37232 62.9098C7.95077 63.1262 8.43884 63.4626 8.83653 63.9196C9.23421 64.3642 9.43305 64.9717 9.43305 65.7409C9.43305 66.3782 9.25834 66.9608 8.90883 67.49C8.57143 68.0067 8.0472 68.4214 7.33617 68.7342C6.62513 69.0345 5.75147 69.185 4.71506 69.185ZM18.0598 69.185C16.8065 69.185 15.6677 68.9083 14.6434 68.3555C13.6311 67.7903 12.8357 67.0211 12.2572 66.0474C11.6908 65.0737 11.4076 63.98 11.4076 62.7656C11.4076 61.5512 11.6908 60.4575 12.2572 59.4837C12.8357 58.51 13.6311 57.7464 14.6434 57.1936C15.6677 56.6284 16.8065 56.3461 18.0598 56.3461C19.3132 56.3461 20.4399 56.6229 21.4402 57.1756C22.4525 57.7284 23.2478 58.4982 23.8263 59.4837C24.4047 60.4575 24.694 61.5512 24.694 62.7656C24.694 63.98 24.4047 65.0799 23.8263 66.0654C23.2478 67.0392 22.4525 67.8028 21.4402 68.3555C20.4399 68.9083 19.3132 69.185 18.0598 69.185ZM18.0598 67.9949C19.0601 67.9949 19.9639 67.7722 20.7713 67.3277C21.5787 66.8706 22.2114 66.2458 22.6694 65.4523C23.1273 64.6471 23.3563 63.7511 23.3563 62.7656C23.3563 61.78 23.1273 60.8902 22.6694 60.0968C22.2114 59.2916 21.5787 58.666 20.7713 58.2215C19.9639 57.7644 19.0601 57.5363 18.0598 57.5363C17.0596 57.5363 16.1498 57.7644 15.3303 58.2215C14.5229 58.666 13.8841 59.2916 13.4142 60.0968C12.9562 60.8902 12.7272 61.78 12.7272 62.7656C12.7272 63.7511 12.9562 64.6471 13.4142 65.4523C13.8841 66.2458 14.5229 66.8706 15.3303 67.3277C16.1498 67.7722 17.0596 67.9949 18.0598 67.9949ZM29.2107 57.6084V62.5672H35.7544V63.7213H29.2107V69.0768H27.873V56.4543H36.5498V57.6084H29.2107ZM42.0396 57.6084H37.5927V56.4543H47.8241V57.6084H43.3773V69.0768H42.0396V57.6084ZM67.4249 56.4543L63.1592 69.0768H61.7492L58.0435 58.3116L54.3197 69.0768H52.9278L48.6618 56.4543H50.0356L53.6871 67.3097L57.4651 56.4543H58.7123L62.4361 67.3637L66.1415 56.4543H67.4249ZM77.6062 65.7048H70.5564L69.0379 69.0768H67.646L73.4305 56.4543H74.7501L80.5347 69.0768H79.1247L77.6062 65.7048ZM77.1182 64.6229L74.0813 57.8428L71.0444 64.6229H77.1182ZM91.4488 69.0768L88.5565 65.0196C88.2311 65.0556 87.8939 65.0737 87.5442 65.0737H84.1458V69.0768H82.8081V56.4543H87.5442C89.1593 56.4543 90.4246 56.8392 91.3403 57.6084C92.2566 58.3775 92.7141 59.4359 92.7141 60.782C92.7141 61.7676 92.4611 62.6033 91.9549 63.2885C91.4613 63.9619 90.75 64.4488 89.8219 64.7491L92.913 69.0768H91.4488ZM87.5081 63.9376C88.7616 63.9376 89.7197 63.6609 90.3822 63.1082C91.0455 62.5554 91.3764 61.78 91.3764 60.782C91.3764 59.7604 91.0455 58.9788 90.3822 58.4379C89.7197 57.8851 88.7616 57.6084 87.5081 57.6084H84.1458V63.9376H87.5081ZM105 67.9227V69.0768H96.052V56.4543H104.729V57.6084H97.3897V62.0984H103.933V63.2344H97.3897V67.9227H105Z"
      fill="#070032"
    />
  </svg>