<svg
    width="91"
    height="57"
    viewBox="0 0 91 57"
    fill="none"
    xmlns="http://www.w3.org/2000/svg"
  >
    <path
      d="M33.4417 20.1583H37.7199V35.2771C35.7515 36.9003 33.4217 38.1461 30.7302 39.0143C28.0388 39.8825 25.2068 40.3166 22.2342 40.3166C18.0164 40.3166 14.2203 39.4484 10.846 37.7119C7.47167 35.9754 4.82043 33.5783 2.89226 30.5206C0.964086 27.4251 0 23.971 0 20.1583C0 16.3456 0.964086 12.9104 2.89226 9.85266C4.82043 6.75717 7.47167 4.34123 10.846 2.60473C14.2203 0.868224 18.0364 0 22.2945 0C25.5081 0 28.4606 0.490765 31.152 1.47224C33.8435 2.416 36.113 3.83161 37.9609 5.71907L35.1891 8.38043C31.855 5.28494 27.617 3.73722 22.4753 3.73722C19.0608 3.73722 15.9677 4.45448 13.1959 5.88895C10.4644 7.2857 8.31524 9.24865 6.7486 11.7779C5.18196 14.2694 4.39864 17.0628 4.39864 20.1583C4.39864 23.2538 5.18196 26.0473 6.7486 28.5387C8.31524 31.0302 10.4644 32.9932 13.1959 34.4277C15.9275 35.8622 19.0005 36.5794 22.415 36.5794C26.7534 36.5794 30.429 35.5602 33.4417 33.5217V20.1583Z"
      fill="#FFCB14"
    />
    <path
      d="M68.7781 40.3166C64.6 40.3166 60.8039 39.4484 57.3898 37.7119C54.0154 35.9377 51.3642 33.5217 49.436 30.464C47.548 27.4063 46.604 23.971 46.604 20.1583C46.604 16.3456 47.548 12.9104 49.436 9.85266C51.3642 6.79494 54.0154 4.39786 57.3898 2.66135C60.8039 0.887136 64.6 0 68.7781 0C72.9556 0 76.7113 0.868224 80.0459 2.60473C83.4202 4.34123 86.0714 6.75717 87.9996 9.85266C89.9277 12.9104 90.8918 16.3456 90.8918 20.1583C90.8918 23.971 89.9277 27.4251 87.9996 30.5206C86.0714 33.5783 83.4202 35.9754 80.0459 37.7119C76.7113 39.4484 72.9556 40.3166 68.7781 40.3166ZM68.7781 36.5794C72.112 36.5794 75.1248 35.8811 77.8164 34.4843C80.5074 33.0499 82.6163 31.0869 84.1432 28.5954C85.6695 26.0661 86.4329 23.2538 86.4329 20.1583C86.4329 17.0628 85.6695 14.2694 84.1432 11.7779C82.6163 9.24865 80.5074 7.2857 77.8164 5.88895C75.1248 4.45448 72.112 3.73722 68.7781 3.73722C65.4436 3.73722 62.4109 4.45448 59.6795 5.88895C56.988 7.2857 54.859 9.24865 53.2923 11.7779C51.7658 14.2694 51.0026 17.0628 51.0026 20.1583C51.0026 23.2538 51.7658 26.0661 53.2923 28.5954C54.859 31.0869 56.988 33.0499 59.6795 34.4843C62.4109 35.8811 65.4436 36.5794 68.7781 36.5794Z"
      fill="white"
    />
    <path
      d="M4.08645 56.4862C3.27179 56.4862 2.48847 56.3634 1.73649 56.1182C0.994942 55.873 0.42051 55.5491 0.0131836 55.1465L0.467509 54.3073C0.864393 54.6805 1.39183 54.9846 2.04981 55.2201C2.7078 55.446 3.3867 55.5587 4.08645 55.5587C5.06819 55.5587 5.80451 55.3917 6.29541 55.0582C6.78631 54.7145 7.03173 54.2728 7.03173 53.7332C7.03173 53.3209 6.89597 52.9919 6.6244 52.7468C6.36331 52.5016 6.0395 52.3147 5.65308 52.1873C5.26667 52.0497 4.72877 51.9025 4.03945 51.7456C3.21437 51.5491 2.55636 51.3628 2.06548 51.1862C1.5746 50.9999 1.15161 50.7202 0.796503 50.347C0.451842 49.9739 0.279512 49.4688 0.279512 48.8306C0.279512 48.3102 0.425734 47.8391 0.718171 47.4173C1.01061 46.9852 1.45972 46.6421 2.06548 46.3867C2.67125 46.1313 3.42321 46.0039 4.32144 46.0039C4.9481 46.0039 5.55909 46.0871 6.15441 46.2542C6.76016 46.411 7.28239 46.6319 7.72105 46.9167L7.32939 47.7853C6.86982 47.5005 6.37898 47.2898 5.85675 47.1523C5.33451 47.005 4.82277 46.9314 4.32144 46.9314C3.36055 46.9314 2.6347 47.1081 2.14381 47.4614C1.66338 47.8051 1.42316 48.2513 1.42316 48.8012C1.42316 49.2134 1.55371 49.5469 1.81482 49.8023C2.08637 50.0475 2.42058 50.2389 2.81747 50.3764C3.22479 50.5039 3.76788 50.6466 4.44677 50.8034C5.251 50.9897 5.8985 51.1766 6.38941 51.3629C6.89073 51.5395 7.31372 51.8141 7.65838 52.1873C8.00304 52.5503 8.17537 53.0463 8.17537 53.6743C8.17537 54.1946 8.02395 54.6703 7.72105 55.1023C7.42863 55.5242 6.9743 55.8628 6.35807 56.1182C5.74184 56.3634 4.98467 56.4862 4.08645 56.4862ZM15.6519 56.4862C14.5657 56.4862 13.5787 56.2603 12.691 55.809C11.8137 55.3475 11.1243 54.7196 10.623 53.9245C10.1321 53.1295 9.88669 52.2366 9.88669 51.2451C9.88669 50.2536 10.1321 49.3606 10.623 48.5656C11.1243 47.7706 11.8137 47.1472 12.691 46.6959C13.5787 46.2344 14.5657 46.0039 15.6519 46.0039C16.7381 46.0039 17.7146 46.2298 18.5815 46.6811C19.4589 47.1324 20.1482 47.761 20.6495 48.5656C21.1508 49.3606 21.4015 50.2536 21.4015 51.2451C21.4015 52.2366 21.1508 53.1346 20.6495 53.9393C20.1482 54.7343 19.4589 55.3577 18.5815 55.809C17.7146 56.2603 16.7381 56.4862 15.6519 56.4862ZM15.6519 55.5146C16.5188 55.5146 17.3021 55.3328 18.0019 54.9698C18.7016 54.5967 19.2499 54.0865 19.6468 53.4387C20.0438 52.7813 20.2422 52.0497 20.2422 51.2451C20.2422 50.4404 20.0438 49.7139 19.6468 49.0662C19.2499 48.4088 18.7016 47.898 18.0019 47.535C17.3021 47.1619 16.5188 46.9756 15.6519 46.9756C14.785 46.9756 13.9965 47.1619 13.2863 47.535C12.5865 47.898 12.033 48.4088 11.6257 49.0662C11.2288 49.7139 11.0303 50.4404 11.0303 51.2451C11.0303 52.0497 11.2288 52.7813 11.6257 53.4387C12.033 54.0865 12.5865 54.5967 13.2863 54.9698C13.9965 55.3328 14.785 55.5146 15.6519 55.5146ZM25.316 47.0345V51.0831H30.9872V52.0254H25.316V56.3979H24.1567V46.0922H31.6765V47.0345H25.316ZM36.4344 47.0345H32.5804V46.0922H41.4476V47.0345H37.5937V56.3979H36.4344V47.0345ZM58.435 46.0922L54.738 56.3979H53.516L50.3044 47.6086L47.0771 56.3979H45.8708L42.1736 46.0922H43.3642L46.5288 54.9551L49.8031 46.0922H50.8841L54.1113 54.9993L57.3227 46.0922H58.435ZM67.2588 53.6448H61.1489L59.8329 56.3979H58.6266L63.6398 46.0922H64.7835L69.7967 56.3979H68.5747L67.2588 53.6448ZM66.8358 52.7615L64.2038 47.2259L61.5719 52.7615H66.8358ZM79.2556 56.3979L76.749 53.0854C76.467 53.1148 76.1748 53.1295 75.8717 53.1295H72.9264V56.3979H71.7671V46.0922H75.8717C77.2714 46.0922 78.368 46.4065 79.1616 47.0345C79.9558 47.6624 80.3522 48.5265 80.3522 49.6256C80.3522 50.4302 80.1329 51.1126 79.6943 51.672C79.2664 52.2218 78.65 52.6193 77.8456 52.8645L80.5246 56.3979H79.2556ZM75.8403 52.202C76.9267 52.202 77.7571 51.9761 78.3313 51.5248C78.9061 51.0735 79.1929 50.4404 79.1929 49.6256C79.1929 48.7915 78.9061 48.1534 78.3313 47.7117C77.7571 47.2604 76.9267 47.0345 75.8403 47.0345H72.9264V52.202H75.8403ZM91 55.4557V56.3979H83.2451V46.0922H90.765V47.0345H84.4044V50.7003H90.0757V51.6279H84.4044V55.4557H91Z"
      fill="white"
    />
  </svg>